CooperHewittInterpol1-LightItalic.ufo
<glyph name="dollar" format="1">
  <advance width="597"/>
  <unicode hex="0024"/>
  <outline>
    <contour>
      <point x="143" y="551" type="line" smooth="yes"/>
      <point x="144" y="559" type="line" smooth="yes"/>
      <point x="203" y="657" type="line" smooth="yes"/>
      <point x="327" y="688" type="line" smooth="yes"/>
      <point x="337" y="688" type="line" smooth="yes"/>
      <point x="363" y="687" type="line" smooth="yes"/>
      <point x="386" y="684" type="line" smooth="yes"/>
      <point x="288" y="420" type="line" smooth="yes"/>
      <point x="171" y="463" type="line" smooth="yes"/>
    </contour>
    <contour>
      <point x="313" y="379" type="line" smooth="yes"/>
      <point x="438" y="335" type="line" smooth="yes"/>
      <point x="470" y="238" type="line" smooth="yes"/>
      <point x="469" y="230" type="line" smooth="yes"/>
      <point x="412" y="128" type="line" smooth="yes"/>
      <point x="283" y="92" type="line" smooth="yes"/>
      <point x="277" y="92" type="line" smooth="yes"/>
      <point x="241" y="94" type="line" smooth="yes"/>
      <point x="209" y="98" type="line" smooth="yes"/>
    </contour>
    <contour>
      <point x="484" y="840" type="line" smooth="yes"/>
      <point x="444" y="840" type="line" smooth="yes"/>
      <point x="399" y="720" type="line" smooth="yes"/>
      <point x="367" y="725" type="line" smooth="yes"/>
      <point x="332" y="726" type="line" smooth="yes"/>
      <point x="176" y="684" type="line" smooth="yes"/>
      <point x="102" y="559" type="line" smooth="yes"/>
      <point x="101" y="551" type="line" smooth="yes"/>
      <point x="134" y="441" type="line" smooth="yes"/>
      <point x="275" y="384" type="line" smooth="yes"/>
      <point x="173" y="108" type="line" smooth="yes"/>
      <point x="108" y="164" type="line" smooth="yes"/>
      <point x="96" y="271" type="line" smooth="yes"/>
      <point x="56" y="271" type="line" smooth="yes"/>
      <point x="54" y="256" type="line" smooth="yes"/>
      <point x="73" y="140" type="line" smooth="yes"/>
      <point x="160" y="72" type="line" smooth="yes"/>
      <point x="111" y="-60" type="line" smooth="yes"/>
      <point x="151" y="-60" type="line" smooth="yes"/>
      <point x="196" y="62" type="line" smooth="yes"/>
      <point x="236" y="56" type="line" smooth="yes"/>
      <point x="280" y="54" type="line" smooth="yes"/>
      <point x="441" y="101" type="line" smooth="yes"/>
      <point x="511" y="230" type="line" smooth="yes"/>
      <point x="512" y="238" type="line" smooth="yes"/>
      <point x="478" y="356" type="line" smooth="yes"/>
      <point x="326" y="415" type="line" smooth="yes"/>
      <point x="422" y="674" type="line" smooth="yes"/>
      <point x="493" y="602" type="line" smooth="yes"/>
      <point x="499" y="498" type="line" smooth="yes"/>
      <point x="539" y="498" type="line" smooth="yes"/>
      <point x="541" y="513" type="line" smooth="yes"/>
      <point x="522" y="642" type="line" smooth="yes"/>
      <point x="436" y="710" type="line" smooth="yes"/>
    </contour>
  </outline>
</glyph>
<glyph name="ampersand" format="1">
  <advance width="650"/>
  <unicode hex="0026"/>
  <outline>
    <contour>
      <point x="146" y="634" type="line" smooth="yes"/>
      <point x="185" y="715" type="line" smooth="yes"/>
      <point x="288" y="750" type="line" smooth="yes"/>
      <point x="294" y="750" type="line" smooth="yes"/>
      <point x="388" y="716" type="line" smooth="yes"/>
      <point x="412" y="634" type="line" smooth="yes"/>
      <point x="411" y="626" type="line" smooth="yes"/>
      <point x="348" y="526" type="line" smooth="yes"/>
      <point x="227" y="445" type="line" smooth="yes"/>
      <point x="163" y="533" type="line" smooth="yes"/>
      <point x="145" y="626" type="line" smooth="yes"/>
    </contour>
    <contour>
      <point x="232" y="30" type="line" smooth="yes"/>
      <point x="99" y="79" type="line" smooth="yes"/>
      <point x="67" y="202" type="line" smooth="yes"/>
      <point x="69" y="218" type="line" smooth="yes"/>
      <point x="118" y="319" type="line" smooth="yes"/>
      <point x="212" y="394" type="line" smooth="yes"/>
      <point x="434" y="123" type="line" smooth="yes"/>
      <point x="340" y="50" type="line" smooth="yes"/>
      <point x="240" y="30" type="line" smooth="yes"/>
    </contour>
    <contour>
      <point x="236" y="-10" type="line" smooth="yes"/>
      <point x="353" y="15" type="line" smooth="yes"/>
      <point x="458" y="94" type="line" smooth="yes"/>
      <point x="535" y="0" type="line" smooth="yes"/>
      <point x="591" y="0" type="line" smooth="yes"/>
      <point x="485" y="129" type="line" smooth="yes"/>
      <point x="542" y="241" type="line" smooth="yes"/>
      <point x="578" y="395" type="line" smooth="yes"/>
      <point x="538" y="395" type="line" smooth="yes"/>
      <point x="537" y="387" type="line" smooth="yes"/>
      <point x="507" y="255" type="line" smooth="yes"/>
      <point x="460" y="159" type="line" smooth="yes"/>
      <point x="249" y="417" type="line" smooth="yes"/>
      <point x="382" y="508" type="line" smooth="yes"/>
      <point x="453" y="626" type="line" smooth="yes"/>
      <point x="454" y="634" type="line" smooth="yes"/>
      <point x="419" y="745" type="line" smooth="yes"/>
      <point x="290" y="790" type="line" smooth="yes"/>
      <point x="158" y="746" type="line" smooth="yes"/>
      <point x="104" y="634" type="line" smooth="yes"/>
      <point x="103" y="626" type="line" smooth="yes"/>
      <point x="120" y="525" type="line" smooth="yes"/>
      <point x="190" y="421" type="line" smooth="yes"/>
      <point x="84" y="338" type="line" smooth="yes"/>
      <point x="29" y="218" type="line" smooth="yes"/>
      <point x="27" y="202" type="line" smooth="yes"/>
      <point x="73" y="45" type="line" smooth="yes"/>
    </contour>
  </outline>
</glyph>
<glyph name="parenleft" format="1">
  <advance width="300"/>
  <unicode hex="0028"/>
  <outline>
    <contour>
      <point x="51" y="350" type="line" smooth="yes"/>
      <point x="68" y="82" type="line" smooth="yes"/>
      <point x="147" y="-120" type="line" smooth="yes"/>
      <point x="192" y="-120" type="line" smooth="yes"/>
      <point x="108" y="86" type="line" smooth="yes"/>
      <point x="92" y="350" type="line" smooth="yes"/>
      <point x="95" y="374" type="line" smooth="yes"/>
      <point x="181" y="650" type="line" smooth="yes"/>
      <point x="321" y="840" type="line" smooth="yes"/>
      <point x="275" y="840" type="line" smooth="yes"/>
      <point x="147" y="667" type="line" smooth="yes"/>
      <point x="54" y="374" type="line" smooth="yes"/>
    </contour>
  </outline>
</glyph>
<glyph name="parenright" format="1">
  <advance width="294"/>
  <unicode hex="0029"/>
  <outline>
    <contour>
      <point x="245" y="370" type="line" smooth="yes"/>
      <point x="228" y="638" type="line" smooth="yes"/>
      <point x="149" y="840" type="line" smooth="yes"/>
      <point x="104" y="840" type="line" smooth="yes"/>
      <point x="188" y="634" type="line" smooth="yes"/>
      <point x="204" y="370" type="line" smooth="yes"/>
      <point x="201" y="346" type="line" smooth="yes"/>
      <point x="115" y="70" type="line" smooth="yes"/>
      <point x="-25" y="-120" type="line" smooth="yes"/>
      <point x="21" y="-120" type="line" smooth="yes"/>
      <point x="150" y="53" type="line" smooth="yes"/>
      <point x="242" y="346" type="line" smooth="yes"/>
    </contour>
  </outline>
</glyph>
<glyph name="two" format="1">
  <advance width="598"/>
  <unicode hex="0032"/>
  <outline>
    <contour>
      <point x="163" y="40" type="line" smooth="yes"/>
      <point x="87" y="39" type="line" smooth="yes"/>
      <point x="450" y="375" type="line" smooth="yes"/>
      <point x="535" y="471" type="line" smooth="yes"/>
      <point x="566" y="573" type="line" smooth="yes"/>
      <point x="567" y="581" type="line" smooth="yes"/>
      <point x="516" y="734" type="line" smooth="yes"/>
      <point x="342" y="790" type="line" smooth="yes"/>
      <point x="157" y="724" type="line" smooth="yes"/>
      <point x="82" y="543" type="line" smooth="yes"/>
      <point x="79" y="520" type="line" smooth="yes"/>
      <point x="119" y="520" type="line" smooth="yes"/>
      <point x="187" y="698" type="line" smooth="yes"/>
      <point x="339" y="752" type="line" smooth="yes"/>
      <point x="345" y="752" type="line" smooth="yes"/>
      <point x="484" y="704" type="line" smooth="yes"/>
      <point x="525" y="577" type="line" smooth="yes"/>
      <point x="524" y="569" type="line" smooth="yes"/>
      <point x="495" y="483" type="line" smooth="yes"/>
      <point x="412" y="393" type="line" smooth="yes"/>
      <point x="14" y="25" type="line" smooth="yes"/>
      <point x="11" y="0" type="line" smooth="yes"/>
      <point x="491" y="0" type="line" smooth="yes"/>
      <point x="496" y="40" type="line" smooth="yes"/>
    </contour>
  </outline>
</glyph>
<glyph name="three" format="1">
  <advance width="598"/>
  <unicode hex="0033"/>
  <outline>
    <contour>
      <point x="78" y="250" type="line" smooth="yes"/>
      <point x="38" y="250" type="line" smooth="yes"/>
      <point x="37" y="242" type="line" smooth="yes"/>
      <point x="77" y="59" type="line" smooth="yes"/>
      <point x="265" y="-10" type="line" smooth="yes"/>
      <point x="433" y="45" type="line" smooth="yes"/>
      <point x="521" y="200" type="line" smooth="yes"/>
      <point x="522" y="208" type="line" smooth="yes"/>
      <point x="498" y="333" type="line" smooth="yes"/>
      <point x="402" y="397" type="line" smooth="yes"/>
      <point x="511" y="456" type="line" smooth="yes"/>
      <point x="566" y="574" type="line" smooth="yes"/>
      <point x="567" y="582" type="line" smooth="yes"/>
      <point x="516" y="735" type="line" smooth="yes"/>
      <point x="342" y="790" type="line" smooth="yes"/>
      <point x="157" y="724" type="line" smooth="yes"/>
      <point x="82" y="543" type="line" smooth="yes"/>
      <point x="79" y="520" type="line" smooth="yes"/>
      <point x="119" y="520" type="line" smooth="yes"/>
      <point x="187" y="698" type="line" smooth="yes"/>
      <point x="339" y="752" type="line" smooth="yes"/>
      <point x="345" y="752" type="line" smooth="yes"/>
      <point x="484" y="706" type="line" smooth="yes"/>
      <point x="525" y="581" type="line" smooth="yes"/>
      <point x="524" y="573" type="line" smooth="yes"/>
      <point x="455" y="454" type="line" smooth="yes"/>
      <point x="317" y="417" type="line" smooth="yes"/>
      <point x="205" y="417" type="line" smooth="yes"/>
      <point x="200" y="379" type="line" smooth="yes"/>
      <point x="317" y="379" type="line" smooth="yes"/>
      <point x="445" y="336" type="line" smooth="yes"/>
      <point x="480" y="207" type="line" smooth="yes"/>
      <point x="479" y="199" type="line" smooth="yes"/>
      <point x="405" y="70" type="line" smooth="yes"/>
      <point x="265" y="28" type="line" smooth="yes"/>
      <point x="259" y="28" type="line" smooth="yes"/>
      <point x="112" y="82" type="line" smooth="yes"/>
    </contour>
  </outline>
</glyph>
<glyph name="five" format="1">
  <advance width="600"/>
  <unicode hex="0035"/>
  <outline>
    <contour>
      <point x="38" y="250" type="line" smooth="yes"/>
      <point x="37" y="242" type="line" smooth="yes"/>
      <point x="77" y="59" type="line" smooth="yes"/>
      <point x="265" y="-10" type="line" smooth="yes"/>
      <point x="438" y="50" type="line" smooth="yes"/>
      <point x="527" y="232" type="line" smooth="yes"/>
      <point x="528" y="240" type="line" smooth="yes"/>
      <point x="475" y="426" type="line" smooth="yes"/>
      <point x="303" y="490" type="line" smooth="yes"/>
      <point x="187" y="469" type="line" smooth="yes"/>
      <point x="109" y="414" type="line" smooth="yes"/>
      <point x="166" y="740" type="line" smooth="yes"/>
      <point x="583" y="740" type="line" smooth="yes"/>
      <point x="588" y="780" type="line" smooth="yes"/>
      <point x="133" y="780" type="line" smooth="yes"/>
      <point x="57" y="345" type="line" smooth="yes"/>
      <point x="89" y="336" type="line" smooth="yes"/>
      <point x="177" y="425" type="line" smooth="yes"/>
      <point x="298" y="452" type="line" smooth="yes"/>
      <point x="308" y="452" type="line" smooth="yes"/>
      <point x="445" y="398" type="line" smooth="yes"/>
      <point x="486" y="239" type="line" smooth="yes"/>
      <point x="485" y="231" type="line" smooth="yes"/>
      <point x="409" y="77" type="line" smooth="yes"/>
      <point x="265" y="28" type="line" smooth="yes"/>
      <point x="259" y="28" type="line" smooth="yes"/>
      <point x="112" y="82" type="line" smooth="yes"/>
      <point x="78" y="250" type="line" smooth="yes"/>
    </contour>
  </outline>
</glyph>
<glyph name="six" format="1">
  <advance width="600"/>
  <unicode hex="0036"/>
  <outline>
    <contour>
      <point x="316" y="450" type="line" smooth="yes"/>
      <point x="454" y="394" type="line" smooth="yes"/>
      <point x="490" y="240" type="line" smooth="yes"/>
      <point x="489" y="232" type="line" smooth="yes"/>
      <point x="421" y="82" type="line" smooth="yes"/>
      <point x="272" y="30" type="line" smooth="yes"/>
      <point x="266" y="30" type="line" smooth="yes"/>
      <point x="128" y="82" type="line" smooth="yes"/>
      <point x="85" y="260" type="line" smooth="yes"/>
      <point x="91" y="304" type="line" smooth="yes"/>
      <point x="95" y="323" type="line" smooth="yes"/>
      <point x="185" y="415" type="line" smooth="yes"/>
      <point x="310" y="450" type="line" smooth="yes"/>
    </contour>
    <contour>
      <point x="570" y="790" type="line" smooth="yes"/>
      <point x="389" y="753" type="line" smooth="yes"/>
      <point x="204" y="629" type="line" smooth="yes"/>
      <point x="92" y="458" type="line" smooth="yes"/>
      <point x="46" y="275" type="line" smooth="yes"/>
      <point x="45" y="267" type="line" smooth="yes"/>
      <point x="93" y="61" type="line" smooth="yes"/>
      <point x="269" y="-10" type="line" smooth="yes"/>
      <point x="443" y="49" type="line" smooth="yes"/>
      <point x="531" y="233" type="line" smooth="yes"/>
      <point x="532" y="241" type="line" smooth="yes"/>
      <point x="483" y="429" type="line" smooth="yes"/>
      <point x="313" y="490" type="line" smooth="yes"/>
      <point x="197" y="463" type="line" smooth="yes"/>
      <point x="112" y="396" type="line" smooth="yes"/>
      <point x="160" y="502" type="line" smooth="yes"/>
      <point x="234" y="603" type="line" smooth="yes"/>
      <point x="407" y="718" type="line" smooth="yes"/>
      <point x="564" y="750" type="line" smooth="yes"/>
    </contour>
  </outline>
</glyph>
<glyph name="eight" format="1">
  <advance width="598"/>
  <unicode hex="0038"/>
  <outline>
    <contour>
      <point x="345" y="752" type="line" smooth="yes"/>
      <point x="484" y="706" type="line" smooth="yes"/>
      <point x="525" y="581" type="line" smooth="yes"/>
      <point x="524" y="573" type="line" smooth="yes"/>
      <point x="454" y="454" type="line" smooth="yes"/>
      <point x="317" y="417" type="line" smooth="yes"/>
      <point x="293" y="417" type="line" smooth="yes"/>
      <point x="167" y="456" type="line" smooth="yes"/>
      <point x="129" y="577" type="line" smooth="yes"/>
      <point x="130" y="585" type="line" smooth="yes"/>
      <point x="196" y="708" type="line" smooth="yes"/>
      <point x="339" y="752" type="line" smooth="yes"/>
    </contour>
    <contour>
      <point x="310" y="379" type="line" smooth="yes"/>
      <point x="441" y="336" type="line" smooth="yes"/>
      <point x="480" y="207" type="line" smooth="yes"/>
      <point x="479" y="199" type="line" smooth="yes"/>
      <point x="407" y="71" type="line" smooth="yes"/>
      <point x="268" y="28" type="line" smooth="yes"/>
      <point x="258" y="28" type="line" smooth="yes"/>
      <point x="120" y="69" type="line" smooth="yes"/>
      <point x="75" y="199" type="line" smooth="yes"/>
      <point x="76" y="207" type="line" smooth="yes"/>
      <point x="146" y="335" type="line" smooth="yes"/>
      <point x="290" y="379" type="line" smooth="yes"/>
    </contour>
    <contour>
      <point x="258" y="-10" type="line" smooth="yes"/>
      <point x="433" y="45" type="line" smooth="yes"/>
      <point x="521" y="200" type="line" smooth="yes"/>
      <point x="522" y="208" type="line" smooth="yes"/>
      <point x="499" y="333" type="line" smooth="yes"/>
      <point x="402" y="397" type="line" smooth="yes"/>
      <point x="511" y="456" type="line" smooth="yes"/>
      <point x="566" y="574" type="line" smooth="yes"/>
      <point x="567" y="582" type="line" smooth="yes"/>
      <point x="516" y="735" type="line" smooth="yes"/>
      <point x="342" y="790" type="line" smooth="yes"/>
      <point x="166" y="736" type="line" smooth="yes"/>
      <point x="88" y="584" type="line" smooth="yes"/>
      <point x="87" y="576" type="line" smooth="yes"/>
      <point x="115" y="456" type="line" smooth="yes"/>
      <point x="204" y="399" type="line" smooth="yes"/>
      <point x="95" y="340" type="line" smooth="yes"/>
      <point x="34" y="206" type="line" smooth="yes"/>
      <point x="33" y="198" type="line" smooth="yes"/>
      <point x="87" y="44" type="line" smooth="yes"/>
    </contour>
  </outline>
</glyph>
<glyph name="nine" format="1">
  <advance width="596"/>
  <unicode hex="0039"/>
  <outline>
    <contour>
      <point x="287" y="330" type="line" smooth="yes"/>
      <point x="149" y="386" type="line" smooth="yes"/>
      <point x="113" y="540" type="line" smooth="yes"/>
      <point x="114" y="548" type="line" smooth="yes"/>
      <point x="182" y="698" type="line" smooth="yes"/>
      <point x="331" y="750" type="line" smooth="yes"/>
      <point x="337" y="750" type="line" smooth="yes"/>
      <point x="475" y="698" type="line" smooth="yes"/>
      <point x="518" y="520" type="line" smooth="yes"/>
      <point x="512" y="476" type="line" smooth="yes"/>
      <point x="508" y="457" type="line" smooth="yes"/>
      <point x="418" y="365" type="line" smooth="yes"/>
      <point x="293" y="330" type="line" smooth="yes"/>
    </contour>
    <contour>
      <point x="33" y="-10" type="line" smooth="yes"/>
      <point x="215" y="27" type="line" smooth="yes"/>
      <point x="399" y="151" type="line" smooth="yes"/>
      <point x="511" y="322" type="line" smooth="yes"/>
      <point x="557" y="505" type="line" smooth="yes"/>
      <point x="558" y="513" type="line" smooth="yes"/>
      <point x="510" y="719" type="line" smooth="yes"/>
      <point x="334" y="790" type="line" smooth="yes"/>
      <point x="160" y="732" type="line" smooth="yes"/>
      <point x="72" y="547" type="line" smooth="yes"/>
      <point x="71" y="539" type="line" smooth="yes"/>
      <point x="120" y="352" type="line" smooth="yes"/>
      <point x="290" y="290" type="line" smooth="yes"/>
      <point x="406" y="318" type="line" smooth="yes"/>
      <point x="491" y="384" type="line" smooth="yes"/>
      <point x="443" y="278" type="line" smooth="yes"/>
      <point x="369" y="177" type="line" smooth="yes"/>
      <point x="197" y="62" type="line" smooth="yes"/>
      <point x="39" y="30" type="line" smooth="yes"/>
    </contour>
  </outline>
</glyph>
<glyph name="colon" format="1">
  <advance width="200"/>
  <unicode hex="003A"/>
  <outline>
    <contour>
      <point x="136" y="420" type="line" smooth="yes"/>
      <point x="76" y="420" type="line" smooth="yes"/>
      <point x="68" y="360" type="line" smooth="yes"/>
      <point x="128" y="360" type="line" smooth="yes"/>
    </contour>
    <contour>
      <point x="88" y="60" type="line" smooth="yes"/>
      <point x="28" y="60" type="line" smooth="yes"/>
      <point x="21" y="0" type="line" smooth="yes"/>
      <point x="81" y="0" type="line" smooth="yes"/>
    </contour>
  </outline>
</glyph>
<glyph name="less" format="1">
  <advance width="600"/>
  <unicode hex="003C"/>
  <outline>
    <contour>
      <point x="53" y="410" type="line" smooth="yes"/>
      <point x="48" y="370" type="line" smooth="yes"/>
      <point x="516" y="124" type="line" smooth="yes"/>
      <point x="521" y="164" type="line" smooth="yes"/>
      <point x="91" y="388" type="line" smooth="yes"/>
      <point x="580" y="612" type="line" smooth="yes"/>
      <point x="586" y="656" type="line" smooth="yes"/>
    </contour>
  </outline>
</glyph>
<glyph name="equal" format="1">
  <advance width="600"/>
  <unicode hex="003D"/>
  <outline>
    <contour>
      <point x="35" y="270" type="line" smooth="yes"/>
      <point x="535" y="270" type="line" smooth="yes"/>
      <point x="540" y="310" type="line" smooth="yes"/>
      <point x="40" y="310" type="line" smooth="yes"/>
    </contour>
    <contour>
      <point x="61" y="470" type="line" smooth="yes"/>
      <point x="561" y="470" type="line" smooth="yes"/>
      <point x="567" y="510" type="line" smooth="yes"/>
      <point x="67" y="510" type="line" smooth="yes"/>
    </contour>
  </outline>
</glyph>
<glyph name="question" format="1">
  <advance width="440"/>
  <unicode hex="003F"/>
  <outline>
    <contour>
      <point x="208" y="60" type="line" smooth="yes"/>
      <point x="148" y="60" type="line" smooth="yes"/>
      <point x="141" y="0" type="line" smooth="yes"/>
      <point x="201" y="0" type="line" smooth="yes"/>
    </contour>
    <contour>
      <point x="267" y="752" type="line" smooth="yes"/>
      <point x="366" y="719" type="line" smooth="yes"/>
      <point x="396" y="620" type="line" smooth="yes"/>
      <point x="297" y="401" type="line" smooth="yes"/>
      <point x="182" y="175" type="line" smooth="yes"/>
      <point x="206" y="175" type="line" smooth="yes"/>
      <point x="335" y="394" type="line" smooth="yes"/>
      <point x="438" y="630" type="line" smooth="yes"/>
      <point x="397" y="747" type="line" smooth="yes"/>
      <point x="267" y="790" type="line" smooth="yes"/>
      <point x="110" y="715" type="line" smooth="yes"/>
      <point x="46" y="513" type="line" smooth="yes"/>
      <point x="44" y="500" type="line" smooth="yes"/>
      <point x="84" y="500" type="line" smooth="yes"/>
      <point x="137" y="683" type="line" smooth="yes"/>
    </contour>
  </outline>
</glyph>
<glyph name="at" format="1">
  <advance width="945"/>
  <unicode hex="0040"/>
  <outline>
    <contour>
      <point x="614" y="410" type="line" smooth="yes"/>
      <point x="584" y="180" type="line" smooth="yes"/>
      <point x="520" y="119" type="line" smooth="yes"/>
      <point x="422" y="88" type="line" smooth="yes"/>
      <point x="305" y="145" type="line" smooth="yes"/>
      <point x="285" y="285" type="line" smooth="yes"/>
      <point x="288" y="305" type="line" smooth="yes"/>
      <point x="347" y="445" type="line" smooth="yes"/>
      <point x="477" y="502" type="line" smooth="yes"/>
      <point x="567" y="471" type="line" smooth="yes"/>
    </contour>
    <contour>
      <point x="425" y="-172" type="line" smooth="yes"/>
      <point x="137" y="-58" type="line" smooth="yes"/>
      <point x="61" y="270" type="line" smooth="yes"/>
      <point x="66" y="310" type="line" smooth="yes"/>
      <point x="223" y="634" type="line" smooth="yes"/>
      <point x="540" y="752" type="line" smooth="yes"/>
      <point x="546" y="752" type="line" smooth="yes"/>
      <point x="797" y="664" type="line" smooth="yes"/>
      <point x="874" y="385" type="line" smooth="yes"/>
      <point x="870" y="355" type="line" smooth="yes"/>
      <point x="778" y="143" type="line" smooth="yes"/>
      <point x="613" y="97" type="line" smooth="yes"/>
      <point x="651" y="380" type="line" smooth="yes"/>
      <point x="675" y="530" type="line" smooth="yes"/>
      <point x="645" y="530" type="line" smooth="yes"/>
      <point x="625" y="453" type="line" smooth="yes"/>
      <point x="573" y="514" type="line" smooth="yes"/>
      <point x="475" y="540" type="line" smooth="yes"/>
      <point x="313" y="467" type="line" smooth="yes"/>
      <point x="246" y="305" type="line" smooth="yes"/>
      <point x="243" y="285" type="line" smooth="yes"/>
      <point x="267" y="123" type="line" smooth="yes"/>
      <point x="414" y="50" type="line" smooth="yes"/>
      <point x="517" y="76" type="line" smooth="yes"/>
      <point x="583" y="136" type="line" smooth="yes"/>
      <point x="583" y="60" type="line" smooth="yes"/>
      <point x="608" y="60" type="line" smooth="yes"/>
      <point x="806" y="118" type="line" smooth="yes"/>
      <point x="912" y="355" type="line" smooth="yes"/>
      <point x="916" y="385" type="line" smooth="yes"/>
      <point x="828" y="689" type="line" smooth="yes"/>
      <point x="540" y="790" type="line" smooth="yes"/>
      <point x="194" y="663" type="line" smooth="yes"/>
      <point x="26" y="310" type="line" smooth="yes"/>
      <point x="21" y="270" type="line" smooth="yes"/>
      <point x="103" y="-83" type="line" smooth="yes"/>
      <point x="428" y="-210" type="line" smooth="yes"/>
      <point x="610" y="-188" type="line" smooth="yes"/>
      <point x="791" y="-100" type="line" smooth="yes"/>
      <point x="772" y="-68" type="line" smooth="yes"/>
      <point x="608" y="-148" type="line" smooth="yes"/>
      <point x="431" y="-172" type="line" smooth="yes"/>
    </contour>
  </outline>
</glyph>
<glyph name="B" format="1">
  <advance width="567"/>
  <unicode hex="0042"/>
  <outline>
    <contour>
      <point x="320" y="742" type="line" smooth="yes"/>
      <point x="442" y="706" type="line" smooth="yes"/>
      <point x="476" y="588" type="line" smooth="yes"/>
      <point x="473" y="564" type="line" smooth="yes"/>
      <point x="405" y="451" type="line" smooth="yes"/>
      <point x="280" y="420" type="line" smooth="yes"/>
      <point x="126" y="420" type="line" smooth="yes"/>
      <point x="168" y="742" type="line" smooth="yes"/>
    </contour>
    <contour>
      <point x="298" y="382" type="line" smooth="yes"/>
      <point x="412" y="339" type="line" smooth="yes"/>
      <point x="447" y="211" type="line" smooth="yes"/>
      <point x="444" y="187" type="line" smooth="yes"/>
      <point x="374" y="70" type="line" smooth="yes"/>
      <point x="238" y="38" type="line" smooth="yes"/>
      <point x="76" y="38" type="line" smooth="yes"/>
      <point x="121" y="382" type="line" smooth="yes"/>
    </contour>
    <contour>
      <point x="133" y="780" type="line" smooth="yes"/>
      <point x="31" y="0" type="line" smooth="yes"/>
      <point x="235" y="0" type="line" smooth="yes"/>
      <point x="404" y="44" type="line" smooth="yes"/>
      <point x="486" y="187" type="line" smooth="yes"/>
      <point x="489" y="211" type="line" smooth="yes"/>
      <point x="461" y="340" type="line" smooth="yes"/>
      <point x="360" y="401" type="line" smooth="yes"/>
      <point x="462" y="453" type="line" smooth="yes"/>
      <point x="515" y="564" type="line" smooth="yes"/>
      <point x="518" y="588" type="line" smooth="yes"/>
      <point x="475" y="732" type="line" smooth="yes"/>
      <point x="320" y="780" type="line" smooth="yes"/>
    </contour>
  </outline>
</glyph>
<glyph name="D" format="1">
  <advance width="623"/>
  <unicode hex="0044"/>
  <outline>
    <contour>
      <point x="76" y="38" type="line" smooth="yes"/>
      <point x="168" y="742" type="line" smooth="yes"/>
      <point x="317" y="742" type="line" smooth="yes"/>
      <point x="492" y="664" type="line" smooth="yes"/>
      <point x="528" y="402" type="line" smooth="yes"/>
      <point x="525" y="378" type="line" smooth="yes"/>
      <point x="420" y="116" type="line" smooth="yes"/>
      <point x="221" y="38" type="line" smooth="yes"/>
    </contour>
    <contour>
      <point x="570" y="402" type="line" smooth="yes"/>
      <point x="523" y="692" type="line" smooth="yes"/>
      <point x="320" y="780" type="line" smooth="yes"/>
      <point x="133" y="780" type="line" smooth="yes"/>
      <point x="31" y="0" type="line" smooth="yes"/>
      <point x="221" y="0" type="line" smooth="yes"/>
      <point x="447" y="88" type="line" smooth="yes"/>
      <point x="567" y="378" type="line" smooth="yes"/>
    </contour>
  </outline>
</glyph>
<glyph name="Q" format="1">
  <advance width="631"/>
  <unicode hex="0051"/>
  <outline>
    <contour>
      <point x="280" y="213" type="line" smooth="yes"/>
      <point x="325" y="32" type="line" smooth="yes"/>
      <point x="302" y="29" type="line" smooth="yes"/>
      <point x="279" y="28" type="line" smooth="yes"/>
      <point x="273" y="28" type="line" smooth="yes"/>
      <point x="124" y="108" type="line" smooth="yes"/>
      <point x="105" y="378" type="line" smooth="yes"/>
      <point x="108" y="402" type="line" smooth="yes"/>
      <point x="194" y="670" type="line" smooth="yes"/>
      <point x="364" y="752" type="line" smooth="yes"/>
      <point x="370" y="752" type="line" smooth="yes"/>
      <point x="519" y="672" type="line" smooth="yes"/>
      <point x="538" y="402" type="line" smooth="yes"/>
      <point x="535" y="378" type="line" smooth="yes"/>
      <point x="474" y="151" type="line" smooth="yes"/>
      <point x="363" y="43" type="line" smooth="yes"/>
      <point x="320" y="213" type="line" smooth="yes"/>
    </contour>
    <contour>
      <point x="580" y="402" type="line" smooth="yes"/>
      <point x="551" y="701" type="line" smooth="yes"/>
      <point x="367" y="790" type="line" smooth="yes"/>
      <point x="166" y="698" type="line" smooth="yes"/>
      <point x="66" y="402" type="line" smooth="yes"/>
      <point x="63" y="378" type="line" smooth="yes"/>
      <point x="92" y="79" type="line" smooth="yes"/>
      <point x="276" y="-10" type="line" smooth="yes"/>
      <point x="308" y="-9" type="line" smooth="yes"/>
      <point x="334" y="-5" type="line" smooth="yes"/>
      <point x="357" y="-100" type="line" smooth="yes"/>
      <point x="399" y="-100" type="line" smooth="yes"/>
      <point x="372" y="5" type="line" smooth="yes"/>
      <point x="506" y="125" type="line" smooth="yes"/>
      <point x="577" y="378" type="line" smooth="yes"/>
    </contour>
  </outline>
</glyph>
<glyph name="R" format="1">
  <advance width="567"/>
  <unicode hex="0052"/>
  <outline>
    <contour>
      <point x="119" y="368" type="line" smooth="yes"/>
      <point x="168" y="742" type="line" smooth="yes"/>
      <point x="327" y="742" type="line" smooth="yes"/>
      <point x="445" y="708" type="line" smooth="yes"/>
      <point x="492" y="561" type="line" smooth="yes"/>
      <point x="489" y="537" type="line" smooth="yes"/>
      <point x="409" y="398" type="line" smooth="yes"/>
      <point x="286" y="368" type="line" smooth="yes"/>
    </contour>
    <contour>
      <point x="114" y="330" type="line" smooth="yes"/>
      <point x="281" y="330" type="line" smooth="yes"/>
      <point x="304" y="331" type="line" smooth="yes"/>
      <point x="328" y="333" type="line" smooth="yes"/>
      <point x="417" y="0" type="line" smooth="yes"/>
      <point x="461" y="0" type="line" smooth="yes"/>
      <point x="367" y="341" type="line" smooth="yes"/>
      <point x="473" y="402" type="line" smooth="yes"/>
      <point x="531" y="537" type="line" smooth="yes"/>
      <point x="534" y="561" type="line" smooth="yes"/>
      <point x="480" y="734" type="line" smooth="yes"/>
      <point x="330" y="780" type="line" smooth="yes"/>
      <point x="133" y="780" type="line" smooth="yes"/>
      <point x="31" y="0" type="line" smooth="yes"/>
      <point x="71" y="0" type="line" smooth="yes"/>
    </contour>
  </outline>
</glyph>
<glyph name="b" format="1">
  <advance width="521"/>
  <unicode hex="0062"/>
  <outline>
    <contour>
      <point x="77" y="126" type="line" smooth="yes"/>
      <point x="115" y="416" type="line" smooth="yes"/>
      <point x="180" y="477" type="line" smooth="yes"/>
      <point x="274" y="502" type="line" smooth="yes"/>
      <point x="394" y="439" type="line" smooth="yes"/>
      <point x="415" y="268" type="line" smooth="yes"/>
      <point x="413" y="252" type="line" smooth="yes"/>
      <point x="352" y="88" type="line" smooth="yes"/>
      <point x="218" y="28" type="line" smooth="yes"/>
      <point x="125" y="61" type="line" smooth="yes"/>
    </contour>
    <contour>
      <point x="166" y="800" type="line" smooth="yes"/>
      <point x="126" y="800" type="line" smooth="yes"/>
      <point x="40" y="150" type="line" smooth="yes"/>
      <point x="16" y="0" type="line" smooth="yes"/>
      <point x="46" y="0" type="line" smooth="yes"/>
      <point x="65" y="81" type="line" smooth="yes"/>
      <point x="117" y="21" type="line" smooth="yes"/>
      <point x="218" y="-10" type="line" smooth="yes"/>
      <point x="384" y="64" type="line" smooth="yes"/>
      <point x="455" y="255" type="line" smooth="yes"/>
      <point x="457" y="271" type="line" smooth="yes"/>
      <point x="429" y="461" type="line" smooth="yes"/>
      <point x="274" y="540" type="line" smooth="yes"/>
      <point x="185" y="520" type="line" smooth="yes"/>
      <point x="123" y="470" type="line" smooth="yes"/>
    </contour>
  </outline>
</glyph>
<glyph name="j" format="1">
  <advance width="200"/>
  <unicode hex="006A"/>
  <outline>
    <contour>
      <point x="22" y="-67" type="line" smooth="yes"/>
      <point x="-17" y="-150" type="line" smooth="yes"/>
      <point x="-97" y="-172" type="line" smooth="yes"/>
      <point x="-134" y="-169" type="line" smooth="yes"/>
      <point x="-160" y="-163" type="line" smooth="yes"/>
      <point x="-165" y="-199" type="line" smooth="yes"/>
      <point x="-141" y="-206" type="line" smooth="yes"/>
      <point x="-97" y="-210" type="line" smooth="yes"/>
      <point x="9" y="-180" type="line" smooth="yes"/>
      <point x="60" y="-79" type="line" smooth="yes"/>
      <point x="140" y="530" type="line" smooth="yes"/>
      <point x="100" y="530" type="line" smooth="yes"/>
    </contour>
    <contour>
      <point x="177" y="735" type="line" smooth="yes"/>
      <point x="117" y="735" type="line" smooth="yes"/>
      <point x="109" y="675" type="line" smooth="yes"/>
      <point x="169" y="675" type="line" smooth="yes"/>
    </contour>
  </outline>
</glyph>
<glyph name="q" format="1">
  <advance width="525"/>
  <unicode hex="0071"/>
  <outline>
    <contour>
      <point x="381" y="114" type="line" smooth="yes"/>
      <point x="317" y="53" type="line" smooth="yes"/>
      <point x="222" y="28" type="line" smooth="yes"/>
      <point x="102" y="91" type="line" smooth="yes"/>
      <point x="81" y="262" type="line" smooth="yes"/>
      <point x="83" y="278" type="line" smooth="yes"/>
      <point x="145" y="442" type="line" smooth="yes"/>
      <point x="278" y="502" type="line" smooth="yes"/>
      <point x="371" y="470" type="line" smooth="yes"/>
      <point x="419" y="404" type="line" smooth="yes"/>
    </contour>
    <contour>
      <point x="339" y="-200" type="line" smooth="yes"/>
      <point x="379" y="-200" type="line" smooth="yes"/>
      <point x="456" y="380" type="line" smooth="yes"/>
      <point x="480" y="530" type="line" smooth="yes"/>
      <point x="450" y="530" type="line" smooth="yes"/>
      <point x="431" y="449" type="line" smooth="yes"/>
      <point x="379" y="509" type="line" smooth="yes"/>
      <point x="278" y="540" type="line" smooth="yes"/>
      <point x="112" y="466" type="line" smooth="yes"/>
      <point x="41" y="275" type="line" smooth="yes"/>
      <point x="39" y="259" type="line" smooth="yes"/>
      <point x="67" y="69" type="line" smooth="yes"/>
      <point x="222" y="-10" type="line" smooth="yes"/>
      <point x="311" y="10" type="line" smooth="yes"/>
      <point x="373" y="60" type="line" smooth="yes"/>
    </contour>
  </outline>
</glyph>
<glyph name="s" format="1">
  <advance width="517"/>
  <unicode hex="0073"/>
  <outline>
    <contour>
      <point x="220" y="28" type="line" smooth="yes"/>
      <point x="98" y="66" type="line" smooth="yes"/>
      <point x="77" y="160" type="line" smooth="yes"/>
      <point x="38" y="160" type="line" smooth="yes"/>
      <point x="37" y="152" type="line" smooth="yes"/>
      <point x="66" y="40" type="line" smooth="yes"/>
      <point x="220" y="-10" type="line" smooth="yes"/>
      <point x="361" y="29" type="line" smooth="yes"/>
      <point x="422" y="131" type="line" smooth="yes"/>
      <point x="423" y="139" type="line" smooth="yes"/>
      <point x="393" y="240" type="line" smooth="yes"/>
      <point x="265" y="288" type="line" smooth="yes"/>
      <point x="140" y="328" type="line" smooth="yes"/>
      <point x="116" y="402" type="line" smooth="yes"/>
      <point x="163" y="478" type="line" smooth="yes"/>
      <point x="270" y="502" type="line" smooth="yes"/>
      <point x="389" y="464" type="line" smooth="yes"/>
      <point x="408" y="360" type="line" smooth="yes"/>
      <point x="447" y="360" type="line" smooth="yes"/>
      <point x="448" y="368" type="line" smooth="yes"/>
      <point x="419" y="492" type="line" smooth="yes"/>
      <point x="270" y="540" type="line" smooth="yes"/>
      <point x="132" y="503" type="line" smooth="yes"/>
      <point x="74" y="406" type="line" smooth="yes"/>
      <point x="73" y="398" type="line" smooth="yes"/>
      <point x="102" y="308" type="line" smooth="yes"/>
      <point x="235" y="256" type="line" smooth="yes"/>
      <point x="355" y="219" type="line" smooth="yes"/>
      <point x="380" y="135" type="line" smooth="yes"/>
      <point x="333" y="56" type="line" smooth="yes"/>
    </contour>
  </outline>
</glyph>
<glyph name="t" format="1">
  <advance width="390"/>
  <unicode hex="0074"/>
  <outline>
    <contour>
      <point x="180" y="530" type="line" smooth="yes"/>
      <point x="200" y="680" type="line" smooth="yes"/>
      <point x="160" y="680" type="line" smooth="yes"/>
      <point x="140" y="530" type="line" smooth="yes"/>
      <point x="55" y="530" type="line" smooth="yes"/>
      <point x="50" y="492" type="line" smooth="yes"/>
      <point x="135" y="492" type="line" smooth="yes"/>
      <point x="88" y="135" type="line" smooth="yes"/>
      <point x="114" y="25" type="line" smooth="yes"/>
      <point x="212" y="-10" type="line" smooth="yes"/>
      <point x="257" y="-6" type="line" smooth="yes"/>
      <point x="281" y="0" type="line" smooth="yes"/>
      <point x="285" y="37" type="line" smooth="yes"/>
      <point x="256" y="31" type="line" smooth="yes"/>
      <point x="212" y="28" type="line" smooth="yes"/>
      <point x="146" y="51" type="line" smooth="yes"/>
      <point x="129" y="140" type="line" smooth="yes"/>
      <point x="175" y="492" type="line" smooth="yes"/>
      <point x="355" y="492" type="line" smooth="yes"/>
      <point x="360" y="530" type="line" smooth="yes"/>
    </contour>
  </outline>
</glyph>
<glyph name="x" format="1">
  <advance width="460"/>
  <unicode hex="0078"/>
  <outline>
    <contour>
      <point x="45" y="530" type="line" smooth="yes"/>
      <point x="190" y="266" type="line" smooth="yes"/>
      <point x="-24" y="0" type="line" smooth="yes"/>
      <point x="29" y="0" type="line" smooth="yes"/>
      <point x="212" y="226" type="line" smooth="yes"/>
      <point x="337" y="0" type="line" smooth="yes"/>
      <point x="386" y="0" type="line" smooth="yes"/>
      <point x="240" y="264" type="line" smooth="yes"/>
      <point x="455" y="530" type="line" smooth="yes"/>
      <point x="404" y="530" type="line" smooth="yes"/>
      <point x="218" y="300" type="line" smooth="yes"/>
      <point x="92" y="530" type="line" smooth="yes"/>
    </contour>
  </outline>
</glyph>
<glyph name="braceleft" format="1">
  <advance width="300"/>
  <unicode hex="007B"/>
  <outline>
    <contour>
      <point x="316" y="840" type="line" smooth="yes"/>
      <point x="301" y="840" type="line" smooth="yes"/>
      <point x="215" y="816" type="line" smooth="yes"/>
      <point x="160" y="715" type="line" smooth="yes"/>
      <point x="127" y="470" type="line" smooth="yes"/>
      <point x="95" y="396" type="line" smooth="yes"/>
      <point x="26" y="380" type="line" smooth="yes"/>
      <point x="20" y="340" type="line" smooth="yes"/>
      <point x="86" y="324" type="line" smooth="yes"/>
      <point x="98" y="250" type="line" smooth="yes"/>
      <point x="66" y="5" type="line" smooth="yes"/>
      <point x="94" y="-95" type="line" smooth="yes"/>
      <point x="175" y="-120" type="line" smooth="yes"/>
      <point x="190" y="-120" type="line" smooth="yes"/>
      <point x="195" y="-80" type="line" smooth="yes"/>
      <point x="119" y="-61" type="line" smooth="yes"/>
      <point x="109" y="30" type="line" smooth="yes"/>
      <point x="140" y="262" type="line" smooth="yes"/>
      <point x="133" y="326" type="line" smooth="yes"/>
      <point x="100" y="360" type="line" smooth="yes"/>
      <point x="142" y="394" type="line" smooth="yes"/>
      <point x="166" y="458" type="line" smooth="yes"/>
      <point x="196" y="690" type="line" smooth="yes"/>
      <point x="232" y="780" type="line" smooth="yes"/>
      <point x="311" y="800" type="line" smooth="yes"/>
    </contour>
  </outline>
</glyph>
<glyph name="braceright" format="1">
  <advance width="300"/>
  <unicode hex="007D"/>
  <outline>
    <contour>
      <point x="-20" y="-120" type="line" smooth="yes"/>
      <point x="-5" y="-120" type="line" smooth="yes"/>
      <point x="81" y="-96" type="line" smooth="yes"/>
      <point x="136" y="5" type="line" smooth="yes"/>
      <point x="169" y="250" type="line" smooth="yes"/>
      <point x="201" y="324" type="line" smooth="yes"/>
      <point x="270" y="340" type="line" smooth="yes"/>
      <point x="276" y="380" type="line" smooth="yes"/>
      <point x="210" y="396" type="line" smooth="yes"/>
      <point x="198" y="470" type="line" smooth="yes"/>
      <point x="230" y="715" type="line" smooth="yes"/>
      <point x="202" y="815" type="line" smooth="yes"/>
      <point x="121" y="840" type="line" smooth="yes"/>
      <point x="106" y="840" type="line" smooth="yes"/>
      <point x="101" y="800" type="line" smooth="yes"/>
      <point x="177" y="781" type="line" smooth="yes"/>
      <point x="187" y="690" type="line" smooth="yes"/>
      <point x="156" y="458" type="line" smooth="yes"/>
      <point x="163" y="394" type="line" smooth="yes"/>
      <point x="196" y="360" type="line" smooth="yes"/>
      <point x="154" y="326" type="line" smooth="yes"/>
      <point x="130" y="262" type="line" smooth="yes"/>
      <point x="100" y="30" type="line" smooth="yes"/>
      <point x="64" y="-60" type="line" smooth="yes"/>
      <point x="-15" y="-80" type="line" smooth="yes"/>
    </contour>
  </outline>
</glyph>
<glyph name="asciitilde" format="1">
  <advance width="600"/>
  <unicode hex="007E"/>
  <outline>
    <contour>
      <point x="180" y="440" type="line" smooth="yes"/>
      <point x="93" y="415" type="line" smooth="yes"/>
      <point x="39" y="371" type="line" smooth="yes"/>
      <point x="67" y="343" type="line" smooth="yes"/>
      <point x="113" y="382" type="line" smooth="yes"/>
      <point x="176" y="402" type="line" smooth="yes"/>
      <point x="294" y="366" type="line" smooth="yes"/>
      <point x="422" y="329" type="line" smooth="yes"/>
      <point x="509" y="354" type="line" smooth="yes"/>
      <point x="563" y="398" type="line" smooth="yes"/>
      <point x="536" y="426" type="line" smooth="yes"/>
      <point x="489" y="388" type="line" smooth="yes"/>
      <point x="426" y="367" type="line" smooth="yes"/>
      <point x="308" y="404" type="line" smooth="yes"/>
    </contour>
  </outline>
</glyph>
<glyph name="exclamdown" format="1">
  <advance width="200"/>
  <unicode hex="00A1"/>
  <outline>
    <contour>
      <point x="150" y="530" type="line" smooth="yes"/>
      <point x="90" y="530" type="line" smooth="yes"/>
      <point x="83" y="470" type="line" smooth="yes"/>
      <point x="143" y="470" type="line" smooth="yes"/>
    </contour>
    <contour>
      <point x="47" y="-200" type="line" smooth="yes"/>
      <point x="109" y="355" type="line" smooth="yes"/>
      <point x="85" y="355" type="line" smooth="yes"/>
      <point x="1" y="-200" type="line" smooth="yes"/>
    </contour>
  </outline>
</glyph>
<glyph name="cent" format="1">
  <advance width="596"/>
  <unicode hex="00A2"/>
  <outline>
    <contour>
      <point x="115" y="400" type="line" smooth="yes"/>
      <point x="193" y="614" type="line" smooth="yes"/>
      <point x="350" y="686" type="line" smooth="yes"/>
      <point x="356" y="686" type="line" smooth="yes"/>
      <point x="372" y="685" type="line" smooth="yes"/>
      <point x="387" y="684" type="line" smooth="yes"/>
      <point x="178" y="122" type="line" smooth="yes"/>
      <point x="117" y="219" type="line" smooth="yes"/>
      <point x="113" y="384" type="line" smooth="yes"/>
    </contour>
    <contour>
      <point x="484" y="840" type="line" smooth="yes"/>
      <point x="444" y="840" type="line" smooth="yes"/>
      <point x="401" y="723" type="line" smooth="yes"/>
      <point x="381" y="725" type="line" smooth="yes"/>
      <point x="353" y="726" type="line" smooth="yes"/>
      <point x="165" y="640" type="line" smooth="yes"/>
      <point x="73" y="397" type="line" smooth="yes"/>
      <point x="71" y="381" type="line" smooth="yes"/>
      <point x="79" y="190" type="line" smooth="yes"/>
      <point x="162" y="80" type="line" smooth="yes"/>
      <point x="111" y="-60" type="line" smooth="yes"/>
      <point x="151" y="-60" type="line" smooth="yes"/>
      <point x="197" y="66" type="line" smooth="yes"/>
      <point x="237" y="58" type="line" smooth="yes"/>
      <point x="282" y="56" type="line" smooth="yes"/>
      <point x="445" y="117" type="line" smooth="yes"/>
      <point x="515" y="264" type="line" smooth="yes"/>
      <point x="517" y="278" type="line" smooth="yes"/>
      <point x="476" y="278" type="line" smooth="yes"/>
      <point x="421" y="147" type="line" smooth="yes"/>
      <point x="284" y="96" type="line" smooth="yes"/>
      <point x="280" y="96" type="line" smooth="yes"/>
      <point x="244" y="98" type="line" smooth="yes"/>
      <point x="211" y="105" type="line" smooth="yes"/>
      <point x="424" y="677" type="line" smooth="yes"/>
      <point x="495" y="611" type="line" smooth="yes"/>
      <point x="503" y="481" type="line" smooth="yes"/>
      <point x="544" y="481" type="line" smooth="yes"/>
      <point x="546" y="496" type="line" smooth="yes"/>
      <point x="532" y="634" type="line" smooth="yes"/>
      <point x="438" y="715" type="line" smooth="yes"/>
    </contour>
  </outline>
</glyph>
<glyph name="sterling" format="1">
  <advance width="594"/>
  <unicode hex="00A3"/>
  <outline>
    <contour>
      <point x="370" y="752" type="line" smooth="yes"/>
      <point x="503" y="683" type="line" smooth="yes"/>
      <point x="521" y="500" type="line" smooth="yes"/>
      <point x="561" y="500" type="line" smooth="yes"/>
      <point x="564" y="519" type="line" smooth="yes"/>
      <point x="538" y="711" type="line" smooth="yes"/>
      <point x="370" y="790" type="line" smooth="yes"/>
      <point x="201" y="717" type="line" smooth="yes"/>
      <point x="145" y="503" type="line" smooth="yes"/>
      <point x="146" y="450" type="line" smooth="yes"/>
      <point x="149" y="410" type="line" smooth="yes"/>
      <point x="64" y="410" type="line" smooth="yes"/>
      <point x="59" y="370" type="line" smooth="yes"/>
      <point x="154" y="370" type="line" smooth="yes"/>
      <point x="177" y="210" type="line" smooth="yes"/>
      <point x="185" y="40" type="line" smooth="yes"/>
      <point x="16" y="40" type="line" smooth="yes"/>
      <point x="11" y="0" type="line" smooth="yes"/>
      <point x="491" y="0" type="line" smooth="yes"/>
      <point x="496" y="40" type="line" smooth="yes"/>
      <point x="222" y="40" type="line" smooth="yes"/>
      <point x="220" y="208" type="line" smooth="yes"/>
      <point x="200" y="370" type="line" smooth="yes"/>
      <point x="399" y="370" type="line" smooth="yes"/>
      <point x="404" y="410" type="line" smooth="yes"/>
      <point x="195" y="410" type="line" smooth="yes"/>
      <point x="191" y="460" type="line" smooth="yes"/>
      <point x="189" y="503" type="line" smooth="yes"/>
      <point x="230" y="684" type="line" smooth="yes"/>
    </contour>
  </outline>
</glyph>
<glyph name="section" format="1">
  <advance width="498"/>
  <unicode hex="00A7"/>
  <outline>
    <contour>
      <point x="210" y="244" type="line" smooth="yes"/>
      <point x="327" y="219" type="line" smooth="yes"/>
      <point x="357" y="155" type="line" smooth="yes"/>
      <point x="317" y="61" type="line" smooth="yes"/>
      <point x="201" y="28" type="line" smooth="yes"/>
      <point x="84" y="66" type="line" smooth="yes"/>
      <point x="63" y="170" type="line" smooth="yes"/>
      <point x="23" y="170" type="line" smooth="yes"/>
      <point x="22" y="159" type="line" smooth="yes"/>
      <point x="53" y="37" type="line" smooth="yes"/>
      <point x="201" y="-10" type="line" smooth="yes"/>
      <point x="343" y="30" type="line" smooth="yes"/>
      <point x="397" y="129" type="line" smooth="yes"/>
      <point x="398" y="137" type="line" smooth="yes"/>
      <point x="390" y="211" type="line" smooth="yes"/>
      <point x="334" y="257" type="line" smooth="yes"/>
      <point x="420" y="305" type="line" smooth="yes"/>
      <point x="456" y="384" type="line" smooth="yes"/>
      <point x="457" y="392" type="line" smooth="yes"/>
      <point x="429" y="491" type="line" smooth="yes"/>
      <point x="294" y="536" type="line" smooth="yes"/>
      <point x="177" y="561" type="line" smooth="yes"/>
      <point x="147" y="625" type="line" smooth="yes"/>
      <point x="188" y="719" type="line" smooth="yes"/>
      <point x="303" y="752" type="line" smooth="yes"/>
      <point x="420" y="714" type="line" smooth="yes"/>
      <point x="441" y="610" type="line" smooth="yes"/>
      <point x="481" y="610" type="line" smooth="yes"/>
      <point x="482" y="621" type="line" smooth="yes"/>
      <point x="451" y="743" type="line" smooth="yes"/>
      <point x="303" y="790" type="line" smooth="yes"/>
      <point x="162" y="750" type="line" smooth="yes"/>
      <point x="107" y="651" type="line" smooth="yes"/>
      <point x="106" y="643" type="line" smooth="yes"/>
      <point x="114" y="569" type="line" smooth="yes"/>
      <point x="170" y="523" type="line" smooth="yes"/>
      <point x="84" y="475" type="line" smooth="yes"/>
      <point x="48" y="396" type="line" smooth="yes"/>
      <point x="47" y="388" type="line" smooth="yes"/>
      <point x="75" y="289" type="line" smooth="yes"/>
    </contour>
    <contour>
      <point x="236" y="279" type="line" smooth="yes"/>
      <point x="128" y="299" type="line" smooth="yes"/>
      <point x="87" y="369" type="line" smooth="yes"/>
      <point x="131" y="465" type="line" smooth="yes"/>
      <point x="255" y="501" type="line" smooth="yes"/>
      <point x="268" y="501" type="line" smooth="yes"/>
      <point x="376" y="481" type="line" smooth="yes"/>
      <point x="417" y="411" type="line" smooth="yes"/>
      <point x="374" y="315" type="line" smooth="yes"/>
      <point x="249" y="279" type="line" smooth="yes"/>
    </contour>
  </outline>
</glyph>
<glyph name="ordfeminine" format="1">
  <advance width="374"/>
  <unicode hex="00AA"/>
  <outline>
    <contour>
      <point x="30" y="223" type="line" smooth="yes"/>
      <point x="315" y="223" type="line" smooth="yes"/>
      <point x="319" y="258" type="line" smooth="yes"/>
      <point x="34" y="258" type="line" smooth="yes"/>
    </contour>
    <contour>
      <point x="165" y="414" type="line" smooth="yes"/>
      <point x="108" y="438" type="line" smooth="yes"/>
      <point x="95" y="490" type="line" smooth="yes"/>
      <point x="96" y="498" type="line" smooth="yes"/>
      <point x="125" y="554" type="line" smooth="yes"/>
      <point x="196" y="580" type="line" smooth="yes"/>
      <point x="322" y="600" type="line" smooth="yes"/>
      <point x="307" y="483" type="line" smooth="yes"/>
      <point x="259" y="440" type="line" smooth="yes"/>
    </contour>
    <contour>
      <point x="308" y="388" type="line" smooth="yes"/>
      <point x="337" y="388" type="line" smooth="yes"/>
      <point x="347" y="499" type="line" smooth="yes"/>
      <point x="366" y="645" type="line" smooth="yes"/>
      <point x="351" y="749" type="line" smooth="yes"/>
      <point x="242" y="790" type="line" smooth="yes"/>
      <point x="132" y="748" type="line" smooth="yes"/>
      <point x="94" y="659" type="line" smooth="yes"/>
      <point x="93" y="652" type="line" smooth="yes"/>
      <point x="130" y="652" type="line" smooth="yes"/>
      <point x="161" y="727" type="line" smooth="yes"/>
      <point x="240" y="756" type="line" smooth="yes"/>
      <point x="319" y="727" type="line" smooth="yes"/>
      <point x="328" y="645" type="line" smooth="yes"/>
      <point x="326" y="631" type="line" smooth="yes"/>
      <point x="200" y="612" type="line" smooth="yes"/>
      <point x="109" y="584" type="line" smooth="yes"/>
      <point x="57" y="498" type="line" smooth="yes"/>
      <point x="56" y="490" type="line" smooth="yes"/>
      <point x="79" y="411" type="line" smooth="yes"/>
      <point x="165" y="380" type="line" smooth="yes"/>
      <point x="249" y="400" type="line" smooth="yes"/>
      <point x="307" y="445" type="line" smooth="yes"/>
    </contour>
  </outline>
</glyph>
<glyph name="logicalnot" format="1">
  <advance width="600"/>
  <unicode hex="00AC"/>
  <outline>
    <contour>
      <point x="67" y="510" type="line" smooth="yes"/>
      <point x="527" y="510" type="line" smooth="yes"/>
      <point x="488" y="220" type="line" smooth="yes"/>
      <point x="528" y="220" type="line" smooth="yes"/>
      <point x="572" y="550" type="line" smooth="yes"/>
      <point x="72" y="550" type="line" smooth="yes"/>
    </contour>
  </outline>
</glyph>
<glyph name="registered" format="1">
  <advance width="330"/>
  <unicode hex="00AE"/>
  <outline>
    <contour>
      <point x="197" y="700" type="line" smooth="yes"/>
      <point x="197" y="696" type="line" smooth="yes"/>
      <point x="189" y="677" type="line" smooth="yes"/>
      <point x="166" y="671" type="line" smooth="yes"/>
      <point x="133" y="671" type="line" smooth="yes"/>
      <point x="133" y="725" type="line" smooth="yes"/>
      <point x="166" y="725" type="line" smooth="yes"/>
      <point x="189" y="719" type="line" smooth="yes"/>
    </contour>
    <contour>
      <point x="225" y="694" type="line" smooth="yes"/>
      <point x="225" y="702" type="line" smooth="yes"/>
      <point x="210" y="738" type="line" smooth="yes"/>
      <point x="171" y="751" type="line" smooth="yes"/>
      <point x="105" y="751" type="line" smooth="yes"/>
      <point x="105" y="579" type="line" smooth="yes"/>
      <point x="133" y="579" type="line" smooth="yes"/>
      <point x="133" y="645" type="line" smooth="yes"/>
      <point x="168" y="645" type="line" smooth="yes"/>
      <point x="196" y="579" type="line" smooth="yes"/>
      <point x="225" y="579" type="line" smooth="yes"/>
      <point x="194" y="648" type="line" smooth="yes"/>
      <point x="217" y="665" type="line" smooth="yes"/>
    </contour>
    <contour>
      <point x="44" y="665" type="line" smooth="yes"/>
      <point x="79" y="751" type="line" smooth="yes"/>
      <point x="165" y="786" type="line" smooth="yes"/>
      <point x="251" y="751" type="line" smooth="yes"/>
      <point x="286" y="665" type="line" smooth="yes"/>
      <point x="251" y="579" type="line" smooth="yes"/>
      <point x="165" y="544" type="line" smooth="yes"/>
      <point x="79" y="579" type="line" smooth="yes"/>
    </contour>
    <contour>
      <point x="20" y="665" type="line" smooth="yes"/>
      <point x="63" y="563" type="line" smooth="yes"/>
      <point x="165" y="520" type="line" smooth="yes"/>
      <point x="268" y="563" type="line" smooth="yes"/>
      <point x="310" y="665" type="line" smooth="yes"/>
      <point x="268" y="768" type="line" smooth="yes"/>
      <point x="165" y="810" type="line" smooth="yes"/>
      <point x="63" y="768" type="line" smooth="yes"/>
    </contour>
  </outline>
</glyph>
<glyph name="degree" format="1">
  <advance width="398"/>
  <unicode hex="00B0"/>
  <outline>
    <contour>
      <point x="248" y="790" type="line" smooth="yes"/>
      <point x="138" y="753" type="line" smooth="yes"/>
      <point x="85" y="644" type="line" smooth="yes"/>
      <point x="84" y="636" type="line" smooth="yes"/>
      <point x="114" y="528" type="line" smooth="yes"/>
      <point x="221" y="490" type="line" smooth="yes"/>
      <point x="331" y="527" type="line" smooth="yes"/>
      <point x="384" y="636" type="line" smooth="yes"/>
      <point x="385" y="644" type="line" smooth="yes"/>
      <point x="356" y="752" type="line" smooth="yes"/>
    </contour>
    <contour>
      <point x="218" y="528" type="line" smooth="yes"/>
      <point x="141" y="558" type="line" smooth="yes"/>
      <point x="122" y="636" type="line" smooth="yes"/>
      <point x="123" y="644" type="line" smooth="yes"/>
      <point x="164" y="726" type="line" smooth="yes"/>
      <point x="245" y="752" type="line" smooth="yes"/>
      <point x="251" y="752" type="line" smooth="yes"/>
      <point x="328" y="722" type="line" smooth="yes"/>
      <point x="347" y="644" type="line" smooth="yes"/>
      <point x="346" y="636" type="line" smooth="yes"/>
      <point x="305" y="554" type="line" smooth="yes"/>
      <point x="224" y="528" type="line" smooth="yes"/>
    </contour>
  </outline>
</glyph>
<glyph name="threesuperior" format="1">
  <advance width="299"/>
  <unicode hex="00B3"/>
  <outline>
    <contour>
      <point x="79" y="515" type="line" smooth="yes"/>
      <point x="43" y="515" type="line" smooth="yes"/>
      <point x="42" y="507" type="line" smooth="yes"/>
      <point x="65" y="417" type="line" smooth="yes"/>
      <point x="159" y="384" type="line" smooth="yes"/>
      <point x="248" y="412" type="line" smooth="yes"/>
      <point x="288" y="486" type="line" smooth="yes"/>
      <point x="289" y="494" type="line" smooth="yes"/>
      <point x="279" y="556" type="line" smooth="yes"/>
      <point x="238" y="589" type="line" smooth="yes"/>
      <point x="287" y="616" type="line" smooth="yes"/>
      <point x="311" y="670" type="line" smooth="yes"/>
      <point x="312" y="678" type="line" smooth="yes"/>
      <point x="290" y="755" type="line" smooth="yes"/>
      <point x="199" y="785" type="line" smooth="yes"/>
      <point x="106" y="754" type="line" smooth="yes"/>
      <point x="66" y="665" type="line" smooth="yes"/>
      <point x="64" y="650" type="line" smooth="yes"/>
      <point x="99" y="650" type="line" smooth="yes"/>
      <point x="131" y="729" type="line" smooth="yes"/>
      <point x="197" y="753" type="line" smooth="yes"/>
      <point x="201" y="753" type="line" smooth="yes"/>
      <point x="260" y="734" type="line" smooth="yes"/>
      <point x="276" y="678" type="line" smooth="yes"/>
      <point x="275" y="670" type="line" smooth="yes"/>
      <point x="245" y="620" type="line" smooth="yes"/>
      <point x="185" y="605" type="line" smooth="yes"/>
      <point x="130" y="605" type="line" smooth="yes"/>
      <point x="126" y="573" type="line" smooth="yes"/>
      <point x="183" y="573" type="line" smooth="yes"/>
      <point x="238" y="552" type="line" smooth="yes"/>
      <point x="253" y="494" type="line" smooth="yes"/>
      <point x="252" y="486" type="line" smooth="yes"/>
      <point x="222" y="432" type="line" smooth="yes"/>
      <point x="162" y="416" type="line" smooth="yes"/>
      <point x="156" y="416" type="line" smooth="yes"/>
      <point x="94" y="440" type="line" smooth="yes"/>
    </contour>
  </outline>
</glyph>
<glyph name="cedilla" format="1">
  <advance width="602"/>
  <unicode hex="00B8"/>
  <outline>
    <contour>
      <point x="90" y="-183" type="line" smooth="yes"/>
      <point x="128" y="-202" type="line" smooth="yes"/>
      <point x="177" y="-210" type="line" smooth="yes"/>
      <point x="248" y="-192" type="line" smooth="yes"/>
      <point x="278" y="-130" type="line" smooth="yes"/>
      <point x="250" y="-78" type="line" smooth="yes"/>
      <point x="193" y="-64" type="line" smooth="yes"/>
      <point x="188" y="-64" type="line" smooth="yes"/>
      <point x="221" y="0" type="line" smooth="yes"/>
      <point x="185" y="0" type="line" smooth="yes"/>
      <point x="143" y="-83" type="line" smooth="yes"/>
      <point x="157" y="-99" type="line" smooth="yes"/>
      <point x="165" y="-98" type="line" smooth="yes"/>
      <point x="185" y="-97" type="line" smooth="yes"/>
      <point x="226" y="-104" type="line" smooth="yes"/>
      <point x="244" y="-134" type="line" smooth="yes"/>
      <point x="226" y="-167" type="line" smooth="yes"/>
      <point x="177" y="-177" type="line" smooth="yes"/>
      <point x="135" y="-170" type="line" smooth="yes"/>
      <point x="105" y="-155" type="line" smooth="yes"/>
    </contour>
  </outline>
</glyph>
<glyph name="ordmasculine" format="1">
  <advance width="407"/>
  <unicode hex="00BA"/>
  <outline>
    <contour>
      <point x="30" y="223" type="line" smooth="yes"/>
      <point x="340" y="223" type="line" smooth="yes"/>
      <point x="344" y="258" type="line" smooth="yes"/>
      <point x="34" y="258" type="line" smooth="yes"/>
    </contour>
    <contour>
      <point x="110" y="593" type="line" smooth="yes"/>
      <point x="155" y="709" type="line" smooth="yes"/>
      <point x="254" y="755" type="line" smooth="yes"/>
      <point x="342" y="710" type="line" smooth="yes"/>
      <point x="358" y="593" type="line" smooth="yes"/>
      <point x="356" y="577" type="line" smooth="yes"/>
      <point x="311" y="461" type="line" smooth="yes"/>
      <point x="212" y="415" type="line" smooth="yes"/>
      <point x="124" y="460" type="line" smooth="yes"/>
      <point x="108" y="577" type="line" smooth="yes"/>
    </contour>
    <contour>
      <point x="396" y="593" type="line" smooth="yes"/>
      <point x="376" y="732" type="line" smooth="yes"/>
      <point x="254" y="790" type="line" smooth="yes"/>
      <point x="129" y="737" type="line" smooth="yes"/>
      <point x="72" y="593" type="line" smooth="yes"/>
      <point x="70" y="577" type="line" smooth="yes"/>
      <point x="90" y="438" type="line" smooth="yes"/>
      <point x="212" y="380" type="line" smooth="yes"/>
      <point x="337" y="434" type="line" smooth="yes"/>
      <point x="394" y="577" type="line" smooth="yes"/>
    </contour>
  </outline>
</glyph>
<glyph name="guillemotright" format="1">
  <advance width="500"/>
  <unicode hex="00BB"/>
  <outline>
    <contour>
      <point x="62" y="468" type="line" smooth="yes"/>
      <point x="208" y="343" type="line" smooth="yes"/>
      <point x="29" y="218" type="line" smooth="yes"/>
      <point x="23" y="170" type="line" smooth="yes"/>
      <point x="243" y="325" type="line" smooth="yes"/>
      <point x="247" y="355" type="line" smooth="yes"/>
      <point x="68" y="510" type="line" smooth="yes"/>
    </contour>
    <contour>
      <point x="262" y="468" type="line" smooth="yes"/>
      <point x="408" y="343" type="line" smooth="yes"/>
      <point x="229" y="218" type="line" smooth="yes"/>
      <point x="223" y="170" type="line" smooth="yes"/>
      <point x="443" y="325" type="line" smooth="yes"/>
      <point x="447" y="355" type="line" smooth="yes"/>
      <point x="268" y="510" type="line" smooth="yes"/>
    </contour>
  </outline>
</glyph>
<glyph name="questiondown" format="1">
  <advance width="440"/>
  <unicode hex="00BF"/>
  <outline>
    <contour>
      <point x="270" y="530" type="line" smooth="yes"/>
      <point x="210" y="530" type="line" smooth="yes"/>
      <point x="203" y="470" type="line" smooth="yes"/>
      <point x="263" y="470" type="line" smooth="yes"/>
    </contour>
    <contour>
      <point x="142" y="-172" type="line" smooth="yes"/>
      <point x="46" y="-140" type="line" smooth="yes"/>
      <point x="18" y="-50" type="line" smooth="yes"/>
      <point x="116" y="141" type="line" smooth="yes"/>
      <point x="229" y="355" type="line" smooth="yes"/>
      <point x="205" y="355" type="line" smooth="yes"/>
      <point x="78" y="153" type="line" smooth="yes"/>
      <point x="-24" y="-60" type="line" smooth="yes"/>
      <point x="15" y="-168" type="line" smooth="yes"/>
      <point x="142" y="-210" type="line" smooth="yes"/>
      <point x="298" y="-145" type="line" smooth="yes"/>
      <point x="368" y="47" type="line" smooth="yes"/>
      <point x="370" y="60" type="line" smooth="yes"/>
      <point x="330" y="60" type="line" smooth="yes"/>
      <point x="271" y="-113" type="line" smooth="yes"/>
    </contour>
  </outline>
</glyph>
<glyph name="Atilde" format="1">
  <advance width="600"/>
  <unicode hex="00C3"/>
  <outline>
    <contour>
      <point x="351" y="750" type="line" smooth="yes"/>
      <point x="433" y="249" type="line" smooth="yes"/>
      <point x="136" y="249" type="line" smooth="yes"/>
    </contour>
    <contour>
      <point x="325" y="790" type="line" smooth="yes"/>
      <point x="-15" y="0" type="line" smooth="yes"/>
      <point x="31" y="0" type="line" smooth="yes"/>
      <point x="120" y="211" type="line" smooth="yes"/>
      <point x="439" y="211" type="line" smooth="yes"/>
      <point x="475" y="0" type="line" smooth="yes"/>
      <point x="517" y="0" type="line" smooth="yes"/>
      <point x="385" y="790" type="line" smooth="yes"/>
    </contour>
    <contour>
      <point x="477" y="932" type="line" smooth="yes"/>
      <point x="462" y="893" type="line" smooth="yes"/>
      <point x="431" y="881" type="line" smooth="yes"/>
      <point x="376" y="912" type="line" smooth="yes"/>
      <point x="307" y="942" type="line" smooth="yes"/>
      <point x="252" y="921" type="line" smooth="yes"/>
      <point x="223" y="858" type="line" smooth="yes"/>
      <point x="259" y="858" type="line" smooth="yes"/>
      <point x="275" y="897" type="line" smooth="yes"/>
      <point x="305" y="909" type="line" smooth="yes"/>
      <point x="361" y="879" type="line" smooth="yes"/>
      <point x="430" y="848" type="line" smooth="yes"/>
      <point x="485" y="869" type="line" smooth="yes"/>
      <point x="513" y="932" type="line" smooth="yes"/>
    </contour>
  </outline>
</glyph>
<glyph name="Aring" format="1">
  <advance width="600"/>
  <unicode hex="00C5"/>
  <outline>
    <contour>
      <point x="307" y="860" type="line" smooth="yes"/>
      <point x="327" y="911" type="line" smooth="yes"/>
      <point x="372" y="928" type="line" smooth="yes"/>
      <point x="409" y="914" type="line" smooth="yes"/>
      <point x="423" y="880" type="line" smooth="yes"/>
      <point x="403" y="829" type="line" smooth="yes"/>
      <point x="358" y="812" type="line" smooth="yes"/>
      <point x="321" y="826" type="line" smooth="yes"/>
    </contour>
    <contour>
      <point x="351" y="750" type="line" smooth="yes"/>
      <point x="433" y="249" type="line" smooth="yes"/>
      <point x="136" y="249" type="line" smooth="yes"/>
    </contour>
    <contour>
      <point x="456" y="880" type="line" smooth="yes"/>
      <point x="433" y="937" type="line" smooth="yes"/>
      <point x="372" y="960" type="line" smooth="yes"/>
      <point x="302" y="931" type="line" smooth="yes"/>
      <point x="274" y="860" type="line" smooth="yes"/>
      <point x="287" y="815" type="line" smooth="yes"/>
      <point x="323" y="786" type="line" smooth="yes"/>
      <point x="-15" y="0" type="line" smooth="yes"/>
      <point x="31" y="0" type="line" smooth="yes"/>
      <point x="120" y="211" type="line" smooth="yes"/>
      <point x="439" y="211" type="line" smooth="yes"/>
      <point x="475" y="0" type="line" smooth="yes"/>
      <point x="517" y="0" type="line" smooth="yes"/>
      <point x="386" y="784" type="line" smooth="yes"/>
      <point x="437" y="819" type="line" smooth="yes"/>
    </contour>
  </outline>
</glyph>
<glyph name="Ccedilla" format="1">
  <advance width="601"/>
  <unicode hex="00C7"/>
  <outline>
    <contour>
      <point x="166" y="-183" type="line" smooth="yes"/>
      <point x="204" y="-202" type="line" smooth="yes"/>
      <point x="253" y="-210" type="line" smooth="yes"/>
      <point x="324" y="-192" type="line" smooth="yes"/>
      <point x="354" y="-130" type="line" smooth="yes"/>
      <point x="326" y="-78" type="line" smooth="yes"/>
      <point x="269" y="-64" type="line" smooth="yes"/>
      <point x="264" y="-64" type="line" smooth="yes"/>
      <point x="292" y="-10" type="line" smooth="yes"/>
      <point x="461" y="63" type="line" smooth="yes"/>
      <point x="534" y="241" type="line" smooth="yes"/>
      <point x="535" y="250" type="line" smooth="yes"/>
      <point x="493" y="250" type="line" smooth="yes"/>
      <point x="428" y="85" type="line" smooth="yes"/>
      <point x="279" y="28" type="line" smooth="yes"/>
      <point x="273" y="28" type="line" smooth="yes"/>
      <point x="124" y="108" type="line" smooth="yes"/>
      <point x="105" y="378" type="line" smooth="yes"/>
      <point x="108" y="402" type="line" smooth="yes"/>
      <point x="194" y="670" type="line" smooth="yes"/>
      <point x="364" y="752" type="line" smooth="yes"/>
      <point x="370" y="752" type="line" smooth="yes"/>
      <point x="507" y="694" type="line" smooth="yes"/>
      <point x="526" y="500" type="line" smooth="yes"/>
      <point x="568" y="500" type="line" smooth="yes"/>
      <point x="571" y="519" type="line" smooth="yes"/>
      <point x="541" y="718" type="line" smooth="yes"/>
      <point x="367" y="790" type="line" smooth="yes"/>
      <point x="166" y="698" type="line" smooth="yes"/>
      <point x="66" y="402" type="line" smooth="yes"/>
      <point x="63" y="378" type="line" smooth="yes"/>
      <point x="88" y="87" type="line" smooth="yes"/>
      <point x="256" y="-9" type="line" smooth="yes"/>
      <point x="219" y="-83" type="line" smooth="yes"/>
      <point x="233" y="-99" type="line" smooth="yes"/>
      <point x="241" y="-98" type="line" smooth="yes"/>
      <point x="261" y="-97" type="line" smooth="yes"/>
      <point x="302" y="-104" type="line" smooth="yes"/>
      <point x="320" y="-134" type="line" smooth="yes"/>
      <point x="302" y="-167" type="line" smooth="yes"/>
      <point x="253" y="-177" type="line" smooth="yes"/>
      <point x="211" y="-170" type="line" smooth="yes"/>
      <point x="181" y="-155" type="line" smooth="yes"/>
    </contour>
  </outline>
</glyph>
<glyph name="Iacute" format="1">
  <advance width="210"/>
  <unicode hex="00CD"/>
  <outline>
    <contour>
      <point x="222" y="950" type="line" smooth="yes"/>
      <point x="145" y="840" type="line" smooth="yes"/>
      <point x="187" y="840" type="line" smooth="yes"/>
      <point x="264" y="950" type="line" smooth="yes"/>
    </contour>
    <contour>
      <point x="178" y="780" type="line" smooth="yes"/>
      <point x="138" y="780" type="line" smooth="yes"/>
      <point x="36" y="0" type="line" smooth="yes"/>
      <point x="76" y="0" type="line" smooth="yes"/>
    </contour>
  </outline>
</glyph>
<glyph name="Ntilde" format="1">
  <advance width="650"/>
  <unicode hex="00D1"/>
  <outline>
    <contour>
      <point x="623" y="780" type="line" smooth="yes"/>
      <point x="584" y="780" type="line" smooth="yes"/>
      <point x="514" y="250" type="line" smooth="yes"/>
      <point x="492" y="60" type="line" smooth="yes"/>
      <point x="177" y="780" type="line" smooth="yes"/>
      <point x="133" y="780" type="line" smooth="yes"/>
      <point x="31" y="0" type="line" smooth="yes"/>
      <point x="70" y="0" type="line" smooth="yes"/>
      <point x="139" y="530" type="line" smooth="yes"/>
      <point x="161" y="720" type="line" smooth="yes"/>
      <point x="477" y="0" type="line" smooth="yes"/>
      <point x="521" y="0" type="line" smooth="yes"/>
    </contour>
    <contour>
      <point x="502" y="932" type="line" smooth="yes"/>
      <point x="487" y="893" type="line" smooth="yes"/>
      <point x="456" y="881" type="line" smooth="yes"/>
      <point x="401" y="912" type="line" smooth="yes"/>
      <point x="332" y="942" type="line" smooth="yes"/>
      <point x="277" y="921" type="line" smooth="yes"/>
      <point x="248" y="858" type="line" smooth="yes"/>
      <point x="284" y="858" type="line" smooth="yes"/>
      <point x="300" y="897" type="line" smooth="yes"/>
      <point x="330" y="909" type="line" smooth="yes"/>
      <point x="386" y="879" type="line" smooth="yes"/>
      <point x="455" y="848" type="line" smooth="yes"/>
      <point x="510" y="869" type="line" smooth="yes"/>
      <point x="538" y="932" type="line" smooth="yes"/>
    </contour>
  </outline>
</glyph>
<glyph name="Otilde" format="1">
  <advance width="631"/>
  <unicode hex="00D5"/>
  <outline>
    <contour>
      <point x="535" y="378" type="line" smooth="yes"/>
      <point x="449" y="110" type="line" smooth="yes"/>
      <point x="279" y="28" type="line" smooth="yes"/>
      <point x="273" y="28" type="line" smooth="yes"/>
      <point x="124" y="108" type="line" smooth="yes"/>
      <point x="105" y="378" type="line" smooth="yes"/>
      <point x="108" y="402" type="line" smooth="yes"/>
      <point x="194" y="670" type="line" smooth="yes"/>
      <point x="364" y="752" type="line" smooth="yes"/>
      <point x="370" y="752" type="line" smooth="yes"/>
      <point x="519" y="672" type="line" smooth="yes"/>
      <point x="538" y="402" type="line" smooth="yes"/>
    </contour>
    <contour>
      <point x="580" y="402" type="line" smooth="yes"/>
      <point x="551" y="701" type="line" smooth="yes"/>
      <point x="367" y="790" type="line" smooth="yes"/>
      <point x="166" y="698" type="line" smooth="yes"/>
      <point x="66" y="402" type="line" smooth="yes"/>
      <point x="63" y="378" type="line" smooth="yes"/>
      <point x="92" y="79" type="line" smooth="yes"/>
      <point x="276" y="-10" type="line" smooth="yes"/>
      <point x="478" y="82" type="line" smooth="yes"/>
      <point x="577" y="378" type="line" smooth="yes"/>
    </contour>
    <contour>
      <point x="497" y="932" type="line" smooth="yes"/>
      <point x="482" y="893" type="line" smooth="yes"/>
      <point x="451" y="881" type="line" smooth="yes"/>
      <point x="396" y="912" type="line" smooth="yes"/>
      <point x="327" y="942" type="line" smooth="yes"/>
      <point x="272" y="921" type="line" smooth="yes"/>
      <point x="243" y="858" type="line" smooth="yes"/>
      <point x="279" y="858" type="line" smooth="yes"/>
      <point x="295" y="897" type="line" smooth="yes"/>
      <point x="325" y="909" type="line" smooth="yes"/>
      <point x="381" y="879" type="line" smooth="yes"/>
      <point x="450" y="848" type="line" smooth="yes"/>
      <point x="505" y="869" type="line" smooth="yes"/>
      <point x="533" y="932" type="line" smooth="yes"/>
    </contour>
  </outline>
</glyph>
<glyph name="Thorn" format="1">
  <advance width="557"/>
  <unicode hex="00DE"/>
  <outline>
    <contour>
      <point x="97" y="203" type="line" smooth="yes"/>
      <point x="146" y="577" type="line" smooth="yes"/>
      <point x="305" y="577" type="line" smooth="yes"/>
      <point x="423" y="543" type="line" smooth="yes"/>
      <point x="470" y="396" type="line" smooth="yes"/>
      <point x="467" y="372" type="line" smooth="yes"/>
      <point x="387" y="233" type="line" smooth="yes"/>
      <point x="264" y="203" type="line" smooth="yes"/>
    </contour>
    <contour>
      <point x="92" y="165" type="line" smooth="yes"/>
      <point x="259" y="165" type="line" smooth="yes"/>
      <point x="417" y="208" type="line" smooth="yes"/>
      <point x="509" y="372" type="line" smooth="yes"/>
      <point x="512" y="396" type="line" smooth="yes"/>
      <point x="458" y="569" type="line" smooth="yes"/>
      <point x="308" y="615" type="line" smooth="yes"/>
      <point x="151" y="615" type="line" smooth="yes"/>
      <point x="173" y="780" type="line" smooth="yes"/>
      <point x="133" y="780" type="line" smooth="yes"/>
      <point x="31" y="0" type="line" smooth="yes"/>
      <point x="71" y="0" type="line" smooth="yes"/>
    </contour>
  </outline>
</glyph>
<glyph name="germandbls" format="1">
  <advance width="548"/>
  <unicode hex="00DF"/>
  <outline>
    <contour>
      <point x="256" y="382" type="line" smooth="yes"/>
      <point x="321" y="336" type="line" smooth="yes"/>
      <point x="426" y="243" type="line" smooth="yes"/>
      <point x="448" y="150" type="line" smooth="yes"/>
      <point x="409" y="64" type="line" smooth="yes"/>
      <point x="307" y="28" type="line" smooth="yes"/>
      <point x="206" y="68" type="line" smooth="yes"/>
      <point x="192" y="160" type="line" smooth="yes"/>
      <point x="153" y="160" type="line" smooth="yes"/>
      <point x="152" y="152" type="line" smooth="yes"/>
      <point x="171" y="44" type="line" smooth="yes"/>
      <point x="307" y="-10" type="line" smooth="yes"/>
      <point x="442" y="40" type="line" smooth="yes"/>
      <point x="490" y="145" type="line" smooth="yes"/>
      <point x="491" y="153" type="line" smooth="yes"/>
      <point x="463" y="262" type="line" smooth="yes"/>
      <point x="363" y="356" type="line" smooth="yes"/>
      <point x="312" y="393" type="line" smooth="yes"/>
      <point x="435" y="493" type="line" smooth="yes"/>
      <point x="482" y="607" type="line" smooth="yes"/>
      <point x="483" y="615" type="line" smooth="yes"/>
      <point x="452" y="757" type="line" smooth="yes"/>
      <point x="309" y="810" type="line" smooth="yes"/>
      <point x="167" y="760" type="line" smooth="yes"/>
      <point x="101" y="614" type="line" smooth="yes"/>
      <point x="21" y="0" type="line" smooth="yes"/>
      <point x="61" y="0" type="line" smooth="yes"/>
      <point x="141" y="610" type="line" smooth="yes"/>
      <point x="194" y="730" type="line" smooth="yes"/>
      <point x="309" y="770" type="line" smooth="yes"/>
      <point x="419" y="726" type="line" smooth="yes"/>
      <point x="440" y="611" type="line" smooth="yes"/>
      <point x="390" y="501" type="line" smooth="yes"/>
      <point x="259" y="410" type="line" smooth="yes"/>
    </contour>
  </outline>
</glyph>
<glyph name="aacute" format="1">
  <advance width="496"/>
  <unicode hex="00E1"/>
  <outline>
    <contour>
      <point x="160" y="28" type="line" smooth="yes"/>
      <point x="80" y="61" type="line" smooth="yes"/>
      <point x="60" y="134" type="line" smooth="yes"/>
      <point x="62" y="150" type="line" smooth="yes"/>
      <point x="105" y="227" type="line" smooth="yes"/>
      <point x="203" y="261" type="line" smooth="yes"/>
      <point x="379" y="289" type="line" smooth="yes"/>
      <point x="358" y="129" type="line" smooth="yes"/>
      <point x="295" y="66" type="line" smooth="yes"/>
    </contour>
    <contour>
      <point x="356" y="0" type="line" smooth="yes"/>
      <point x="386" y="0" type="line" smooth="yes"/>
      <point x="400" y="150" type="line" smooth="yes"/>
      <point x="426" y="345" type="line" smooth="yes"/>
      <point x="406" y="486" type="line" smooth="yes"/>
      <point x="263" y="540" type="line" smooth="yes"/>
      <point x="117" y="483" type="line" smooth="yes"/>
      <point x="69" y="369" type="line" smooth="yes"/>
      <point x="67" y="355" type="line" smooth="yes"/>
      <point x="107" y="355" type="line" smooth="yes"/>
      <point x="146" y="458" type="line" smooth="yes"/>
      <point x="263" y="502" type="line" smooth="yes"/>
      <point x="371" y="465" type="line" smooth="yes"/>
      <point x="387" y="350" type="line" smooth="yes"/>
      <point x="384" y="326" type="line" smooth="yes"/>
      <point x="208" y="298" type="line" smooth="yes"/>
      <point x="88" y="261" type="line" smooth="yes"/>
      <point x="20" y="147" type="line" smooth="yes"/>
      <point x="18" y="131" type="line" smooth="yes"/>
      <point x="52" y="29" type="line" smooth="yes"/>
      <point x="160" y="-10" type="line" smooth="yes"/>
      <point x="279" y="18" type="line" smooth="yes"/>
      <point x="357" y="80" type="line" smooth="yes"/>
    </contour>
    <contour>
      <point x="372" y="780" type="line" smooth="yes"/>
      <point x="261" y="620" type="line" smooth="yes"/>
      <point x="303" y="620" type="line" smooth="yes"/>
      <point x="414" y="780" type="line" smooth="yes"/>
    </contour>
  </outline>
</glyph>
<glyph name="atilde" format="1">
  <advance width="500"/>
  <unicode hex="00E3"/>
  <outline>
    <contour>
      <point x="160" y="28" type="line" smooth="yes"/>
      <point x="80" y="61" type="line" smooth="yes"/>
      <point x="60" y="134" type="line" smooth="yes"/>
      <point x="62" y="150" type="line" smooth="yes"/>
      <point x="105" y="227" type="line" smooth="yes"/>
      <point x="203" y="261" type="line" smooth="yes"/>
      <point x="379" y="289" type="line" smooth="yes"/>
      <point x="358" y="129" type="line" smooth="yes"/>
      <point x="295" y="66" type="line" smooth="yes"/>
    </contour>
    <contour>
      <point x="356" y="0" type="line" smooth="yes"/>
      <point x="386" y="0" type="line" smooth="yes"/>
      <point x="400" y="150" type="line" smooth="yes"/>
      <point x="426" y="345" type="line" smooth="yes"/>
      <point x="406" y="486" type="line" smooth="yes"/>
      <point x="263" y="540" type="line" smooth="yes"/>
      <point x="117" y="483" type="line" smooth="yes"/>
      <point x="69" y="369" type="line" smooth="yes"/>
      <point x="67" y="355" type="line" smooth="yes"/>
      <point x="107" y="355" type="line" smooth="yes"/>
      <point x="146" y="458" type="line" smooth="yes"/>
      <point x="263" y="502" type="line" smooth="yes"/>
      <point x="371" y="465" type="line" smooth="yes"/>
      <point x="387" y="350" type="line" smooth="yes"/>
      <point x="384" y="326" type="line" smooth="yes"/>
      <point x="208" y="298" type="line" smooth="yes"/>
      <point x="88" y="261" type="line" smooth="yes"/>
      <point x="20" y="147" type="line" smooth="yes"/>
      <point x="18" y="131" type="line" smooth="yes"/>
      <point x="52" y="29" type="line" smooth="yes"/>
      <point x="160" y="-10" type="line" smooth="yes"/>
      <point x="279" y="18" type="line" smooth="yes"/>
      <point x="357" y="80" type="line" smooth="yes"/>
    </contour>
    <contour>
      <point x="403" y="737" type="line" smooth="yes"/>
      <point x="387" y="698" type="line" smooth="yes"/>
      <point x="359" y="687" type="line" smooth="yes"/>
      <point x="300" y="717" type="line" smooth="yes"/>
      <point x="229" y="747" type="line" smooth="yes"/>
      <point x="175" y="726" type="line" smooth="yes"/>
      <point x="148" y="663" type="line" smooth="yes"/>
      <point x="183" y="663" type="line" smooth="yes"/>
      <point x="199" y="702" type="line" smooth="yes"/>
      <point x="226" y="713" type="line" smooth="yes"/>
      <point x="285" y="683" type="line" smooth="yes"/>
      <point x="356" y="653" type="line" smooth="yes"/>
      <point x="410" y="674" type="line" smooth="yes"/>
      <point x="438" y="737" type="line" smooth="yes"/>
    </contour>
  </outline>
</glyph>
<glyph name="ae" format="1">
  <advance width="871"/>
  <unicode hex="00E6"/>
  <outline>
    <contour>
      <point x="160" y="28" type="line" smooth="yes"/>
      <point x="80" y="61" type="line" smooth="yes"/>
      <point x="60" y="134" type="line" smooth="yes"/>
      <point x="62" y="150" type="line" smooth="yes"/>
      <point x="105" y="227" type="line" smooth="yes"/>
      <point x="203" y="261" type="line" smooth="yes"/>
      <point x="379" y="289" type="line" smooth="yes"/>
      <point x="375" y="259" type="line" smooth="yes"/>
      <point x="371" y="205" type="line" smooth="yes"/>
      <point x="375" y="154" type="line" smooth="yes"/>
      <point x="295" y="67" type="line" smooth="yes"/>
    </contour>
    <contour>
      <point x="624" y="502" type="line" smooth="yes"/>
      <point x="747" y="444" type="line" smooth="yes"/>
      <point x="768" y="284" type="line" smooth="yes"/>
      <point x="420" y="284" type="line" smooth="yes"/>
      <point x="485" y="440" type="line" smooth="yes"/>
    </contour>
    <contour>
      <point x="804" y="246" type="line" smooth="yes"/>
      <point x="808" y="278" type="line" smooth="yes"/>
      <point x="782" y="462" type="line" smooth="yes"/>
      <point x="624" y="540" type="line" smooth="yes"/>
      <point x="501" y="505" type="line" smooth="yes"/>
      <point x="423" y="409" type="line" smooth="yes"/>
      <point x="386" y="505" type="line" smooth="yes"/>
      <point x="263" y="540" type="line" smooth="yes"/>
      <point x="117" y="483" type="line" smooth="yes"/>
      <point x="69" y="369" type="line" smooth="yes"/>
      <point x="67" y="355" type="line" smooth="yes"/>
      <point x="107" y="355" type="line" smooth="yes"/>
      <point x="146" y="458" type="line" smooth="yes"/>
      <point x="263" y="502" type="line" smooth="yes"/>
      <point x="371" y="465" type="line" smooth="yes"/>
      <point x="387" y="350" type="line" smooth="yes"/>
      <point x="384" y="326" type="line" smooth="yes"/>
      <point x="208" y="298" type="line" smooth="yes"/>
      <point x="88" y="261" type="line" smooth="yes"/>
      <point x="20" y="147" type="line" smooth="yes"/>
      <point x="18" y="131" type="line" smooth="yes"/>
      <point x="52" y="29" type="line" smooth="yes"/>
      <point x="160" y="-10" type="line" smooth="yes"/>
      <point x="285" y="21" type="line" smooth="yes"/>
      <point x="385" y="110" type="line" smooth="yes"/>
      <point x="451" y="23" type="line" smooth="yes"/>
      <point x="580" y="-10" type="line" smooth="yes"/>
      <point x="733" y="45" type="line" smooth="yes"/>
      <point x="793" y="163" type="line" smooth="yes"/>
      <point x="794" y="170" type="line" smooth="yes"/>
      <point x="754" y="170" type="line" smooth="yes"/>
      <point x="709" y="75" type="line" smooth="yes"/>
      <point x="580" y="28" type="line" smooth="yes"/>
      <point x="442" y="88" type="line" smooth="yes"/>
      <point x="416" y="246" type="line" smooth="yes"/>
    </contour>
  </outline>
</glyph>
<glyph name="ccedilla" format="1">
  <advance width="518"/>
  <unicode hex="00E7"/>
  <outline>
    <contour>
      <point x="119" y="-183" type="line" smooth="yes"/>
      <point x="157" y="-202" type="line" smooth="yes"/>
      <point x="206" y="-210" type="line" smooth="yes"/>
      <point x="277" y="-192" type="line" smooth="yes"/>
      <point x="307" y="-130" type="line" smooth="yes"/>
      <point x="279" y="-78" type="line" smooth="yes"/>
      <point x="222" y="-64" type="line" smooth="yes"/>
      <point x="217" y="-64" type="line" smooth="yes"/>
      <point x="245" y="-10" type="line" smooth="yes"/>
      <point x="388" y="53" type="line" smooth="yes"/>
      <point x="437" y="166" type="line" smooth="yes"/>
      <point x="439" y="180" type="line" smooth="yes"/>
      <point x="399" y="180" type="line" smooth="yes"/>
      <point x="355" y="75" type="line" smooth="yes"/>
      <point x="234" y="28" type="line" smooth="yes"/>
      <point x="106" y="92" type="line" smooth="yes"/>
      <point x="81" y="262" type="line" smooth="yes"/>
      <point x="83" y="278" type="line" smooth="yes"/>
      <point x="145" y="442" type="line" smooth="yes"/>
      <point x="278" y="502" type="line" smooth="yes"/>
      <point x="396" y="455" type="line" smooth="yes"/>
      <point x="421" y="340" type="line" smooth="yes"/>
      <point x="460" y="340" type="line" smooth="yes"/>
      <point x="462" y="355" type="line" smooth="yes"/>
      <point x="434" y="475" type="line" smooth="yes"/>
      <point x="278" y="540" type="line" smooth="yes"/>
      <point x="112" y="466" type="line" smooth="yes"/>
      <point x="41" y="275" type="line" smooth="yes"/>
      <point x="39" y="259" type="line" smooth="yes"/>
      <point x="66" y="77" type="line" smooth="yes"/>
      <point x="209" y="-9" type="line" smooth="yes"/>
      <point x="172" y="-83" type="line" smooth="yes"/>
      <point x="186" y="-99" type="line" smooth="yes"/>
      <point x="194" y="-98" type="line" smooth="yes"/>
      <point x="214" y="-97" type="line" smooth="yes"/>
      <point x="255" y="-104" type="line" smooth="yes"/>
      <point x="273" y="-134" type="line" smooth="yes"/>
      <point x="255" y="-167" type="line" smooth="yes"/>
      <point x="206" y="-177" type="line" smooth="yes"/>
      <point x="164" y="-170" type="line" smooth="yes"/>
      <point x="134" y="-155" type="line" smooth="yes"/>
    </contour>
  </outline>
</glyph>
<glyph name="egrave" format="1">
  <advance width="536"/>
  <unicode hex="00E8"/>
  <outline>
    <contour>
      <point x="288" y="502" type="line" smooth="yes"/>
      <point x="411" y="444" type="line" smooth="yes"/>
      <point x="432" y="284" type="line" smooth="yes"/>
      <point x="84" y="284" type="line" smooth="yes"/>
      <point x="149" y="440" type="line" smooth="yes"/>
    </contour>
    <contour>
      <point x="468" y="246" type="line" smooth="yes"/>
      <point x="472" y="278" type="line" smooth="yes"/>
      <point x="446" y="462" type="line" smooth="yes"/>
      <point x="288" y="540" type="line" smooth="yes"/>
      <point x="117" y="466" type="line" smooth="yes"/>
      <point x="41" y="275" type="line" smooth="yes"/>
      <point x="39" y="259" type="line" smooth="yes"/>
      <point x="69" y="70" type="line" smooth="yes"/>
      <point x="244" y="-10" type="line" smooth="yes"/>
      <point x="397" y="45" type="line" smooth="yes"/>
      <point x="457" y="163" type="line" smooth="yes"/>
      <point x="458" y="170" type="line" smooth="yes"/>
      <point x="418" y="170" type="line" smooth="yes"/>
      <point x="373" y="75" type="line" smooth="yes"/>
      <point x="244" y="28" type="line" smooth="yes"/>
      <point x="106" y="88" type="line" smooth="yes"/>
      <point x="80" y="246" type="line" smooth="yes"/>
    </contour>
    <contour>
      <point x="212" y="780" type="line" smooth="yes"/>
      <point x="281" y="620" type="line" smooth="yes"/>
      <point x="323" y="620" type="line" smooth="yes"/>
      <point x="254" y="780" type="line" smooth="yes"/>
    </contour>
  </outline>
</glyph>
<glyph name="edieresis" format="1">
  <advance width="536"/>
  <unicode hex="00EB"/>
  <outline>
    <contour>
      <point x="288" y="502" type="line" smooth="yes"/>
      <point x="411" y="444" type="line" smooth="yes"/>
      <point x="432" y="284" type="line" smooth="yes"/>
      <point x="84" y="284" type="line" smooth="yes"/>
      <point x="149" y="440" type="line" smooth="yes"/>
    </contour>
    <contour>
      <point x="468" y="246" type="line" smooth="yes"/>
      <point x="472" y="278" type="line" smooth="yes"/>
      <point x="446" y="462" type="line" smooth="yes"/>
      <point x="288" y="540" type="line" smooth="yes"/>
      <point x="117" y="466" type="line" smooth="yes"/>
      <point x="41" y="275" type="line" smooth="yes"/>
      <point x="39" y="259" type="line" smooth="yes"/>
      <point x="69" y="70" type="line" smooth="yes"/>
      <point x="244" y="-10" type="line" smooth="yes"/>
      <point x="397" y="45" type="line" smooth="yes"/>
      <point x="457" y="163" type="line" smooth="yes"/>
      <point x="458" y="170" type="line" smooth="yes"/>
      <point x="418" y="170" type="line" smooth="yes"/>
      <point x="373" y="75" type="line" smooth="yes"/>
      <point x="244" y="28" type="line" smooth="yes"/>
      <point x="106" y="88" type="line" smooth="yes"/>
      <point x="80" y="246" type="line" smooth="yes"/>
    </contour>
    <contour>
      <point x="422" y="735" type="line" smooth="yes"/>
      <point x="362" y="735" type="line" smooth="yes"/>
      <point x="354" y="675" type="line" smooth="yes"/>
      <point x="414" y="675" type="line" smooth="yes"/>
    </contour>
    <contour>
      <point x="272" y="735" type="line" smooth="yes"/>
      <point x="212" y="735" type="line" smooth="yes"/>
      <point x="204" y="675" type="line" smooth="yes"/>
      <point x="264" y="675" type="line" smooth="yes"/>
    </contour>
  </outline>
</glyph>
<glyph name="eth" format="1">
  <advance width="533"/>
  <unicode hex="00F0"/>
  <outline>
    <contour>
      <point x="229" y="28" type="line" smooth="yes"/>
      <point x="104" y="92" type="line" smooth="yes"/>
      <point x="81" y="262" type="line" smooth="yes"/>
      <point x="83" y="278" type="line" smooth="yes"/>
      <point x="147" y="442" type="line" smooth="yes"/>
      <point x="283" y="502" type="line" smooth="yes"/>
      <point x="408" y="438" type="line" smooth="yes"/>
      <point x="431" y="268" type="line" smooth="yes"/>
      <point x="429" y="252" type="line" smooth="yes"/>
      <point x="365" y="88" type="line" smooth="yes"/>
    </contour>
    <contour>
      <point x="107" y="772" type="line" smooth="yes"/>
      <point x="194" y="754" type="line" smooth="yes"/>
      <point x="275" y="718" type="line" smooth="yes"/>
      <point x="132" y="640" type="line" smooth="yes"/>
      <point x="126" y="597" type="line" smooth="yes"/>
      <point x="308" y="696" type="line" smooth="yes"/>
      <point x="339" y="670" type="line" smooth="yes"/>
      <point x="368" y="638" type="line" smooth="yes"/>
      <point x="412" y="558" type="line" smooth="yes"/>
      <point x="436" y="465" type="line" smooth="yes"/>
      <point x="378" y="520" type="line" smooth="yes"/>
      <point x="283" y="540" type="line" smooth="yes"/>
      <point x="115" y="466" type="line" smooth="yes"/>
      <point x="41" y="275" type="line" smooth="yes"/>
      <point x="39" y="259" type="line" smooth="yes"/>
      <point x="69" y="69" type="line" smooth="yes"/>
      <point x="229" y="-10" type="line" smooth="yes"/>
      <point x="397" y="64" type="line" smooth="yes"/>
      <point x="471" y="255" type="line" smooth="yes"/>
      <point x="473" y="271" type="line" smooth="yes"/>
      <point x="475" y="484" type="line" smooth="yes"/>
      <point x="404" y="664" type="line" smooth="yes"/>
      <point x="378" y="694" type="line" smooth="yes"/>
      <point x="350" y="719" type="line" smooth="yes"/>
      <point x="438" y="767" type="line" smooth="yes"/>
      <point x="444" y="810" type="line" smooth="yes"/>
      <point x="319" y="742" type="line" smooth="yes"/>
      <point x="220" y="789" type="line" smooth="yes"/>
      <point x="112" y="810" type="line" smooth="yes"/>
    </contour>
  </outline>
</glyph>
<glyph name="ntilde" format="1">
  <advance width="509"/>
  <unicode hex="00F1"/>
  <outline>
    <contour>
      <point x="396" y="0" type="line" smooth="yes"/>
      <point x="445" y="375" type="line" smooth="yes"/>
      <point x="415" y="496" type="line" smooth="yes"/>
      <point x="290" y="540" type="line" smooth="yes"/>
      <point x="187" y="515" type="line" smooth="yes"/>
      <point x="114" y="452" type="line" smooth="yes"/>
      <point x="115" y="530" type="line" smooth="yes"/>
      <point x="85" y="530" type="line" smooth="yes"/>
      <point x="71" y="380" type="line" smooth="yes"/>
      <point x="21" y="0" type="line" smooth="yes"/>
      <point x="61" y="0" type="line" smooth="yes"/>
      <point x="114" y="410" type="line" smooth="yes"/>
      <point x="177" y="471" type="line" smooth="yes"/>
      <point x="285" y="502" type="line" smooth="yes"/>
      <point x="380" y="472" type="line" smooth="yes"/>
      <point x="404" y="370" type="line" smooth="yes"/>
      <point x="356" y="0" type="line" smooth="yes"/>
    </contour>
    <contour>
      <point x="411" y="737" type="line" smooth="yes"/>
      <point x="395" y="698" type="line" smooth="yes"/>
      <point x="367" y="687" type="line" smooth="yes"/>
      <point x="308" y="717" type="line" smooth="yes"/>
      <point x="237" y="747" type="line" smooth="yes"/>
      <point x="183" y="726" type="line" smooth="yes"/>
      <point x="156" y="663" type="line" smooth="yes"/>
      <point x="191" y="663" type="line" smooth="yes"/>
      <point x="207" y="702" type="line" smooth="yes"/>
      <point x="234" y="713" type="line" smooth="yes"/>
      <point x="293" y="683" type="line" smooth="yes"/>
      <point x="364" y="653" type="line" smooth="yes"/>
      <point x="418" y="674" type="line" smooth="yes"/>
      <point x="446" y="737" type="line" smooth="yes"/>
    </contour>
  </outline>
</glyph>
<glyph name="oacute" format="1">
  <advance width="536"/>
  <unicode hex="00F3"/>
  <outline>
    <contour>
      <point x="229" y="-10" type="line" smooth="yes"/>
      <point x="397" y="64" type="line" smooth="yes"/>
      <point x="471" y="255" type="line" smooth="yes"/>
      <point x="473" y="271" type="line" smooth="yes"/>
      <point x="443" y="461" type="line" smooth="yes"/>
      <point x="283" y="540" type="line" smooth="yes"/>
      <point x="115" y="466" type="line" smooth="yes"/>
      <point x="41" y="275" type="line" smooth="yes"/>
      <point x="39" y="259" type="line" smooth="yes"/>
      <point x="69" y="69" type="line" smooth="yes"/>
    </contour>
    <contour>
      <point x="229" y="28" type="line" smooth="yes"/>
      <point x="104" y="92" type="line" smooth="yes"/>
      <point x="81" y="262" type="line" smooth="yes"/>
      <point x="83" y="278" type="line" smooth="yes"/>
      <point x="147" y="442" type="line" smooth="yes"/>
      <point x="283" y="502" type="line" smooth="yes"/>
      <point x="408" y="438" type="line" smooth="yes"/>
      <point x="431" y="268" type="line" smooth="yes"/>
      <point x="429" y="252" type="line" smooth="yes"/>
      <point x="365" y="88" type="line" smooth="yes"/>
    </contour>
    <contour>
      <point x="392" y="780" type="line" smooth="yes"/>
      <point x="281" y="620" type="line" smooth="yes"/>
      <point x="323" y="620" type="line" smooth="yes"/>
      <point x="434" y="780" type="line" smooth="yes"/>
    </contour>
  </outline>
</glyph>
<glyph name="otilde" format="1">
  <advance width="536"/>
  <unicode hex="00F5"/>
  <outline>
    <contour>
      <point x="229" y="-10" type="line" smooth="yes"/>
      <point x="397" y="64" type="line" smooth="yes"/>
      <point x="471" y="255" type="line" smooth="yes"/>
      <point x="473" y="271" type="line" smooth="yes"/>
      <point x="443" y="461" type="line" smooth="yes"/>
      <point x="283" y="540" type="line" smooth="yes"/>
      <point x="115" y="466" type="line" smooth="yes"/>
      <point x="41" y="275" type="line" smooth="yes"/>
      <point x="39" y="259" type="line" smooth="yes"/>
      <point x="69" y="69" type="line" smooth="yes"/>
    </contour>
    <contour>
      <point x="229" y="28" type="line" smooth="yes"/>
      <point x="104" y="92" type="line" smooth="yes"/>
      <point x="81" y="262" type="line" smooth="yes"/>
      <point x="83" y="278" type="line" smooth="yes"/>
      <point x="147" y="442" type="line" smooth="yes"/>
      <point x="283" y="502" type="line" smooth="yes"/>
      <point x="408" y="438" type="line" smooth="yes"/>
      <point x="431" y="268" type="line" smooth="yes"/>
      <point x="429" y="252" type="line" smooth="yes"/>
      <point x="365" y="88" type="line" smooth="yes"/>
    </contour>
    <contour>
      <point x="423" y="737" type="line" smooth="yes"/>
      <point x="407" y="698" type="line" smooth="yes"/>
      <point x="379" y="687" type="line" smooth="yes"/>
      <point x="320" y="717" type="line" smooth="yes"/>
      <point x="249" y="747" type="line" smooth="yes"/>
      <point x="195" y="726" type="line" smooth="yes"/>
      <point x="168" y="663" type="line" smooth="yes"/>
      <point x="203" y="663" type="line" smooth="yes"/>
      <point x="219" y="702" type="line" smooth="yes"/>
      <point x="246" y="713" type="line" smooth="yes"/>
      <point x="305" y="683" type="line" smooth="yes"/>
      <point x="376" y="653" type="line" smooth="yes"/>
      <point x="430" y="674" type="line" smooth="yes"/>
      <point x="458" y="737" type="line" smooth="yes"/>
    </contour>
  </outline>
</glyph>
<glyph name="odieresis" format="1">
  <advance width="536"/>
  <unicode hex="00F6"/>
  <outline>
    <contour>
      <point x="229" y="-10" type="line" smooth="yes"/>
      <point x="397" y="64" type="line" smooth="yes"/>
      <point x="471" y="255" type="line" smooth="yes"/>
      <point x="473" y="271" type="line" smooth="yes"/>
      <point x="443" y="461" type="line" smooth="yes"/>
      <point x="283" y="540" type="line" smooth="yes"/>
      <point x="115" y="466" type="line" smooth="yes"/>
      <point x="41" y="275" type="line" smooth="yes"/>
      <point x="39" y="259" type="line" smooth="yes"/>
      <point x="69" y="69" type="line" smooth="yes"/>
    </contour>
    <contour>
      <point x="229" y="28" type="line" smooth="yes"/>
      <point x="104" y="92" type="line" smooth="yes"/>
      <point x="81" y="262" type="line" smooth="yes"/>
      <point x="83" y="278" type="line" smooth="yes"/>
      <point x="147" y="442" type="line" smooth="yes"/>
      <point x="283" y="502" type="line" smooth="yes"/>
      <point x="408" y="438" type="line" smooth="yes"/>
      <point x="431" y="268" type="line" smooth="yes"/>
      <point x="429" y="252" type="line" smooth="yes"/>
      <point x="365" y="88" type="line" smooth="yes"/>
    </contour>
    <contour>
      <point x="422" y="735" type="line" smooth="yes"/>
      <point x="362" y="735" type="line" smooth="yes"/>
      <point x="354" y="675" type="line" smooth="yes"/>
      <point x="414" y="675" type="line" smooth="yes"/>
    </contour>
    <contour>
      <point x="272" y="735" type="line" smooth="yes"/>
      <point x="212" y="735" type="line" smooth="yes"/>
      <point x="204" y="675" type="line" smooth="yes"/>
      <point x="264" y="675" type="line" smooth="yes"/>
    </contour>
  </outline>
</glyph>
<glyph name="oslash" format="1">
  <advance width="540"/>
  <unicode hex="00F8"/>
  <outline>
    <contour>
      <point x="229" y="28" type="line" smooth="yes"/>
      <point x="162" y="40" type="line" smooth="yes"/>
      <point x="115" y="75" type="line" smooth="yes"/>
      <point x="416" y="423" type="line" smooth="yes"/>
      <point x="433" y="354" type="line" smooth="yes"/>
      <point x="431" y="268" type="line" smooth="yes"/>
      <point x="429" y="252" type="line" smooth="yes"/>
      <point x="365" y="88" type="line" smooth="yes"/>
    </contour>
    <contour>
      <point x="81" y="262" type="line" smooth="yes"/>
      <point x="83" y="278" type="line" smooth="yes"/>
      <point x="147" y="442" type="line" smooth="yes"/>
      <point x="283" y="502" type="line" smooth="yes"/>
      <point x="349" y="490" type="line" smooth="yes"/>
      <point x="396" y="454" type="line" smooth="yes"/>
      <point x="96" y="107" type="line" smooth="yes"/>
      <point x="79" y="176" type="line" smooth="yes"/>
    </contour>
    <contour>
      <point x="229" y="-10" type="line" smooth="yes"/>
      <point x="397" y="64" type="line" smooth="yes"/>
      <point x="471" y="255" type="line" smooth="yes"/>
      <point x="473" y="271" type="line" smooth="yes"/>
      <point x="473" y="373" type="line" smooth="yes"/>
      <point x="445" y="457" type="line" smooth="yes"/>
      <point x="508" y="530" type="line" smooth="yes"/>
      <point x="462" y="530" type="line" smooth="yes"/>
      <point x="424" y="486" type="line" smooth="yes"/>
      <point x="365" y="526" type="line" smooth="yes"/>
      <point x="283" y="540" type="line" smooth="yes"/>
      <point x="115" y="466" type="line" smooth="yes"/>
      <point x="41" y="275" type="line" smooth="yes"/>
      <point x="39" y="259" type="line" smooth="yes"/>
      <point x="39" y="157" type="line" smooth="yes"/>
      <point x="66" y="72" type="line" smooth="yes"/>
      <point x="4" y="0" type="line" smooth="yes"/>
      <point x="50" y="0" type="line" smooth="yes"/>
      <point x="88" y="44" type="line" smooth="yes"/>
      <point x="147" y="4" type="line" smooth="yes"/>
    </contour>
  </outline>
</glyph>
<glyph name="uacute" format="1">
  <advance width="510"/>
  <unicode hex="00FA"/>
  <outline>
    <contour>
      <point x="85" y="530" type="line" smooth="yes"/>
      <point x="36" y="155" type="line" smooth="yes"/>
      <point x="66" y="34" type="line" smooth="yes"/>
      <point x="191" y="-10" type="line" smooth="yes"/>
      <point x="294" y="15" type="line" smooth="yes"/>
      <point x="367" y="78" type="line" smooth="yes"/>
      <point x="366" y="0" type="line" smooth="yes"/>
      <point x="396" y="0" type="line" smooth="yes"/>
      <point x="410" y="150" type="line" smooth="yes"/>
      <point x="460" y="530" type="line" smooth="yes"/>
      <point x="420" y="530" type="line" smooth="yes"/>
      <point x="367" y="120" type="line" smooth="yes"/>
      <point x="304" y="59" type="line" smooth="yes"/>
      <point x="196" y="28" type="line" smooth="yes"/>
      <point x="101" y="58" type="line" smooth="yes"/>
      <point x="77" y="160" type="line" smooth="yes"/>
      <point x="125" y="530" type="line" smooth="yes"/>
    </contour>
    <contour>
      <point x="374" y="780" type="line" smooth="yes"/>
      <point x="263" y="620" type="line" smooth="yes"/>
      <point x="305" y="620" type="line" smooth="yes"/>
      <point x="416" y="780" type="line" smooth="yes"/>
    </contour>
  </outline>
</glyph>
<glyph name="udieresis" format="1">
  <advance width="510"/>
  <unicode hex="00FC"/>
  <outline>
    <contour>
      <point x="85" y="530" type="line" smooth="yes"/>
      <point x="36" y="155" type="line" smooth="yes"/>
      <point x="66" y="34" type="line" smooth="yes"/>
      <point x="191" y="-10" type="line" smooth="yes"/>
      <point x="294" y="15" type="line" smooth="yes"/>
      <point x="367" y="78" type="line" smooth="yes"/>
      <point x="366" y="0" type="line" smooth="yes"/>
      <point x="396" y="0" type="line" smooth="yes"/>
      <point x="410" y="150" type="line" smooth="yes"/>
      <point x="460" y="530" type="line" smooth="yes"/>
      <point x="420" y="530" type="line" smooth="yes"/>
      <point x="367" y="120" type="line" smooth="yes"/>
      <point x="304" y="59" type="line" smooth="yes"/>
      <point x="196" y="28" type="line" smooth="yes"/>
      <point x="101" y="58" type="line" smooth="yes"/>
      <point x="77" y="160" type="line" smooth="yes"/>
      <point x="125" y="530" type="line" smooth="yes"/>
    </contour>
    <contour>
      <point x="404" y="735" type="line" smooth="yes"/>
      <point x="344" y="735" type="line" smooth="yes"/>
      <point x="336" y="675" type="line" smooth="yes"/>
      <point x="396" y="675" type="line" smooth="yes"/>
    </contour>
    <contour>
      <point x="254" y="735" type="line" smooth="yes"/>
      <point x="194" y="735" type="line" smooth="yes"/>
      <point x="186" y="675" type="line" smooth="yes"/>
      <point x="246" y="675" type="line" smooth="yes"/>
    </contour>
  </outline>
</glyph>
<glyph name="Abreve" format="1">
  <advance width="600"/>
  <unicode hex="0102"/>
  <outline>
    <contour>
      <point x="351" y="750" type="line" smooth="yes"/>
      <point x="433" y="249" type="line" smooth="yes"/>
      <point x="136" y="249" type="line" smooth="yes"/>
    </contour>
    <contour>
      <point x="325" y="790" type="line" smooth="yes"/>
      <point x="-15" y="0" type="line" smooth="yes"/>
      <point x="31" y="0" type="line" smooth="yes"/>
      <point x="120" y="211" type="line" smooth="yes"/>
      <point x="439" y="211" type="line" smooth="yes"/>
      <point x="475" y="0" type="line" smooth="yes"/>
      <point x="517" y="0" type="line" smooth="yes"/>
      <point x="385" y="790" type="line" smooth="yes"/>
    </contour>
    <contour>
      <point x="362" y="830" type="line" smooth="yes"/>
      <point x="463" y="864" type="line" smooth="yes"/>
      <point x="508" y="950" type="line" smooth="yes"/>
      <point x="472" y="950" type="line" smooth="yes"/>
      <point x="440" y="888" type="line" smooth="yes"/>
      <point x="364" y="863" type="line" smooth="yes"/>
      <point x="295" y="888" type="line" smooth="yes"/>
      <point x="280" y="950" type="line" smooth="yes"/>
      <point x="244" y="950" type="line" smooth="yes"/>
      <point x="268" y="864" type="line" smooth="yes"/>
    </contour>
  </outline>
</glyph>
<glyph name="Aogonek" format="1">
  <advance width="600"/>
  <unicode hex="0104"/>
  <outline>
    <contour>
      <point x="351" y="750" type="line" smooth="yes"/>
      <point x="433" y="249" type="line" smooth="yes"/>
      <point x="136" y="249" type="line" smooth="yes"/>
    </contour>
    <contour>
      <point x="325" y="790" type="line" smooth="yes"/>
      <point x="-15" y="0" type="line" smooth="yes"/>
      <point x="31" y="0" type="line" smooth="yes"/>
      <point x="120" y="211" type="line" smooth="yes"/>
      <point x="439" y="211" type="line" smooth="yes"/>
      <point x="473" y="11" type="line" smooth="yes"/>
      <point x="403" y="-45" type="line" smooth="yes"/>
      <point x="373" y="-131" type="line" smooth="yes"/>
      <point x="398" y="-190" type="line" smooth="yes"/>
      <point x="466" y="-210" type="line" smooth="yes"/>
      <point x="506" y="-205" type="line" smooth="yes"/>
      <point x="544" y="-191" type="line" smooth="yes"/>
      <point x="536" y="-163" type="line" smooth="yes"/>
      <point x="506" y="-173" type="line" smooth="yes"/>
      <point x="473" y="-177" type="line" smooth="yes"/>
      <point x="425" y="-164" type="line" smooth="yes"/>
      <point x="407" y="-127" type="line" smooth="yes"/>
      <point x="444" y="-47" type="line" smooth="yes"/>
      <point x="517" y="0" type="line" smooth="yes"/>
      <point x="385" y="790" type="line" smooth="yes"/>
    </contour>
  </outline>
</glyph>
<glyph name="cacute" format="1">
  <advance width="518"/>
  <unicode hex="0107"/>
  <outline>
    <contour>
      <point x="83" y="278" type="line" smooth="yes"/>
      <point x="145" y="442" type="line" smooth="yes"/>
      <point x="278" y="502" type="line" smooth="yes"/>
      <point x="396" y="455" type="line" smooth="yes"/>
      <point x="421" y="340" type="line" smooth="yes"/>
      <point x="460" y="340" type="line" smooth="yes"/>
      <point x="462" y="355" type="line" smooth="yes"/>
      <point x="434" y="475" type="line" smooth="yes"/>
      <point x="278" y="540" type="line" smooth="yes"/>
      <point x="112" y="466" type="line" smooth="yes"/>
      <point x="41" y="275" type="line" smooth="yes"/>
      <point x="39" y="259" type="line" smooth="yes"/>
      <point x="71" y="69" type="line" smooth="yes"/>
      <point x="234" y="-10" type="line" smooth="yes"/>
      <point x="386" y="50" type="line" smooth="yes"/>
      <point x="437" y="166" type="line" smooth="yes"/>
      <point x="439" y="180" type="line" smooth="yes"/>
      <point x="399" y="180" type="line" smooth="yes"/>
      <point x="355" y="75" type="line" smooth="yes"/>
      <point x="234" y="28" type="line" smooth="yes"/>
      <point x="106" y="92" type="line" smooth="yes"/>
      <point x="81" y="262" type="line" smooth="yes"/>
    </contour>
    <contour>
      <point x="392" y="780" type="line" smooth="yes"/>
      <point x="281" y="620" type="line" smooth="yes"/>
      <point x="323" y="620" type="line" smooth="yes"/>
      <point x="434" y="780" type="line" smooth="yes"/>
    </contour>
  </outline>
</glyph>
<glyph name="Ccaron" format="1">
  <advance width="601"/>
  <unicode hex="010C"/>
  <outline>
    <contour>
      <point x="108" y="402" type="line" smooth="yes"/>
      <point x="194" y="670" type="line" smooth="yes"/>
      <point x="364" y="752" type="line" smooth="yes"/>
      <point x="370" y="752" type="line" smooth="yes"/>
      <point x="507" y="694" type="line" smooth="yes"/>
      <point x="526" y="500" type="line" smooth="yes"/>
      <point x="568" y="500" type="line" smooth="yes"/>
      <point x="571" y="519" type="line" smooth="yes"/>
      <point x="541" y="718" type="line" smooth="yes"/>
      <point x="367" y="790" type="line" smooth="yes"/>
      <point x="166" y="698" type="line" smooth="yes"/>
      <point x="66" y="402" type="line" smooth="yes"/>
      <point x="63" y="378" type="line" smooth="yes"/>
      <point x="92" y="79" type="line" smooth="yes"/>
      <point x="276" y="-10" type="line" smooth="yes"/>
      <point x="457" y="59" type="line" smooth="yes"/>
      <point x="534" y="241" type="line" smooth="yes"/>
      <point x="535" y="250" type="line" smooth="yes"/>
      <point x="493" y="250" type="line" smooth="yes"/>
      <point x="428" y="85" type="line" smooth="yes"/>
      <point x="279" y="28" type="line" smooth="yes"/>
      <point x="273" y="28" type="line" smooth="yes"/>
      <point x="124" y="108" type="line" smooth="yes"/>
      <point x="105" y="378" type="line" smooth="yes"/>
    </contour>
    <contour>
      <point x="279" y="950" type="line" smooth="yes"/>
      <point x="364" y="840" type="line" smooth="yes"/>
      <point x="394" y="840" type="line" smooth="yes"/>
      <point x="509" y="950" type="line" smooth="yes"/>
      <point x="462" y="950" type="line" smooth="yes"/>
      <point x="381" y="873" type="line" smooth="yes"/>
      <point x="322" y="950" type="line" smooth="yes"/>
    </contour>
  </outline>
</glyph>
<glyph name="Dcaron" format="1">
  <advance width="623"/>
  <unicode hex="010E"/>
  <outline>
    <contour>
      <point x="76" y="38" type="line" smooth="yes"/>
      <point x="168" y="742" type="line" smooth="yes"/>
      <point x="317" y="742" type="line" smooth="yes"/>
      <point x="492" y="664" type="line" smooth="yes"/>
      <point x="528" y="402" type="line" smooth="yes"/>
      <point x="525" y="378" type="line" smooth="yes"/>
      <point x="420" y="116" type="line" smooth="yes"/>
      <point x="221" y="38" type="line" smooth="yes"/>
    </contour>
    <contour>
      <point x="570" y="402" type="line" smooth="yes"/>
      <point x="523" y="692" type="line" smooth="yes"/>
      <point x="320" y="780" type="line" smooth="yes"/>
      <point x="133" y="780" type="line" smooth="yes"/>
      <point x="31" y="0" type="line" smooth="yes"/>
      <point x="221" y="0" type="line" smooth="yes"/>
      <point x="447" y="88" type="line" smooth="yes"/>
      <point x="567" y="378" type="line" smooth="yes"/>
    </contour>
    <contour>
      <point x="246" y="950" type="line" smooth="yes"/>
      <point x="331" y="840" type="line" smooth="yes"/>
      <point x="361" y="840" type="line" smooth="yes"/>
      <point x="476" y="950" type="line" smooth="yes"/>
      <point x="427" y="950" type="line" smooth="yes"/>
      <point x="346" y="873" type="line" smooth="yes"/>
      <point x="287" y="950" type="line" smooth="yes"/>
    </contour>
  </outline>
</glyph>
<glyph name="emacron" format="1">
  <advance width="536"/>
  <unicode hex="0113"/>
  <outline>
    <contour>
      <point x="288" y="502" type="line" smooth="yes"/>
      <point x="411" y="444" type="line" smooth="yes"/>
      <point x="432" y="284" type="line" smooth="yes"/>
      <point x="84" y="284" type="line" smooth="yes"/>
      <point x="149" y="440" type="line" smooth="yes"/>
    </contour>
    <contour>
      <point x="468" y="246" type="line" smooth="yes"/>
      <point x="472" y="278" type="line" smooth="yes"/>
      <point x="446" y="462" type="line" smooth="yes"/>
      <point x="288" y="540" type="line" smooth="yes"/>
      <point x="117" y="466" type="line" smooth="yes"/>
      <point x="41" y="275" type="line" smooth="yes"/>
      <point x="39" y="259" type="line" smooth="yes"/>
      <point x="69" y="70" type="line" smooth="yes"/>
      <point x="244" y="-10" type="line" smooth="yes"/>
      <point x="397" y="45" type="line" smooth="yes"/>
      <point x="457" y="163" type="line" smooth="yes"/>
      <point x="458" y="170" type="line" smooth="yes"/>
      <point x="418" y="170" type="line" smooth="yes"/>
      <point x="373" y="75" type="line" smooth="yes"/>
      <point x="244" y="28" type="line" smooth="yes"/>
      <point x="106" y="88" type="line" smooth="yes"/>
      <point x="80" y="246" type="line" smooth="yes"/>
    </contour>
    <contour>
      <point x="205" y="680" type="line" smooth="yes"/>
      <point x="415" y="680" type="line" smooth="yes"/>
      <point x="420" y="720" type="line" smooth="yes"/>
      <point x="210" y="720" type="line" smooth="yes"/>
    </contour>
  </outline>
</glyph>
<glyph name="ebreve" format="1">
  <advance width="539"/>
  <unicode hex="0115"/>
  <outline>
    <contour>
      <point x="288" y="502" type="line" smooth="yes"/>
      <point x="411" y="444" type="line" smooth="yes"/>
      <point x="432" y="284" type="line" smooth="yes"/>
      <point x="84" y="284" type="line" smooth="yes"/>
      <point x="149" y="440" type="line" smooth="yes"/>
    </contour>
    <contour>
      <point x="468" y="246" type="line" smooth="yes"/>
      <point x="472" y="278" type="line" smooth="yes"/>
      <point x="446" y="462" type="line" smooth="yes"/>
      <point x="288" y="540" type="line" smooth="yes"/>
      <point x="117" y="466" type="line" smooth="yes"/>
      <point x="41" y="275" type="line" smooth="yes"/>
      <point x="39" y="259" type="line" smooth="yes"/>
      <point x="69" y="70" type="line" smooth="yes"/>
      <point x="244" y="-10" type="line" smooth="yes"/>
      <point x="397" y="45" type="line" smooth="yes"/>
      <point x="457" y="163" type="line" smooth="yes"/>
      <point x="458" y="170" type="line" smooth="yes"/>
      <point x="418" y="170" type="line" smooth="yes"/>
      <point x="373" y="75" type="line" smooth="yes"/>
      <point x="244" y="28" type="line" smooth="yes"/>
      <point x="106" y="88" type="line" smooth="yes"/>
      <point x="80" y="246" type="line" smooth="yes"/>
    </contour>
    <contour>
      <point x="303" y="610" type="line" smooth="yes"/>
      <point x="424" y="658" type="line" smooth="yes"/>
      <point x="475" y="780" type="line" smooth="yes"/>
      <point x="439" y="780" type="line" smooth="yes"/>
      <point x="400" y="682" type="line" smooth="yes"/>
      <point x="305" y="643" type="line" smooth="yes"/>
      <point x="220" y="682" type="line" smooth="yes"/>
      <point x="207" y="780" type="line" smooth="yes"/>
      <point x="171" y="780" type="line" smooth="yes"/>
      <point x="193" y="658" type="line" smooth="yes"/>
    </contour>
  </outline>
</glyph>
<glyph name="Edotaccent" format="1">
  <advance width="540"/>
  <unicode hex="0116"/>
  <outline>
    <contour>
      <point x="402" y="925" type="line" smooth="yes"/>
      <point x="342" y="925" type="line" smooth="yes"/>
      <point x="334" y="865" type="line" smooth="yes"/>
      <point x="394" y="865" type="line" smooth="yes"/>
    </contour>
    <contour>
      <point x="133" y="780" type="line" smooth="yes"/>
      <point x="31" y="0" type="line" smooth="yes"/>
      <point x="451" y="0" type="line" smooth="yes"/>
      <point x="456" y="38" type="line" smooth="yes"/>
      <point x="76" y="38" type="line" smooth="yes"/>
      <point x="120" y="379" type="line" smooth="yes"/>
      <point x="450" y="379" type="line" smooth="yes"/>
      <point x="455" y="417" type="line" smooth="yes"/>
      <point x="125" y="417" type="line" smooth="yes"/>
      <point x="168" y="742" type="line" smooth="yes"/>
      <point x="548" y="742" type="line" smooth="yes"/>
      <point x="553" y="780" type="line" smooth="yes"/>
    </contour>
  </outline>
</glyph>
<glyph name="Eogonek" format="1">
  <advance width="540"/>
  <unicode hex="0118"/>
  <outline>
    <contour>
      <point x="133" y="780" type="line" smooth="yes"/>
      <point x="31" y="0" type="line" smooth="yes"/>
      <point x="388" y="0" type="line" smooth="yes"/>
      <point x="331" y="-53" type="line" smooth="yes"/>
      <point x="307" y="-131" type="line" smooth="yes"/>
      <point x="332" y="-190" type="line" smooth="yes"/>
      <point x="400" y="-210" type="line" smooth="yes"/>
      <point x="440" y="-205" type="line" smooth="yes"/>
      <point x="478" y="-191" type="line" smooth="yes"/>
      <point x="470" y="-163" type="line" smooth="yes"/>
      <point x="440" y="-173" type="line" smooth="yes"/>
      <point x="407" y="-177" type="line" smooth="yes"/>
      <point x="359" y="-164" type="line" smooth="yes"/>
      <point x="341" y="-127" type="line" smooth="yes"/>
      <point x="378" y="-47" type="line" smooth="yes"/>
      <point x="451" y="0" type="line" smooth="yes"/>
      <point x="456" y="38" type="line" smooth="yes"/>
      <point x="76" y="38" type="line" smooth="yes"/>
      <point x="120" y="379" type="line" smooth="yes"/>
      <point x="450" y="379" type="line" smooth="yes"/>
      <point x="455" y="417" type="line" smooth="yes"/>
      <point x="125" y="417" type="line" smooth="yes"/>
      <point x="168" y="742" type="line" smooth="yes"/>
      <point x="548" y="742" type="line" smooth="yes"/>
      <point x="553" y="780" type="line" smooth="yes"/>
    </contour>
  </outline>
</glyph>
<glyph name="eogonek" format="1">
  <advance width="536"/>
  <unicode hex="0119"/>
  <outline>
    <contour>
      <point x="288" y="502" type="line" smooth="yes"/>
      <point x="411" y="444" type="line" smooth="yes"/>
      <point x="432" y="284" type="line" smooth="yes"/>
      <point x="84" y="284" type="line" smooth="yes"/>
      <point x="149" y="440" type="line" smooth="yes"/>
    </contour>
    <contour>
      <point x="468" y="246" type="line" smooth="yes"/>
      <point x="472" y="278" type="line" smooth="yes"/>
      <point x="446" y="462" type="line" smooth="yes"/>
      <point x="288" y="540" type="line" smooth="yes"/>
      <point x="117" y="466" type="line" smooth="yes"/>
      <point x="41" y="275" type="line" smooth="yes"/>
      <point x="39" y="259" type="line" smooth="yes"/>
      <point x="68" y="71" type="line" smooth="yes"/>
      <point x="240" y="-10" type="line" smooth="yes"/>
      <point x="192" y="-61" type="line" smooth="yes"/>
      <point x="173" y="-131" type="line" smooth="yes"/>
      <point x="198" y="-190" type="line" smooth="yes"/>
      <point x="266" y="-210" type="line" smooth="yes"/>
      <point x="306" y="-205" type="line" smooth="yes"/>
      <point x="344" y="-191" type="line" smooth="yes"/>
      <point x="336" y="-163" type="line" smooth="yes"/>
      <point x="306" y="-173" type="line" smooth="yes"/>
      <point x="273" y="-177" type="line" smooth="yes"/>
      <point x="225" y="-164" type="line" smooth="yes"/>
      <point x="207" y="-127" type="line" smooth="yes"/>
      <point x="244" y="-47" type="line" smooth="yes"/>
      <point x="317" y="0" type="line" smooth="yes"/>
      <point x="416" y="66" type="line" smooth="yes"/>
      <point x="457" y="163" type="line" smooth="yes"/>
      <point x="458" y="170" type="line" smooth="yes"/>
      <point x="418" y="170" type="line" smooth="yes"/>
      <point x="373" y="75" type="line" smooth="yes"/>
      <point x="244" y="28" type="line" smooth="yes"/>
      <point x="106" y="88" type="line" smooth="yes"/>
      <point x="80" y="246" type="line" smooth="yes"/>
    </contour>
  </outline>
</glyph>
<glyph name="Gdotaccent" format="1">
  <advance width="632"/>
  <unicode hex="0120"/>
  <outline>
    <contour>
      <point x="285" y="-10" type="line" smooth="yes"/>
      <point x="435" y="19" type="line" smooth="yes"/>
      <point x="523" y="79" type="line" smooth="yes"/>
      <point x="561" y="371" type="line" smooth="yes"/>
      <point x="376" y="371" type="line" smooth="yes"/>
      <point x="371" y="333" type="line" smooth="yes"/>
      <point x="516" y="333" type="line" smooth="yes"/>
      <point x="486" y="99" type="line" smooth="yes"/>
      <point x="410" y="50" type="line" smooth="yes"/>
      <point x="288" y="28" type="line" smooth="yes"/>
      <point x="282" y="28" type="line" smooth="yes"/>
      <point x="128" y="108" type="line" smooth="yes"/>
      <point x="104" y="378" type="line" smooth="yes"/>
      <point x="107" y="402" type="line" smooth="yes"/>
      <point x="196" y="670" type="line" smooth="yes"/>
      <point x="368" y="752" type="line" smooth="yes"/>
      <point x="374" y="752" type="line" smooth="yes"/>
      <point x="514" y="694" type="line" smooth="yes"/>
      <point x="535" y="500" type="line" smooth="yes"/>
      <point x="577" y="500" type="line" smooth="yes"/>
      <point x="580" y="519" type="line" smooth="yes"/>
      <point x="548" y="718" type="line" smooth="yes"/>
      <point x="371" y="790" type="line" smooth="yes"/>
      <point x="167" y="698" type="line" smooth="yes"/>
      <point x="65" y="402" type="line" smooth="yes"/>
      <point x="62" y="378" type="line" smooth="yes"/>
      <point x="96" y="79" type="line" smooth="yes"/>
    </contour>
    <contour>
      <point x="426" y="925" type="line" smooth="yes"/>
      <point x="366" y="925" type="line" smooth="yes"/>
      <point x="358" y="865" type="line" smooth="yes"/>
      <point x="418" y="865" type="line" smooth="yes"/>
    </contour>
  </outline>
</glyph>
<glyph name="Gcommaaccent" format="1">
  <advance width="632"/>
  <unicode hex="0122"/>
  <outline>
    <contour>
      <point x="285" y="-10" type="line" smooth="yes"/>
      <point x="435" y="19" type="line" smooth="yes"/>
      <point x="523" y="79" type="line" smooth="yes"/>
      <point x="561" y="371" type="line" smooth="yes"/>
      <point x="376" y="371" type="line" smooth="yes"/>
      <point x="371" y="333" type="line" smooth="yes"/>
      <point x="516" y="333" type="line" smooth="yes"/>
      <point x="486" y="99" type="line" smooth="yes"/>
      <point x="410" y="50" type="line" smooth="yes"/>
      <point x="288" y="28" type="line" smooth="yes"/>
      <point x="282" y="28" type="line" smooth="yes"/>
      <point x="128" y="108" type="line" smooth="yes"/>
      <point x="104" y="378" type="line" smooth="yes"/>
      <point x="107" y="402" type="line" smooth="yes"/>
      <point x="196" y="670" type="line" smooth="yes"/>
      <point x="368" y="752" type="line" smooth="yes"/>
      <point x="374" y="752" type="line" smooth="yes"/>
      <point x="514" y="694" type="line" smooth="yes"/>
      <point x="535" y="500" type="line" smooth="yes"/>
      <point x="577" y="500" type="line" smooth="yes"/>
      <point x="580" y="519" type="line" smooth="yes"/>
      <point x="548" y="718" type="line" smooth="yes"/>
      <point x="371" y="790" type="line" smooth="yes"/>
      <point x="167" y="698" type="line" smooth="yes"/>
      <point x="65" y="402" type="line" smooth="yes"/>
      <point x="62" y="378" type="line" smooth="yes"/>
      <point x="96" y="79" type="line" smooth="yes"/>
    </contour>
    <contour>
      <point x="307" y="-60" type="line" smooth="yes"/>
      <point x="247" y="-60" type="line" smooth="yes"/>
      <point x="239" y="-120" type="line" smooth="yes"/>
      <point x="269" y="-120" type="line" smooth="yes"/>
      <point x="244" y="-166" type="line" smooth="yes"/>
      <point x="201" y="-180" type="line" smooth="yes"/>
      <point x="197" y="-210" type="line" smooth="yes"/>
      <point x="266" y="-182" type="line" smooth="yes"/>
      <point x="300" y="-108" type="line" smooth="yes"/>
    </contour>
  </outline>
</glyph>
<glyph name="gcommaaccent" format="1">
  <advance width="525"/>
  <unicode hex="0123"/>
  <outline>
    <contour>
      <point x="386" y="154" type="line" smooth="yes"/>
      <point x="322" y="93" type="line" smooth="yes"/>
      <point x="227" y="68" type="line" smooth="yes"/>
      <point x="106" y="126" type="line" smooth="yes"/>
      <point x="84" y="282" type="line" smooth="yes"/>
      <point x="86" y="298" type="line" smooth="yes"/>
      <point x="146" y="449" type="line" smooth="yes"/>
      <point x="278" y="502" type="line" smooth="yes"/>
      <point x="371" y="470" type="line" smooth="yes"/>
      <point x="419" y="404" type="line" smooth="yes"/>
    </contour>
    <contour>
      <point x="365" y="-5" type="line" smooth="yes"/>
      <point x="319" y="-128" type="line" smooth="yes"/>
      <point x="192" y="-172" type="line" smooth="yes"/>
      <point x="78" y="-130" type="line" smooth="yes"/>
      <point x="53" y="0" type="line" smooth="yes"/>
      <point x="16" y="0" type="line" smooth="yes"/>
      <point x="14" y="-15" type="line" smooth="yes"/>
      <point x="43" y="-154" type="line" smooth="yes"/>
      <point x="192" y="-210" type="line" smooth="yes"/>
      <point x="347" y="-151" type="line" smooth="yes"/>
      <point x="404" y="-10" type="line" smooth="yes"/>
      <point x="456" y="380" type="line" smooth="yes"/>
      <point x="480" y="530" type="line" smooth="yes"/>
      <point x="450" y="530" type="line" smooth="yes"/>
      <point x="431" y="449" type="line" smooth="yes"/>
      <point x="379" y="509" type="line" smooth="yes"/>
      <point x="278" y="540" type="line" smooth="yes"/>
      <point x="113" y="472" type="line" smooth="yes"/>
      <point x="44" y="295" type="line" smooth="yes"/>
      <point x="42" y="279" type="line" smooth="yes"/>
      <point x="70" y="104" type="line" smooth="yes"/>
      <point x="227" y="30" type="line" smooth="yes"/>
      <point x="316" y="50" type="line" smooth="yes"/>
      <point x="378" y="100" type="line" smooth="yes"/>
    </contour>
    <contour>
      <point x="262" y="620" type="line" smooth="yes"/>
      <point x="322" y="620" type="line" smooth="yes"/>
      <point x="330" y="680" type="line" smooth="yes"/>
      <point x="300" y="680" type="line" smooth="yes"/>
      <point x="325" y="743" type="line" smooth="yes"/>
      <point x="371" y="760" type="line" smooth="yes"/>
      <point x="375" y="790" type="line" smooth="yes"/>
      <point x="303" y="760" type="line" smooth="yes"/>
      <point x="268" y="668" type="line" smooth="yes"/>
    </contour>
  </outline>
</glyph>
<glyph name="hcircumflex" format="1">
  <advance width="508"/>
  <unicode hex="0125"/>
  <outline>
    <contour>
      <point x="166" y="800" type="line" smooth="yes"/>
      <point x="126" y="800" type="line" smooth="yes"/>
      <point x="21" y="0" type="line" smooth="yes"/>
      <point x="61" y="0" type="line" smooth="yes"/>
      <point x="114" y="410" type="line" smooth="yes"/>
      <point x="177" y="471" type="line" smooth="yes"/>
      <point x="285" y="502" type="line" smooth="yes"/>
      <point x="380" y="472" type="line" smooth="yes"/>
      <point x="404" y="370" type="line" smooth="yes"/>
      <point x="356" y="0" type="line" smooth="yes"/>
      <point x="396" y="0" type="line" smooth="yes"/>
      <point x="445" y="375" type="line" smooth="yes"/>
      <point x="415" y="496" type="line" smooth="yes"/>
      <point x="290" y="540" type="line" smooth="yes"/>
      <point x="189" y="516" type="line" smooth="yes"/>
      <point x="121" y="460" type="line" smooth="yes"/>
    </contour>
    <contour>
      <point x="83" y="840" type="line" smooth="yes"/>
      <point x="163" y="917" type="line" smooth="yes"/>
      <point x="223" y="840" type="line" smooth="yes"/>
      <point x="266" y="840" type="line" smooth="yes"/>
      <point x="181" y="950" type="line" smooth="yes"/>
      <point x="151" y="950" type="line" smooth="yes"/>
      <point x="36" y="840" type="line" smooth="yes"/>
    </contour>
  </outline>
</glyph>
<glyph name="hbar" format="1">
  <advance width="508"/>
  <unicode hex="0127"/>
  <outline>
    <contour>
      <point x="166" y="800" type="line" smooth="yes"/>
      <point x="126" y="800" type="line" smooth="yes"/>
      <point x="111" y="684" type="line" smooth="yes"/>
      <point x="11" y="684" type="line" smooth="yes"/>
      <point x="6" y="646" type="line" smooth="yes"/>
      <point x="106" y="646" type="line" smooth="yes"/>
      <point x="21" y="0" type="line" smooth="yes"/>
      <point x="61" y="0" type="line" smooth="yes"/>
      <point x="114" y="410" type="line" smooth="yes"/>
      <point x="177" y="471" type="line" smooth="yes"/>
      <point x="285" y="502" type="line" smooth="yes"/>
      <point x="380" y="472" type="line" smooth="yes"/>
      <point x="404" y="370" type="line" smooth="yes"/>
      <point x="356" y="0" type="line" smooth="yes"/>
      <point x="396" y="0" type="line" smooth="yes"/>
      <point x="445" y="375" type="line" smooth="yes"/>
      <point x="415" y="496" type="line" smooth="yes"/>
      <point x="290" y="540" type="line" smooth="yes"/>
      <point x="189" y="516" type="line" smooth="yes"/>
      <point x="121" y="460" type="line" smooth="yes"/>
      <point x="145" y="646" type="line" smooth="yes"/>
      <point x="286" y="646" type="line" smooth="yes"/>
      <point x="291" y="684" type="line" smooth="yes"/>
      <point x="150" y="684" type="line" smooth="yes"/>
    </contour>
  </outline>
</glyph>
<glyph name="Itilde" format="1">
  <advance width="210"/>
  <unicode hex="0128"/>
  <outline>
    <contour>
      <point x="282" y="932" type="line" smooth="yes"/>
      <point x="267" y="893" type="line" smooth="yes"/>
      <point x="236" y="881" type="line" smooth="yes"/>
      <point x="181" y="912" type="line" smooth="yes"/>
      <point x="112" y="942" type="line" smooth="yes"/>
      <point x="57" y="921" type="line" smooth="yes"/>
      <point x="28" y="858" type="line" smooth="yes"/>
      <point x="64" y="858" type="line" smooth="yes"/>
      <point x="80" y="897" type="line" smooth="yes"/>
      <point x="110" y="909" type="line" smooth="yes"/>
      <point x="166" y="879" type="line" smooth="yes"/>
      <point x="235" y="848" type="line" smooth="yes"/>
      <point x="290" y="869" type="line" smooth="yes"/>
      <point x="318" y="932" type="line" smooth="yes"/>
    </contour>
    <contour>
      <point x="178" y="780" type="line" smooth="yes"/>
      <point x="138" y="780" type="line" smooth="yes"/>
      <point x="36" y="0" type="line" smooth="yes"/>
      <point x="76" y="0" type="line" smooth="yes"/>
    </contour>
  </outline>
</glyph>
<glyph name="itilde" format="1">
  <advance width="200"/>
  <unicode hex="0129"/>
  <outline>
    <contour>
      <point x="253" y="737" type="line" smooth="yes"/>
      <point x="237" y="698" type="line" smooth="yes"/>
      <point x="209" y="687" type="line" smooth="yes"/>
      <point x="150" y="717" type="line" smooth="yes"/>
      <point x="79" y="747" type="line" smooth="yes"/>
      <point x="25" y="726" type="line" smooth="yes"/>
      <point x="-2" y="663" type="line" smooth="yes"/>
      <point x="33" y="663" type="line" smooth="yes"/>
      <point x="49" y="702" type="line" smooth="yes"/>
      <point x="76" y="713" type="line" smooth="yes"/>
      <point x="135" y="683" type="line" smooth="yes"/>
      <point x="206" y="653" type="line" smooth="yes"/>
      <point x="260" y="674" type="line" smooth="yes"/>
      <point x="288" y="737" type="line" smooth="yes"/>
    </contour>
    <contour>
      <point x="31" y="0" type="line" smooth="yes"/>
      <point x="71" y="0" type="line" smooth="yes"/>
      <point x="140" y="530" type="line" smooth="yes"/>
      <point x="100" y="530" type="line" smooth="yes"/>
    </contour>
  </outline>
</glyph>
<glyph name="Ibreve" format="1">
  <advance width="210"/>
  <unicode hex="012C"/>
  <outline>
    <contour>
      <point x="167" y="830" type="line" smooth="yes"/>
      <point x="268" y="864" type="line" smooth="yes"/>
      <point x="313" y="950" type="line" smooth="yes"/>
      <point x="277" y="950" type="line" smooth="yes"/>
      <point x="245" y="888" type="line" smooth="yes"/>
      <point x="169" y="863" type="line" smooth="yes"/>
      <point x="100" y="888" type="line" smooth="yes"/>
      <point x="85" y="950" type="line" smooth="yes"/>
      <point x="49" y="950" type="line" smooth="yes"/>
      <point x="73" y="864" type="line" smooth="yes"/>
    </contour>
    <contour>
      <point x="178" y="780" type="line" smooth="yes"/>
      <point x="138" y="780" type="line" smooth="yes"/>
      <point x="36" y="0" type="line" smooth="yes"/>
      <point x="76" y="0" type="line" smooth="yes"/>
    </contour>
  </outline>
</glyph>
<glyph name="ibreve" format="1">
  <advance width="200"/>
  <unicode hex="012D"/>
  <outline>
    <contour>
      <point x="133" y="610" type="line" smooth="yes"/>
      <point x="254" y="658" type="line" smooth="yes"/>
      <point x="305" y="780" type="line" smooth="yes"/>
      <point x="269" y="780" type="line" smooth="yes"/>
      <point x="230" y="682" type="line" smooth="yes"/>
      <point x="135" y="643" type="line" smooth="yes"/>
      <point x="50" y="682" type="line" smooth="yes"/>
      <point x="37" y="780" type="line" smooth="yes"/>
      <point x="1" y="780" type="line" smooth="yes"/>
      <point x="23" y="658" type="line" smooth="yes"/>
    </contour>
    <contour>
      <point x="31" y="0" type="line" smooth="yes"/>
      <point x="71" y="0" type="line" smooth="yes"/>
      <point x="140" y="530" type="line" smooth="yes"/>
      <point x="100" y="530" type="line" smooth="yes"/>
    </contour>
  </outline>
</glyph>
<glyph name="Iogonek" format="1">
  <advance width="210"/>
  <unicode hex="012E"/>
  <outline>
    <contour>
      <point x="178" y="780" type="line" smooth="yes"/>
      <point x="138" y="780" type="line" smooth="yes"/>
      <point x="38" y="14" type="line" smooth="yes"/>
      <point x="-36" y="-42" type="line" smooth="yes"/>
      <point x="-68" y="-131" type="line" smooth="yes"/>
      <point x="-43" y="-190" type="line" smooth="yes"/>
      <point x="25" y="-210" type="line" smooth="yes"/>
      <point x="65" y="-205" type="line" smooth="yes"/>
      <point x="103" y="-191" type="line" smooth="yes"/>
      <point x="95" y="-163" type="line" smooth="yes"/>
      <point x="65" y="-173" type="line" smooth="yes"/>
      <point x="32" y="-177" type="line" smooth="yes"/>
      <point x="-16" y="-164" type="line" smooth="yes"/>
      <point x="-34" y="-127" type="line" smooth="yes"/>
      <point x="3" y="-47" type="line" smooth="yes"/>
      <point x="76" y="0" type="line" smooth="yes"/>
    </contour>
  </outline>
</glyph>
<glyph name="iogonek" format="1">
  <advance width="200"/>
  <unicode hex="012F"/>
  <outline>
    <contour>
      <point x="71" y="0" type="line" smooth="yes"/>
      <point x="140" y="530" type="line" smooth="yes"/>
      <point x="100" y="530" type="line" smooth="yes"/>
      <point x="33" y="14" type="line" smooth="yes"/>
      <point x="-41" y="-42" type="line" smooth="yes"/>
      <point x="-73" y="-131" type="line" smooth="yes"/>
      <point x="-48" y="-190" type="line" smooth="yes"/>
      <point x="20" y="-210" type="line" smooth="yes"/>
      <point x="60" y="-205" type="line" smooth="yes"/>
      <point x="98" y="-191" type="line" smooth="yes"/>
      <point x="90" y="-163" type="line" smooth="yes"/>
      <point x="60" y="-173" type="line" smooth="yes"/>
      <point x="27" y="-177" type="line" smooth="yes"/>
      <point x="-21" y="-164" type="line" smooth="yes"/>
      <point x="-39" y="-127" type="line" smooth="yes"/>
      <point x="-2" y="-47" type="line" smooth="yes"/>
    </contour>
    <contour>
      <point x="177" y="735" type="line" smooth="yes"/>
      <point x="117" y="735" type="line" smooth="yes"/>
      <point x="109" y="675" type="line" smooth="yes"/>
      <point x="169" y="675" type="line" smooth="yes"/>
    </contour>
  </outline>
</glyph>
<glyph name="dotlessi" format="1">
  <advance width="200"/>
  <unicode hex="0131"/>
  <outline>
    <contour>
      <point x="31" y="0" type="line" smooth="yes"/>
      <point x="71" y="0" type="line" smooth="yes"/>
      <point x="140" y="530" type="line" smooth="yes"/>
      <point x="100" y="530" type="line" smooth="yes"/>
    </contour>
  </outline>
</glyph>
<glyph name="IJ" format="1">
  <advance width="460"/>
  <unicode hex="0132"/>
  <outline>
    <contour>
      <point x="178" y="780" type="line" smooth="yes"/>
      <point x="138" y="780" type="line" smooth="yes"/>
      <point x="36" y="0" type="line" smooth="yes"/>
      <point x="76" y="0" type="line" smooth="yes"/>
    </contour>
    <contour>
      <point x="313" y="133" type="line" smooth="yes"/>
      <point x="278" y="51" type="line" smooth="yes"/>
      <point x="207" y="28" type="line" smooth="yes"/>
      <point x="168" y="32" type="line" smooth="yes"/>
      <point x="141" y="39" type="line" smooth="yes"/>
      <point x="136" y="2" type="line" smooth="yes"/>
      <point x="159" y="-6" type="line" smooth="yes"/>
      <point x="207" y="-10" type="line" smooth="yes"/>
      <point x="303" y="22" type="line" smooth="yes"/>
      <point x="353" y="128" type="line" smooth="yes"/>
      <point x="438" y="780" type="line" smooth="yes"/>
      <point x="398" y="780" type="line" smooth="yes"/>
    </contour>
  </outline>
</glyph>
<glyph name="jcircumflex" format="1">
  <advance width="200"/>
  <unicode hex="0135"/>
  <outline>
    <contour>
      <point x="22" y="-67" type="line" smooth="yes"/>
      <point x="-17" y="-150" type="line" smooth="yes"/>
      <point x="-97" y="-172" type="line" smooth="yes"/>
      <point x="-134" y="-169" type="line" smooth="yes"/>
      <point x="-160" y="-163" type="line" smooth="yes"/>
      <point x="-165" y="-199" type="line" smooth="yes"/>
      <point x="-141" y="-206" type="line" smooth="yes"/>
      <point x="-97" y="-210" type="line" smooth="yes"/>
      <point x="9" y="-180" type="line" smooth="yes"/>
      <point x="60" y="-79" type="line" smooth="yes"/>
      <point x="140" y="530" type="line" smooth="yes"/>
      <point x="100" y="530" type="line" smooth="yes"/>
    </contour>
    <contour>
      <point x="34" y="620" type="line" smooth="yes"/>
      <point x="150" y="744" type="line" smooth="yes"/>
      <point x="234" y="620" type="line" smooth="yes"/>
      <point x="277" y="620" type="line" smooth="yes"/>
      <point x="168" y="780" type="line" smooth="yes"/>
      <point x="138" y="780" type="line" smooth="yes"/>
      <point x="-13" y="620" type="line" smooth="yes"/>
    </contour>
  </outline>
</glyph>
<glyph name="Lcommaaccent" format="1">
  <advance width="480"/>
  <unicode hex="013B"/>
  <outline>
    <contour>
      <point x="248" y="-60" type="line" smooth="yes"/>
      <point x="188" y="-60" type="line" smooth="yes"/>
      <point x="180" y="-120" type="line" smooth="yes"/>
      <point x="210" y="-120" type="line" smooth="yes"/>
      <point x="185" y="-166" type="line" smooth="yes"/>
      <point x="142" y="-180" type="line" smooth="yes"/>
      <point x="138" y="-210" type="line" smooth="yes"/>
      <point x="207" y="-182" type="line" smooth="yes"/>
      <point x="241" y="-108" type="line" smooth="yes"/>
    </contour>
    <contour>
      <point x="416" y="0" type="line" smooth="yes"/>
      <point x="421" y="38" type="line" smooth="yes"/>
      <point x="76" y="38" type="line" smooth="yes"/>
      <point x="173" y="780" type="line" smooth="yes"/>
      <point x="133" y="780" type="line" smooth="yes"/>
      <point x="31" y="0" type="line" smooth="yes"/>
    </contour>
  </outline>
</glyph>
<glyph name="lcaron" format="1">
  <advance width="200"/>
  <unicode hex="013E"/>
  <outline>
    <contour>
      <point x="256" y="800" type="line" smooth="yes"/>
      <point x="232" y="620" type="line" smooth="yes"/>
      <point x="262" y="620" type="line" smooth="yes"/>
      <point x="301" y="800" type="line" smooth="yes"/>
    </contour>
    <contour>
      <point x="31" y="0" type="line" smooth="yes"/>
      <point x="71" y="0" type="line" smooth="yes"/>
      <point x="176" y="800" type="line" smooth="yes"/>
      <point x="136" y="800" type="line" smooth="yes"/>
    </contour>
  </outline>
</glyph>
<glyph name="nacute" format="1">
  <advance width="508"/>
  <unicode hex="0144"/>
  <outline>
    <contour>
      <point x="396" y="0" type="line" smooth="yes"/>
      <point x="445" y="375" type="line" smooth="yes"/>
      <point x="415" y="496" type="line" smooth="yes"/>
      <point x="290" y="540" type="line" smooth="yes"/>
      <point x="187" y="515" type="line" smooth="yes"/>
      <point x="114" y="452" type="line" smooth="yes"/>
      <point x="115" y="530" type="line" smooth="yes"/>
      <point x="85" y="530" type="line" smooth="yes"/>
      <point x="71" y="380" type="line" smooth="yes"/>
      <point x="21" y="0" type="line" smooth="yes"/>
      <point x="61" y="0" type="line" smooth="yes"/>
      <point x="114" y="410" type="line" smooth="yes"/>
      <point x="177" y="471" type="line" smooth="yes"/>
      <point x="285" y="502" type="line" smooth="yes"/>
      <point x="380" y="472" type="line" smooth="yes"/>
      <point x="404" y="370" type="line" smooth="yes"/>
      <point x="356" y="0" type="line" smooth="yes"/>
    </contour>
    <contour>
      <point x="380" y="780" type="line" smooth="yes"/>
      <point x="269" y="620" type="line" smooth="yes"/>
      <point x="311" y="620" type="line" smooth="yes"/>
      <point x="422" y="780" type="line" smooth="yes"/>
    </contour>
  </outline>
</glyph>
<glyph name="ncommaaccent" format="1">
  <advance width="508"/>
  <unicode hex="0146"/>
  <outline>
    <contour>
      <point x="396" y="0" type="line" smooth="yes"/>
      <point x="445" y="375" type="line" smooth="yes"/>
      <point x="415" y="496" type="line" smooth="yes"/>
      <point x="290" y="540" type="line" smooth="yes"/>
      <point x="187" y="515" type="line" smooth="yes"/>
      <point x="114" y="452" type="line" smooth="yes"/>
      <point x="115" y="530" type="line" smooth="yes"/>
      <point x="85" y="530" type="line" smooth="yes"/>
      <point x="71" y="380" type="line" smooth="yes"/>
      <point x="21" y="0" type="line" smooth="yes"/>
      <point x="61" y="0" type="line" smooth="yes"/>
      <point x="114" y="410" type="line" smooth="yes"/>
      <point x="177" y="471" type="line" smooth="yes"/>
      <point x="285" y="502" type="line" smooth="yes"/>
      <point x="380" y="472" type="line" smooth="yes"/>
      <point x="404" y="370" type="line" smooth="yes"/>
      <point x="356" y="0" type="line" smooth="yes"/>
    </contour>
    <contour>
      <point x="231" y="-60" type="line" smooth="yes"/>
      <point x="171" y="-60" type="line" smooth="yes"/>
      <point x="163" y="-120" type="line" smooth="yes"/>
      <point x="193" y="-120" type="line" smooth="yes"/>
      <point x="168" y="-166" type="line" smooth="yes"/>
      <point x="125" y="-180" type="line" smooth="yes"/>
      <point x="121" y="-210" type="line" smooth="yes"/>
      <point x="190" y="-182" type="line" smooth="yes"/>
      <point x="224" y="-108" type="line" smooth="yes"/>
    </contour>
  </outline>
</glyph>
<glyph name="ncaron" format="1">
  <advance width="510"/>
  <unicode hex="0148"/>
  <outline>
    <contour>
      <point x="396" y="0" type="line" smooth="yes"/>
      <point x="445" y="375" type="line" smooth="yes"/>
      <point x="415" y="496" type="line" smooth="yes"/>
      <point x="290" y="540" type="line" smooth="yes"/>
      <point x="187" y="515" type="line" smooth="yes"/>
      <point x="114" y="452" type="line" smooth="yes"/>
      <point x="115" y="530" type="line" smooth="yes"/>
      <point x="85" y="530" type="line" smooth="yes"/>
      <point x="71" y="380" type="line" smooth="yes"/>
      <point x="21" y="0" type="line" smooth="yes"/>
      <point x="61" y="0" type="line" smooth="yes"/>
      <point x="114" y="410" type="line" smooth="yes"/>
      <point x="177" y="471" type="line" smooth="yes"/>
      <point x="285" y="502" type="line" smooth="yes"/>
      <point x="380" y="472" type="line" smooth="yes"/>
      <point x="404" y="370" type="line" smooth="yes"/>
      <point x="356" y="0" type="line" smooth="yes"/>
    </contour>
    <contour>
      <point x="166" y="780" type="line" smooth="yes"/>
      <point x="275" y="620" type="line" smooth="yes"/>
      <point x="305" y="620" type="line" smooth="yes"/>
      <point x="456" y="780" type="line" smooth="yes"/>
      <point x="409" y="780" type="line" smooth="yes"/>
      <point x="293" y="656" type="line" smooth="yes"/>
      <point x="209" y="780" type="line" smooth="yes"/>
    </contour>
  </outline>
</glyph>
<glyph name="eng" format="1">
  <advance width="508"/>
  <unicode hex="014B"/>
  <outline>
    <contour>
      <point x="445" y="375" type="line" smooth="yes"/>
      <point x="415" y="496" type="line" smooth="yes"/>
      <point x="290" y="540" type="line" smooth="yes"/>
      <point x="187" y="515" type="line" smooth="yes"/>
      <point x="114" y="452" type="line" smooth="yes"/>
      <point x="115" y="530" type="line" smooth="yes"/>
      <point x="85" y="530" type="line" smooth="yes"/>
      <point x="71" y="380" type="line" smooth="yes"/>
      <point x="21" y="0" type="line" smooth="yes"/>
      <point x="61" y="0" type="line" smooth="yes"/>
      <point x="114" y="410" type="line" smooth="yes"/>
      <point x="177" y="471" type="line" smooth="yes"/>
      <point x="285" y="502" type="line" smooth="yes"/>
      <point x="380" y="472" type="line" smooth="yes"/>
      <point x="404" y="370" type="line" smooth="yes"/>
      <point x="347" y="-67" type="line" smooth="yes"/>
      <point x="309" y="-150" type="line" smooth="yes"/>
      <point x="228" y="-172" type="line" smooth="yes"/>
      <point x="191" y="-169" type="line" smooth="yes"/>
      <point x="165" y="-163" type="line" smooth="yes"/>
      <point x="160" y="-199" type="line" smooth="yes"/>
      <point x="184" y="-206" type="line" smooth="yes"/>
      <point x="228" y="-210" type="line" smooth="yes"/>
      <point x="334" y="-180" type="line" smooth="yes"/>
      <point x="385" y="-79" type="line" smooth="yes"/>
    </contour>
  </outline>
</glyph>
<glyph name="Omacron" format="1">
  <advance width="631"/>
  <unicode hex="014C"/>
  <outline>
    <contour>
      <point x="535" y="378" type="line" smooth="yes"/>
      <point x="449" y="110" type="line" smooth="yes"/>
      <point x="279" y="28" type="line" smooth="yes"/>
      <point x="273" y="28" type="line" smooth="yes"/>
      <point x="124" y="108" type="line" smooth="yes"/>
      <point x="105" y="378" type="line" smooth="yes"/>
      <point x="108" y="402" type="line" smooth="yes"/>
      <point x="194" y="670" type="line" smooth="yes"/>
      <point x="364" y="752" type="line" smooth="yes"/>
      <point x="370" y="752" type="line" smooth="yes"/>
      <point x="519" y="672" type="line" smooth="yes"/>
      <point x="538" y="402" type="line" smooth="yes"/>
    </contour>
    <contour>
      <point x="580" y="402" type="line" smooth="yes"/>
      <point x="551" y="701" type="line" smooth="yes"/>
      <point x="367" y="790" type="line" smooth="yes"/>
      <point x="166" y="698" type="line" smooth="yes"/>
      <point x="66" y="402" type="line" smooth="yes"/>
      <point x="63" y="378" type="line" smooth="yes"/>
      <point x="92" y="79" type="line" smooth="yes"/>
      <point x="276" y="-10" type="line" smooth="yes"/>
      <point x="478" y="82" type="line" smooth="yes"/>
      <point x="577" y="378" type="line" smooth="yes"/>
    </contour>
    <contour>
      <point x="286" y="875" type="line" smooth="yes"/>
      <point x="486" y="875" type="line" smooth="yes"/>
      <point x="491" y="915" type="line" smooth="yes"/>
      <point x="291" y="915" type="line" smooth="yes"/>
    </contour>
  </outline>
</glyph>
<glyph name="Obreve" format="1">
  <advance width="631"/>
  <unicode hex="014E"/>
  <outline>
    <contour>
      <point x="535" y="378" type="line" smooth="yes"/>
      <point x="449" y="110" type="line" smooth="yes"/>
      <point x="279" y="28" type="line" smooth="yes"/>
      <point x="273" y="28" type="line" smooth="yes"/>
      <point x="124" y="108" type="line" smooth="yes"/>
      <point x="105" y="378" type="line" smooth="yes"/>
      <point x="108" y="402" type="line" smooth="yes"/>
      <point x="194" y="670" type="line" smooth="yes"/>
      <point x="364" y="752" type="line" smooth="yes"/>
      <point x="370" y="752" type="line" smooth="yes"/>
      <point x="519" y="672" type="line" smooth="yes"/>
      <point x="538" y="402" type="line" smooth="yes"/>
    </contour>
    <contour>
      <point x="580" y="402" type="line" smooth="yes"/>
      <point x="551" y="701" type="line" smooth="yes"/>
      <point x="367" y="790" type="line" smooth="yes"/>
      <point x="166" y="698" type="line" smooth="yes"/>
      <point x="66" y="402" type="line" smooth="yes"/>
      <point x="63" y="378" type="line" smooth="yes"/>
      <point x="92" y="79" type="line" smooth="yes"/>
      <point x="276" y="-10" type="line" smooth="yes"/>
      <point x="478" y="82" type="line" smooth="yes"/>
      <point x="577" y="378" type="line" smooth="yes"/>
    </contour>
    <contour>
      <point x="382" y="830" type="line" smooth="yes"/>
      <point x="483" y="864" type="line" smooth="yes"/>
      <point x="528" y="950" type="line" smooth="yes"/>
      <point x="492" y="950" type="line" smooth="yes"/>
      <point x="460" y="888" type="line" smooth="yes"/>
      <point x="384" y="863" type="line" smooth="yes"/>
      <point x="315" y="888" type="line" smooth="yes"/>
      <point x="300" y="950" type="line" smooth="yes"/>
      <point x="264" y="950" type="line" smooth="yes"/>
      <point x="288" y="864" type="line" smooth="yes"/>
    </contour>
  </outline>
</glyph>
<glyph name="Ohungarumlaut" format="1">
  <advance width="631"/>
  <unicode hex="0150"/>
  <outline>
    <contour>
      <point x="535" y="378" type="line" smooth="yes"/>
      <point x="449" y="110" type="line" smooth="yes"/>
      <point x="279" y="28" type="line" smooth="yes"/>
      <point x="273" y="28" type="line" smooth="yes"/>
      <point x="124" y="108" type="line" smooth="yes"/>
      <point x="105" y="378" type="line" smooth="yes"/>
      <point x="108" y="402" type="line" smooth="yes"/>
      <point x="194" y="670" type="line" smooth="yes"/>
      <point x="364" y="752" type="line" smooth="yes"/>
      <point x="370" y="752" type="line" smooth="yes"/>
      <point x="519" y="672" type="line" smooth="yes"/>
      <point x="538" y="402" type="line" smooth="yes"/>
    </contour>
    <contour>
      <point x="580" y="402" type="line" smooth="yes"/>
      <point x="551" y="701" type="line" smooth="yes"/>
      <point x="367" y="790" type="line" smooth="yes"/>
      <point x="166" y="698" type="line" smooth="yes"/>
      <point x="66" y="402" type="line" smooth="yes"/>
      <point x="63" y="378" type="line" smooth="yes"/>
      <point x="92" y="79" type="line" smooth="yes"/>
      <point x="276" y="-10" type="line" smooth="yes"/>
      <point x="478" y="82" type="line" smooth="yes"/>
      <point x="577" y="378" type="line" smooth="yes"/>
    </contour>
    <contour>
      <point x="492" y="950" type="line" smooth="yes"/>
      <point x="415" y="840" type="line" smooth="yes"/>
      <point x="457" y="840" type="line" smooth="yes"/>
      <point x="534" y="950" type="line" smooth="yes"/>
    </contour>
    <contour>
      <point x="382" y="950" type="line" smooth="yes"/>
      <point x="305" y="840" type="line" smooth="yes"/>
      <point x="347" y="840" type="line" smooth="yes"/>
      <point x="424" y="950" type="line" smooth="yes"/>
    </contour>
  </outline>
</glyph>
<glyph name="ohungarumlaut" format="1">
  <advance width="540"/>
  <unicode hex="0151"/>
  <outline>
    <contour>
      <point x="229" y="-10" type="line" smooth="yes"/>
      <point x="397" y="64" type="line" smooth="yes"/>
      <point x="471" y="255" type="line" smooth="yes"/>
      <point x="473" y="271" type="line" smooth="yes"/>
      <point x="443" y="461" type="line" smooth="yes"/>
      <point x="283" y="540" type="line" smooth="yes"/>
      <point x="115" y="466" type="line" smooth="yes"/>
      <point x="41" y="275" type="line" smooth="yes"/>
      <point x="39" y="259" type="line" smooth="yes"/>
      <point x="69" y="69" type="line" smooth="yes"/>
    </contour>
    <contour>
      <point x="229" y="28" type="line" smooth="yes"/>
      <point x="104" y="92" type="line" smooth="yes"/>
      <point x="81" y="262" type="line" smooth="yes"/>
      <point x="83" y="278" type="line" smooth="yes"/>
      <point x="147" y="442" type="line" smooth="yes"/>
      <point x="283" y="502" type="line" smooth="yes"/>
      <point x="408" y="438" type="line" smooth="yes"/>
      <point x="431" y="268" type="line" smooth="yes"/>
      <point x="429" y="252" type="line" smooth="yes"/>
      <point x="365" y="88" type="line" smooth="yes"/>
    </contour>
    <contour>
      <point x="337" y="780" type="line" smooth="yes"/>
      <point x="226" y="620" type="line" smooth="yes"/>
      <point x="268" y="620" type="line" smooth="yes"/>
      <point x="379" y="780" type="line" smooth="yes"/>
    </contour>
    <contour>
      <point x="447" y="780" type="line" smooth="yes"/>
      <point x="336" y="620" type="line" smooth="yes"/>
      <point x="378" y="620" type="line" smooth="yes"/>
      <point x="489" y="780" type="line" smooth="yes"/>
    </contour>
  </outline>
</glyph>
<glyph name="oe" format="1">
  <advance width="924"/>
  <unicode hex="0153"/>
  <outline>
    <contour>
      <point x="676" y="502" type="line" smooth="yes"/>
      <point x="799" y="444" type="line" smooth="yes"/>
      <point x="819" y="284" type="line" smooth="yes"/>
      <point x="473" y="284" type="line" smooth="yes"/>
      <point x="538" y="440" type="line" smooth="yes"/>
    </contour>
    <contour>
      <point x="228" y="28" type="line" smooth="yes"/>
      <point x="103" y="92" type="line" smooth="yes"/>
      <point x="81" y="262" type="line" smooth="yes"/>
      <point x="83" y="278" type="line" smooth="yes"/>
      <point x="147" y="442" type="line" smooth="yes"/>
      <point x="282" y="502" type="line" smooth="yes"/>
      <point x="407" y="438" type="line" smooth="yes"/>
      <point x="429" y="268" type="line" smooth="yes"/>
      <point x="427" y="252" type="line" smooth="yes"/>
      <point x="364" y="88" type="line" smooth="yes"/>
    </contour>
    <contour>
      <point x="855" y="246" type="line" smooth="yes"/>
      <point x="859" y="278" type="line" smooth="yes"/>
      <point x="833" y="462" type="line" smooth="yes"/>
      <point x="676" y="540" type="line" smooth="yes"/>
      <point x="544" y="499" type="line" smooth="yes"/>
      <point x="464" y="389" type="line" smooth="yes"/>
      <point x="408" y="498" type="line" smooth="yes"/>
      <point x="282" y="540" type="line" smooth="yes"/>
      <point x="114" y="466" type="line" smooth="yes"/>
      <point x="41" y="275" type="line" smooth="yes"/>
      <point x="39" y="259" type="line" smooth="yes"/>
      <point x="68" y="69" type="line" smooth="yes"/>
      <point x="228" y="-10" type="line" smooth="yes"/>
      <point x="358" y="30" type="line" smooth="yes"/>
      <point x="435" y="139" type="line" smooth="yes"/>
      <point x="493" y="32" type="line" smooth="yes"/>
      <point x="632" y="-10" type="line" smooth="yes"/>
      <point x="785" y="45" type="line" smooth="yes"/>
      <point x="844" y="163" type="line" smooth="yes"/>
      <point x="845" y="170" type="line" smooth="yes"/>
      <point x="805" y="170" type="line" smooth="yes"/>
      <point x="761" y="75" type="line" smooth="yes"/>
      <point x="632" y="28" type="line" smooth="yes"/>
      <point x="494" y="88" type="line" smooth="yes"/>
      <point x="469" y="246" type="line" smooth="yes"/>
    </contour>
  </outline>
</glyph>
<glyph name="racute" format="1">
  <advance width="315"/>
  <unicode hex="0155"/>
  <outline>
    <contour>
      <point x="277" y="540" type="line" smooth="yes"/>
      <point x="180" y="516" type="line" smooth="yes"/>
      <point x="115" y="457" type="line" smooth="yes"/>
      <point x="115" y="530" type="line" smooth="yes"/>
      <point x="85" y="530" type="line" smooth="yes"/>
      <point x="71" y="380" type="line" smooth="yes"/>
      <point x="21" y="0" type="line" smooth="yes"/>
      <point x="61" y="0" type="line" smooth="yes"/>
      <point x="114" y="410" type="line" smooth="yes"/>
      <point x="174" y="471" type="line" smooth="yes"/>
      <point x="277" y="502" type="line" smooth="yes"/>
      <point x="287" y="502" type="line" smooth="yes"/>
      <point x="291" y="539" type="line" smooth="yes"/>
      <point x="287" y="540" type="line" smooth="yes"/>
    </contour>
    <contour>
      <point x="290" y="780" type="line" smooth="yes"/>
      <point x="179" y="620" type="line" smooth="yes"/>
      <point x="221" y="620" type="line" smooth="yes"/>
      <point x="332" y="780" type="line" smooth="yes"/>
    </contour>
  </outline>
</glyph>
<glyph name="Rcommaaccent" format="1">
  <advance width="567"/>
  <unicode hex="0156"/>
  <outline>
    <contour>
      <point x="248" y="-60" type="line" smooth="yes"/>
      <point x="188" y="-60" type="line" smooth="yes"/>
      <point x="180" y="-120" type="line" smooth="yes"/>
      <point x="210" y="-120" type="line" smooth="yes"/>
      <point x="185" y="-166" type="line" smooth="yes"/>
      <point x="142" y="-180" type="line" smooth="yes"/>
      <point x="138" y="-210" type="line" smooth="yes"/>
      <point x="207" y="-182" type="line" smooth="yes"/>
      <point x="241" y="-108" type="line" smooth="yes"/>
    </contour>
    <contour>
      <point x="119" y="368" type="line" smooth="yes"/>
      <point x="168" y="742" type="line" smooth="yes"/>
      <point x="327" y="742" type="line" smooth="yes"/>
      <point x="445" y="708" type="line" smooth="yes"/>
      <point x="492" y="561" type="line" smooth="yes"/>
      <point x="489" y="537" type="line" smooth="yes"/>
      <point x="409" y="398" type="line" smooth="yes"/>
      <point x="286" y="368" type="line" smooth="yes"/>
    </contour>
    <contour>
      <point x="114" y="330" type="line" smooth="yes"/>
      <point x="281" y="330" type="line" smooth="yes"/>
      <point x="304" y="331" type="line" smooth="yes"/>
      <point x="328" y="333" type="line" smooth="yes"/>
      <point x="417" y="0" type="line" smooth="yes"/>
      <point x="461" y="0" type="line" smooth="yes"/>
      <point x="367" y="341" type="line" smooth="yes"/>
      <point x="473" y="402" type="line" smooth="yes"/>
      <point x="531" y="537" type="line" smooth="yes"/>
      <point x="534" y="561" type="line" smooth="yes"/>
      <point x="480" y="734" type="line" smooth="yes"/>
      <point x="330" y="780" type="line" smooth="yes"/>
      <point x="133" y="780" type="line" smooth="yes"/>
      <point x="31" y="0" type="line" smooth="yes"/>
      <point x="71" y="0" type="line" smooth="yes"/>
    </contour>
  </outline>
</glyph>
<glyph name="rcommaaccent" format="1">
  <advance width="315"/>
  <unicode hex="0157"/>
  <outline>
    <contour>
      <point x="277" y="540" type="line" smooth="yes"/>
      <point x="180" y="516" type="line" smooth="yes"/>
      <point x="115" y="457" type="line" smooth="yes"/>
      <point x="115" y="530" type="line" smooth="yes"/>
      <point x="85" y="530" type="line" smooth="yes"/>
      <point x="71" y="380" type="line" smooth="yes"/>
      <point x="21" y="0" type="line" smooth="yes"/>
      <point x="61" y="0" type="line" smooth="yes"/>
      <point x="114" y="410" type="line" smooth="yes"/>
      <point x="174" y="471" type="line" smooth="yes"/>
      <point x="277" y="502" type="line" smooth="yes"/>
      <point x="287" y="502" type="line" smooth="yes"/>
      <point x="291" y="539" type="line" smooth="yes"/>
      <point x="287" y="540" type="line" smooth="yes"/>
    </contour>
    <contour>
      <point x="65" y="-60" type="line" smooth="yes"/>
      <point x="5" y="-60" type="line" smooth="yes"/>
      <point x="-3" y="-120" type="line" smooth="yes"/>
      <point x="27" y="-120" type="line" smooth="yes"/>
      <point x="2" y="-166" type="line" smooth="yes"/>
      <point x="-41" y="-180" type="line" smooth="yes"/>
      <point x="-45" y="-210" type="line" smooth="yes"/>
      <point x="24" y="-182" type="line" smooth="yes"/>
      <point x="58" y="-108" type="line" smooth="yes"/>
    </contour>
  </outline>
</glyph>
<glyph name="rcaron" format="1">
  <advance width="315"/>
  <unicode hex="0159"/>
  <outline>
    <contour>
      <point x="277" y="540" type="line" smooth="yes"/>
      <point x="180" y="516" type="line" smooth="yes"/>
      <point x="115" y="457" type="line" smooth="yes"/>
      <point x="115" y="530" type="line" smooth="yes"/>
      <point x="85" y="530" type="line" smooth="yes"/>
      <point x="71" y="380" type="line" smooth="yes"/>
      <point x="21" y="0" type="line" smooth="yes"/>
      <point x="61" y="0" type="line" smooth="yes"/>
      <point x="114" y="410" type="line" smooth="yes"/>
      <point x="174" y="471" type="line" smooth="yes"/>
      <point x="277" y="502" type="line" smooth="yes"/>
      <point x="287" y="502" type="line" smooth="yes"/>
      <point x="291" y="539" type="line" smooth="yes"/>
      <point x="287" y="540" type="line" smooth="yes"/>
    </contour>
    <contour>
      <point x="76" y="780" type="line" smooth="yes"/>
      <point x="185" y="620" type="line" smooth="yes"/>
      <point x="215" y="620" type="line" smooth="yes"/>
      <point x="366" y="780" type="line" smooth="yes"/>
      <point x="319" y="780" type="line" smooth="yes"/>
      <point x="203" y="656" type="line" smooth="yes"/>
      <point x="119" y="780" type="line" smooth="yes"/>
    </contour>
  </outline>
</glyph>
<glyph name="scircumflex" format="1">
  <advance width="517"/>
  <unicode hex="015D"/>
  <outline>
    <contour>
      <point x="220" y="28" type="line" smooth="yes"/>
      <point x="98" y="66" type="line" smooth="yes"/>
      <point x="77" y="160" type="line" smooth="yes"/>
      <point x="38" y="160" type="line" smooth="yes"/>
      <point x="37" y="152" type="line" smooth="yes"/>
      <point x="66" y="40" type="line" smooth="yes"/>
      <point x="220" y="-10" type="line" smooth="yes"/>
      <point x="361" y="29" type="line" smooth="yes"/>
      <point x="422" y="131" type="line" smooth="yes"/>
      <point x="423" y="139" type="line" smooth="yes"/>
      <point x="393" y="240" type="line" smooth="yes"/>
      <point x="265" y="288" type="line" smooth="yes"/>
      <point x="140" y="328" type="line" smooth="yes"/>
      <point x="116" y="402" type="line" smooth="yes"/>
      <point x="163" y="478" type="line" smooth="yes"/>
      <point x="270" y="502" type="line" smooth="yes"/>
      <point x="389" y="464" type="line" smooth="yes"/>
      <point x="408" y="360" type="line" smooth="yes"/>
      <point x="447" y="360" type="line" smooth="yes"/>
      <point x="448" y="368" type="line" smooth="yes"/>
      <point x="419" y="492" type="line" smooth="yes"/>
      <point x="270" y="540" type="line" smooth="yes"/>
      <point x="132" y="503" type="line" smooth="yes"/>
      <point x="74" y="406" type="line" smooth="yes"/>
      <point x="73" y="398" type="line" smooth="yes"/>
      <point x="102" y="308" type="line" smooth="yes"/>
      <point x="235" y="256" type="line" smooth="yes"/>
      <point x="355" y="219" type="line" smooth="yes"/>
      <point x="380" y="135" type="line" smooth="yes"/>
      <point x="333" y="56" type="line" smooth="yes"/>
    </contour>
    <contour>
      <point x="194" y="620" type="line" smooth="yes"/>
      <point x="310" y="744" type="line" smooth="yes"/>
      <point x="394" y="620" type="line" smooth="yes"/>
      <point x="437" y="620" type="line" smooth="yes"/>
      <point x="328" y="780" type="line" smooth="yes"/>
      <point x="298" y="780" type="line" smooth="yes"/>
      <point x="147" y="620" type="line" smooth="yes"/>
    </contour>
  </outline>
</glyph>
<glyph name="Scedilla" format="1">
  <advance width="585"/>
  <unicode hex="015E"/>
  <outline>
    <contour>
      <point x="139" y="-183" type="line" smooth="yes"/>
      <point x="177" y="-202" type="line" smooth="yes"/>
      <point x="226" y="-210" type="line" smooth="yes"/>
      <point x="297" y="-192" type="line" smooth="yes"/>
      <point x="327" y="-130" type="line" smooth="yes"/>
      <point x="299" y="-78" type="line" smooth="yes"/>
      <point x="242" y="-64" type="line" smooth="yes"/>
      <point x="237" y="-64" type="line" smooth="yes"/>
      <point x="265" y="-10" type="line" smooth="yes"/>
      <point x="436" y="45" type="line" smooth="yes"/>
      <point x="516" y="193" type="line" smooth="yes"/>
      <point x="518" y="209" type="line" smooth="yes"/>
      <point x="482" y="344" type="line" smooth="yes"/>
      <point x="312" y="420" type="line" smooth="yes"/>
      <point x="160" y="482" type="line" smooth="yes"/>
      <point x="129" y="592" type="line" smooth="yes"/>
      <point x="131" y="608" type="line" smooth="yes"/>
      <point x="195" y="716" type="line" smooth="yes"/>
      <point x="330" y="752" type="line" smooth="yes"/>
      <point x="340" y="752" type="line" smooth="yes"/>
      <point x="482" y="698" type="line" smooth="yes"/>
      <point x="509" y="520" type="line" smooth="yes"/>
      <point x="549" y="520" type="line" smooth="yes"/>
      <point x="552" y="539" type="line" smooth="yes"/>
      <point x="517" y="722" type="line" smooth="yes"/>
      <point x="335" y="790" type="line" smooth="yes"/>
      <point x="170" y="746" type="line" smooth="yes"/>
      <point x="89" y="605" type="line" smooth="yes"/>
      <point x="87" y="589" type="line" smooth="yes"/>
      <point x="121" y="465" type="line" smooth="yes"/>
      <point x="288" y="386" type="line" smooth="yes"/>
      <point x="439" y="326" type="line" smooth="yes"/>
      <point x="476" y="206" type="line" smooth="yes"/>
      <point x="474" y="190" type="line" smooth="yes"/>
      <point x="403" y="68" type="line" smooth="yes"/>
      <point x="255" y="28" type="line" smooth="yes"/>
      <point x="245" y="28" type="line" smooth="yes"/>
      <point x="104" y="79" type="line" smooth="yes"/>
      <point x="74" y="250" type="line" smooth="yes"/>
      <point x="34" y="250" type="line" smooth="yes"/>
      <point x="31" y="231" type="line" smooth="yes"/>
      <point x="67" y="59" type="line" smooth="yes"/>
      <point x="229" y="-9" type="line" smooth="yes"/>
      <point x="192" y="-83" type="line" smooth="yes"/>
      <point x="206" y="-99" type="line" smooth="yes"/>
      <point x="214" y="-98" type="line" smooth="yes"/>
      <point x="234" y="-97" type="line" smooth="yes"/>
      <point x="275" y="-104" type="line" smooth="yes"/>
      <point x="293" y="-134" type="line" smooth="yes"/>
      <point x="275" y="-167" type="line" smooth="yes"/>
      <point x="226" y="-177" type="line" smooth="yes"/>
      <point x="184" y="-170" type="line" smooth="yes"/>
      <point x="154" y="-155" type="line" smooth="yes"/>
    </contour>
  </outline>
</glyph>
<glyph name="scedilla" format="1">
  <advance width="517"/>
  <unicode hex="015F"/>
  <outline>
    <contour>
      <point x="220" y="28" type="line" smooth="yes"/>
      <point x="98" y="66" type="line" smooth="yes"/>
      <point x="77" y="160" type="line" smooth="yes"/>
      <point x="38" y="160" type="line" smooth="yes"/>
      <point x="37" y="152" type="line" smooth="yes"/>
      <point x="62" y="45" type="line" smooth="yes"/>
      <point x="194" y="-9" type="line" smooth="yes"/>
      <point x="157" y="-83" type="line" smooth="yes"/>
      <point x="171" y="-99" type="line" smooth="yes"/>
      <point x="179" y="-98" type="line" smooth="yes"/>
      <point x="199" y="-97" type="line" smooth="yes"/>
      <point x="240" y="-104" type="line" smooth="yes"/>
      <point x="258" y="-134" type="line" smooth="yes"/>
      <point x="240" y="-167" type="line" smooth="yes"/>
      <point x="191" y="-177" type="line" smooth="yes"/>
      <point x="149" y="-170" type="line" smooth="yes"/>
      <point x="119" y="-155" type="line" smooth="yes"/>
      <point x="104" y="-183" type="line" smooth="yes"/>
      <point x="142" y="-202" type="line" smooth="yes"/>
      <point x="191" y="-210" type="line" smooth="yes"/>
      <point x="262" y="-192" type="line" smooth="yes"/>
      <point x="292" y="-130" type="line" smooth="yes"/>
      <point x="264" y="-78" type="line" smooth="yes"/>
      <point x="207" y="-64" type="line" smooth="yes"/>
      <point x="202" y="-64" type="line" smooth="yes"/>
      <point x="230" y="-10" type="line" smooth="yes"/>
      <point x="364" y="32" type="line" smooth="yes"/>
      <point x="422" y="131" type="line" smooth="yes"/>
      <point x="423" y="139" type="line" smooth="yes"/>
      <point x="393" y="240" type="line" smooth="yes"/>
      <point x="265" y="288" type="line" smooth="yes"/>
      <point x="140" y="328" type="line" smooth="yes"/>
      <point x="116" y="402" type="line" smooth="yes"/>
      <point x="163" y="478" type="line" smooth="yes"/>
      <point x="270" y="502" type="line" smooth="yes"/>
      <point x="389" y="464" type="line" smooth="yes"/>
      <point x="408" y="360" type="line" smooth="yes"/>
      <point x="447" y="360" type="line" smooth="yes"/>
      <point x="448" y="368" type="line" smooth="yes"/>
      <point x="419" y="492" type="line" smooth="yes"/>
      <point x="270" y="540" type="line" smooth="yes"/>
      <point x="132" y="503" type="line" smooth="yes"/>
      <point x="74" y="406" type="line" smooth="yes"/>
      <point x="73" y="398" type="line" smooth="yes"/>
      <point x="102" y="308" type="line" smooth="yes"/>
      <point x="235" y="256" type="line" smooth="yes"/>
      <point x="355" y="219" type="line" smooth="yes"/>
      <point x="380" y="135" type="line" smooth="yes"/>
      <point x="333" y="56" type="line" smooth="yes"/>
    </contour>
  </outline>
</glyph>
<glyph name="Scaron" format="1">
  <advance width="585"/>
  <unicode hex="0160"/>
  <outline>
    <contour>
      <point x="288" y="386" type="line" smooth="yes"/>
      <point x="439" y="326" type="line" smooth="yes"/>
      <point x="476" y="206" type="line" smooth="yes"/>
      <point x="474" y="190" type="line" smooth="yes"/>
      <point x="403" y="68" type="line" smooth="yes"/>
      <point x="255" y="28" type="line" smooth="yes"/>
      <point x="245" y="28" type="line" smooth="yes"/>
      <point x="104" y="79" type="line" smooth="yes"/>
      <point x="74" y="250" type="line" smooth="yes"/>
      <point x="34" y="250" type="line" smooth="yes"/>
      <point x="31" y="231" type="line" smooth="yes"/>
      <point x="72" y="54" type="line" smooth="yes"/>
      <point x="250" y="-10" type="line" smooth="yes"/>
      <point x="431" y="41" type="line" smooth="yes"/>
      <point x="516" y="193" type="line" smooth="yes"/>
      <point x="518" y="209" type="line" smooth="yes"/>
      <point x="482" y="344" type="line" smooth="yes"/>
      <point x="312" y="420" type="line" smooth="yes"/>
      <point x="160" y="482" type="line" smooth="yes"/>
      <point x="129" y="592" type="line" smooth="yes"/>
      <point x="131" y="608" type="line" smooth="yes"/>
      <point x="195" y="716" type="line" smooth="yes"/>
      <point x="330" y="752" type="line" smooth="yes"/>
      <point x="340" y="752" type="line" smooth="yes"/>
      <point x="482" y="698" type="line" smooth="yes"/>
      <point x="509" y="520" type="line" smooth="yes"/>
      <point x="549" y="520" type="line" smooth="yes"/>
      <point x="552" y="539" type="line" smooth="yes"/>
      <point x="517" y="722" type="line" smooth="yes"/>
      <point x="335" y="790" type="line" smooth="yes"/>
      <point x="170" y="746" type="line" smooth="yes"/>
      <point x="89" y="605" type="line" smooth="yes"/>
      <point x="87" y="589" type="line" smooth="yes"/>
      <point x="121" y="465" type="line" smooth="yes"/>
    </contour>
    <contour>
      <point x="256" y="950" type="line" smooth="yes"/>
      <point x="341" y="840" type="line" smooth="yes"/>
      <point x="371" y="840" type="line" smooth="yes"/>
      <point x="486" y="950" type="line" smooth="yes"/>
      <point x="439" y="950" type="line" smooth="yes"/>
      <point x="358" y="873" type="line" smooth="yes"/>
      <point x="299" y="950" type="line" smooth="yes"/>
    </contour>
  </outline>
</glyph>
<glyph name="tcommaaccent" format="1">
  <advance width="390"/>
  <unicode hex="0163"/>
  <outline>
    <contour>
      <point x="180" y="530" type="line" smooth="yes"/>
      <point x="200" y="680" type="line" smooth="yes"/>
      <point x="160" y="680" type="line" smooth="yes"/>
      <point x="140" y="530" type="line" smooth="yes"/>
      <point x="55" y="530" type="line" smooth="yes"/>
      <point x="50" y="492" type="line" smooth="yes"/>
      <point x="135" y="492" type="line" smooth="yes"/>
      <point x="88" y="135" type="line" smooth="yes"/>
      <point x="114" y="25" type="line" smooth="yes"/>
      <point x="212" y="-10" type="line" smooth="yes"/>
      <point x="257" y="-6" type="line" smooth="yes"/>
      <point x="281" y="0" type="line" smooth="yes"/>
      <point x="285" y="37" type="line" smooth="yes"/>
      <point x="256" y="31" type="line" smooth="yes"/>
      <point x="212" y="28" type="line" smooth="yes"/>
      <point x="146" y="51" type="line" smooth="yes"/>
      <point x="129" y="140" type="line" smooth="yes"/>
      <point x="175" y="492" type="line" smooth="yes"/>
      <point x="355" y="492" type="line" smooth="yes"/>
      <point x="360" y="530" type="line" smooth="yes"/>
    </contour>
    <contour>
      <point x="203" y="-60" type="line" smooth="yes"/>
      <point x="143" y="-60" type="line" smooth="yes"/>
      <point x="135" y="-120" type="line" smooth="yes"/>
      <point x="165" y="-120" type="line" smooth="yes"/>
      <point x="140" y="-166" type="line" smooth="yes"/>
      <point x="97" y="-180" type="line" smooth="yes"/>
      <point x="93" y="-210" type="line" smooth="yes"/>
      <point x="162" y="-182" type="line" smooth="yes"/>
      <point x="196" y="-108" type="line" smooth="yes"/>
    </contour>
  </outline>
</glyph>
<glyph name="tbar" format="1">
  <advance width="390"/>
  <unicode hex="0167"/>
  <outline>
    <contour>
      <point x="180" y="530" type="line" smooth="yes"/>
      <point x="200" y="680" type="line" smooth="yes"/>
      <point x="160" y="680" type="line" smooth="yes"/>
      <point x="140" y="530" type="line" smooth="yes"/>
      <point x="55" y="530" type="line" smooth="yes"/>
      <point x="50" y="492" type="line" smooth="yes"/>
      <point x="135" y="492" type="line" smooth="yes"/>
      <point x="107" y="284" type="line" smooth="yes"/>
      <point x="23" y="284" type="line" smooth="yes"/>
      <point x="18" y="246" type="line" smooth="yes"/>
      <point x="102" y="246" type="line" smooth="yes"/>
      <point x="88" y="135" type="line" smooth="yes"/>
      <point x="114" y="25" type="line" smooth="yes"/>
      <point x="212" y="-10" type="line" smooth="yes"/>
      <point x="257" y="-6" type="line" smooth="yes"/>
      <point x="281" y="0" type="line" smooth="yes"/>
      <point x="285" y="37" type="line" smooth="yes"/>
      <point x="256" y="31" type="line" smooth="yes"/>
      <point x="212" y="28" type="line" smooth="yes"/>
      <point x="146" y="51" type="line" smooth="yes"/>
      <point x="129" y="140" type="line" smooth="yes"/>
      <point x="143" y="246" type="line" smooth="yes"/>
      <point x="283" y="246" type="line" smooth="yes"/>
      <point x="288" y="284" type="line" smooth="yes"/>
      <point x="148" y="284" type="line" smooth="yes"/>
      <point x="175" y="492" type="line" smooth="yes"/>
      <point x="355" y="492" type="line" smooth="yes"/>
      <point x="360" y="530" type="line" smooth="yes"/>
    </contour>
  </outline>
</glyph>
<glyph name="Utilde" format="1">
  <advance width="630"/>
  <unicode hex="0168"/>
  <outline>
    <contour>
      <point x="273" y="-10" type="line" smooth="yes"/>
      <point x="452" y="44" type="line" smooth="yes"/>
      <point x="537" y="240" type="line" smooth="yes"/>
      <point x="608" y="780" type="line" smooth="yes"/>
      <point x="568" y="780" type="line" smooth="yes"/>
      <point x="498" y="245" type="line" smooth="yes"/>
      <point x="426" y="74" type="line" smooth="yes"/>
      <point x="273" y="28" type="line" smooth="yes"/>
      <point x="129" y="74" type="line" smooth="yes"/>
      <point x="98" y="245" type="line" smooth="yes"/>
      <point x="168" y="780" type="line" smooth="yes"/>
      <point x="128" y="780" type="line" smooth="yes"/>
      <point x="57" y="240" type="line" smooth="yes"/>
      <point x="99" y="43" type="line" smooth="yes"/>
    </contour>
    <contour>
      <point x="492" y="932" type="line" smooth="yes"/>
      <point x="477" y="893" type="line" smooth="yes"/>
      <point x="446" y="881" type="line" smooth="yes"/>
      <point x="391" y="912" type="line" smooth="yes"/>
      <point x="322" y="942" type="line" smooth="yes"/>
      <point x="267" y="921" type="line" smooth="yes"/>
      <point x="238" y="858" type="line" smooth="yes"/>
      <point x="274" y="858" type="line" smooth="yes"/>
      <point x="290" y="897" type="line" smooth="yes"/>
      <point x="320" y="909" type="line" smooth="yes"/>
      <point x="376" y="879" type="line" smooth="yes"/>
      <point x="445" y="848" type="line" smooth="yes"/>
      <point x="500" y="869" type="line" smooth="yes"/>
      <point x="528" y="932" type="line" smooth="yes"/>
    </contour>
  </outline>
</glyph>
<glyph name="utilde" format="1">
  <advance width="510"/>
  <unicode hex="0169"/>
  <outline>
    <contour>
      <point x="85" y="530" type="line" smooth="yes"/>
      <point x="36" y="155" type="line" smooth="yes"/>
      <point x="66" y="34" type="line" smooth="yes"/>
      <point x="191" y="-10" type="line" smooth="yes"/>
      <point x="294" y="15" type="line" smooth="yes"/>
      <point x="367" y="78" type="line" smooth="yes"/>
      <point x="366" y="0" type="line" smooth="yes"/>
      <point x="396" y="0" type="line" smooth="yes"/>
      <point x="410" y="150" type="line" smooth="yes"/>
      <point x="460" y="530" type="line" smooth="yes"/>
      <point x="420" y="530" type="line" smooth="yes"/>
      <point x="367" y="120" type="line" smooth="yes"/>
      <point x="304" y="59" type="line" smooth="yes"/>
      <point x="196" y="28" type="line" smooth="yes"/>
      <point x="101" y="58" type="line" smooth="yes"/>
      <point x="77" y="160" type="line" smooth="yes"/>
      <point x="125" y="530" type="line" smooth="yes"/>
    </contour>
    <contour>
      <point x="405" y="737" type="line" smooth="yes"/>
      <point x="389" y="698" type="line" smooth="yes"/>
      <point x="361" y="687" type="line" smooth="yes"/>
      <point x="302" y="717" type="line" smooth="yes"/>
      <point x="231" y="747" type="line" smooth="yes"/>
      <point x="177" y="726" type="line" smooth="yes"/>
      <point x="150" y="663" type="line" smooth="yes"/>
      <point x="185" y="663" type="line" smooth="yes"/>
      <point x="201" y="702" type="line" smooth="yes"/>
      <point x="228" y="713" type="line" smooth="yes"/>
      <point x="287" y="683" type="line" smooth="yes"/>
      <point x="358" y="653" type="line" smooth="yes"/>
      <point x="412" y="674" type="line" smooth="yes"/>
      <point x="440" y="737" type="line" smooth="yes"/>
    </contour>
  </outline>
</glyph>
<glyph name="Umacron" format="1">
  <advance width="630"/>
  <unicode hex="016A"/>
  <outline>
    <contour>
      <point x="273" y="-10" type="line" smooth="yes"/>
      <point x="452" y="44" type="line" smooth="yes"/>
      <point x="537" y="240" type="line" smooth="yes"/>
      <point x="608" y="780" type="line" smooth="yes"/>
      <point x="568" y="780" type="line" smooth="yes"/>
      <point x="498" y="245" type="line" smooth="yes"/>
      <point x="426" y="74" type="line" smooth="yes"/>
      <point x="273" y="28" type="line" smooth="yes"/>
      <point x="129" y="74" type="line" smooth="yes"/>
      <point x="98" y="245" type="line" smooth="yes"/>
      <point x="168" y="780" type="line" smooth="yes"/>
      <point x="128" y="780" type="line" smooth="yes"/>
      <point x="57" y="240" type="line" smooth="yes"/>
      <point x="99" y="43" type="line" smooth="yes"/>
    </contour>
    <contour>
      <point x="281" y="875" type="line" smooth="yes"/>
      <point x="481" y="875" type="line" smooth="yes"/>
      <point x="486" y="915" type="line" smooth="yes"/>
      <point x="286" y="915" type="line" smooth="yes"/>
    </contour>
  </outline>
</glyph>
<glyph name="Ubreve" format="1">
  <advance width="630"/>
  <unicode hex="016C"/>
  <outline>
    <contour>
      <point x="273" y="-10" type="line" smooth="yes"/>
      <point x="452" y="44" type="line" smooth="yes"/>
      <point x="537" y="240" type="line" smooth="yes"/>
      <point x="608" y="780" type="line" smooth="yes"/>
      <point x="568" y="780" type="line" smooth="yes"/>
      <point x="498" y="245" type="line" smooth="yes"/>
      <point x="426" y="74" type="line" smooth="yes"/>
      <point x="273" y="28" type="line" smooth="yes"/>
      <point x="129" y="74" type="line" smooth="yes"/>
      <point x="98" y="245" type="line" smooth="yes"/>
      <point x="168" y="780" type="line" smooth="yes"/>
      <point x="128" y="780" type="line" smooth="yes"/>
      <point x="57" y="240" type="line" smooth="yes"/>
      <point x="99" y="43" type="line" smooth="yes"/>
    </contour>
    <contour>
      <point x="377" y="830" type="line" smooth="yes"/>
      <point x="478" y="864" type="line" smooth="yes"/>
      <point x="523" y="950" type="line" smooth="yes"/>
      <point x="487" y="950" type="line" smooth="yes"/>
      <point x="455" y="888" type="line" smooth="yes"/>
      <point x="379" y="863" type="line" smooth="yes"/>
      <point x="310" y="888" type="line" smooth="yes"/>
      <point x="295" y="950" type="line" smooth="yes"/>
      <point x="259" y="950" type="line" smooth="yes"/>
      <point x="283" y="864" type="line" smooth="yes"/>
    </contour>
  </outline>
</glyph>
<glyph name="Uring" format="1">
  <advance width="630"/>
  <unicode hex="016E"/>
  <outline>
    <contour>
      <point x="273" y="-10" type="line" smooth="yes"/>
      <point x="452" y="44" type="line" smooth="yes"/>
      <point x="537" y="240" type="line" smooth="yes"/>
      <point x="608" y="780" type="line" smooth="yes"/>
      <point x="568" y="780" type="line" smooth="yes"/>
      <point x="498" y="245" type="line" smooth="yes"/>
      <point x="426" y="74" type="line" smooth="yes"/>
      <point x="273" y="28" type="line" smooth="yes"/>
      <point x="129" y="74" type="line" smooth="yes"/>
      <point x="98" y="245" type="line" smooth="yes"/>
      <point x="168" y="780" type="line" smooth="yes"/>
      <point x="128" y="780" type="line" smooth="yes"/>
      <point x="57" y="240" type="line" smooth="yes"/>
      <point x="99" y="43" type="line" smooth="yes"/>
    </contour>
    <contour>
      <point x="322" y="860" type="line" smooth="yes"/>
      <point x="342" y="911" type="line" smooth="yes"/>
      <point x="387" y="928" type="line" smooth="yes"/>
      <point x="424" y="914" type="line" smooth="yes"/>
      <point x="438" y="880" type="line" smooth="yes"/>
      <point x="418" y="829" type="line" smooth="yes"/>
      <point x="373" y="812" type="line" smooth="yes"/>
      <point x="336" y="826" type="line" smooth="yes"/>
    </contour>
    <contour>
      <point x="471" y="880" type="line" smooth="yes"/>
      <point x="448" y="937" type="line" smooth="yes"/>
      <point x="387" y="960" type="line" smooth="yes"/>
      <point x="317" y="931" type="line" smooth="yes"/>
      <point x="289" y="860" type="line" smooth="yes"/>
      <point x="312" y="803" type="line" smooth="yes"/>
      <point x="373" y="780" type="line" smooth="yes"/>
      <point x="443" y="809" type="line" smooth="yes"/>
    </contour>
  </outline>
</glyph>
<glyph name="uring" format="1">
  <advance width="510"/>
  <unicode hex="016F"/>
  <outline>
    <contour>
      <point x="237" y="690" type="line" smooth="yes"/>
      <point x="257" y="741" type="line" smooth="yes"/>
      <point x="302" y="758" type="line" smooth="yes"/>
      <point x="339" y="744" type="line" smooth="yes"/>
      <point x="353" y="710" type="line" smooth="yes"/>
      <point x="333" y="659" type="line" smooth="yes"/>
      <point x="288" y="642" type="line" smooth="yes"/>
      <point x="251" y="656" type="line" smooth="yes"/>
    </contour>
    <contour>
      <point x="386" y="710" type="line" smooth="yes"/>
      <point x="363" y="767" type="line" smooth="yes"/>
      <point x="302" y="790" type="line" smooth="yes"/>
      <point x="232" y="761" type="line" smooth="yes"/>
      <point x="204" y="690" type="line" smooth="yes"/>
      <point x="227" y="633" type="line" smooth="yes"/>
      <point x="288" y="610" type="line" smooth="yes"/>
      <point x="358" y="639" type="line" smooth="yes"/>
    </contour>
    <contour>
      <point x="85" y="530" type="line" smooth="yes"/>
      <point x="36" y="155" type="line" smooth="yes"/>
      <point x="66" y="34" type="line" smooth="yes"/>
      <point x="191" y="-10" type="line" smooth="yes"/>
      <point x="294" y="15" type="line" smooth="yes"/>
      <point x="367" y="78" type="line" smooth="yes"/>
      <point x="366" y="0" type="line" smooth="yes"/>
      <point x="396" y="0" type="line" smooth="yes"/>
      <point x="410" y="150" type="line" smooth="yes"/>
      <point x="460" y="530" type="line" smooth="yes"/>
      <point x="420" y="530" type="line" smooth="yes"/>
      <point x="367" y="120" type="line" smooth="yes"/>
      <point x="304" y="59" type="line" smooth="yes"/>
      <point x="196" y="28" type="line" smooth="yes"/>
      <point x="101" y="58" type="line" smooth="yes"/>
      <point x="77" y="160" type="line" smooth="yes"/>
      <point x="125" y="530" type="line" smooth="yes"/>
    </contour>
  </outline>
</glyph>
<glyph name="Uogonek" format="1">
  <advance width="630"/>
  <unicode hex="0172"/>
  <outline>
    <contour>
      <point x="273" y="-10" type="line" smooth="yes"/>
      <point x="288" y="-10" type="line" smooth="yes"/>
      <point x="240" y="-61" type="line" smooth="yes"/>
      <point x="221" y="-131" type="line" smooth="yes"/>
      <point x="246" y="-190" type="line" smooth="yes"/>
      <point x="314" y="-210" type="line" smooth="yes"/>
      <point x="354" y="-205" type="line" smooth="yes"/>
      <point x="392" y="-191" type="line" smooth="yes"/>
      <point x="384" y="-163" type="line" smooth="yes"/>
      <point x="354" y="-173" type="line" smooth="yes"/>
      <point x="321" y="-177" type="line" smooth="yes"/>
      <point x="273" y="-164" type="line" smooth="yes"/>
      <point x="255" y="-127" type="line" smooth="yes"/>
      <point x="291" y="-44" type="line" smooth="yes"/>
      <point x="365" y="0" type="line" smooth="yes"/>
      <point x="479" y="74" type="line" smooth="yes"/>
      <point x="537" y="240" type="line" smooth="yes"/>
      <point x="608" y="780" type="line" smooth="yes"/>
      <point x="568" y="780" type="line" smooth="yes"/>
      <point x="498" y="245" type="line" smooth="yes"/>
      <point x="426" y="74" type="line" smooth="yes"/>
      <point x="273" y="28" type="line" smooth="yes"/>
      <point x="129" y="74" type="line" smooth="yes"/>
      <point x="98" y="245" type="line" smooth="yes"/>
      <point x="168" y="780" type="line" smooth="yes"/>
      <point x="128" y="780" type="line" smooth="yes"/>
      <point x="57" y="240" type="line" smooth="yes"/>
      <point x="99" y="43" type="line" smooth="yes"/>
    </contour>
  </outline>
</glyph>
<glyph name="uogonek" format="1">
  <advance width="510"/>
  <unicode hex="0173"/>
  <outline>
    <contour>
      <point x="85" y="530" type="line" smooth="yes"/>
      <point x="36" y="155" type="line" smooth="yes"/>
      <point x="66" y="34" type="line" smooth="yes"/>
      <point x="191" y="-10" type="line" smooth="yes"/>
      <point x="294" y="15" type="line" smooth="yes"/>
      <point x="367" y="78" type="line" smooth="yes"/>
      <point x="366" y="18" type="line" smooth="yes"/>
      <point x="287" y="-38" type="line" smooth="yes"/>
      <point x="252" y="-131" type="line" smooth="yes"/>
      <point x="277" y="-190" type="line" smooth="yes"/>
      <point x="345" y="-210" type="line" smooth="yes"/>
      <point x="385" y="-205" type="line" smooth="yes"/>
      <point x="423" y="-191" type="line" smooth="yes"/>
      <point x="415" y="-163" type="line" smooth="yes"/>
      <point x="385" y="-173" type="line" smooth="yes"/>
      <point x="352" y="-177" type="line" smooth="yes"/>
      <point x="304" y="-164" type="line" smooth="yes"/>
      <point x="286" y="-127" type="line" smooth="yes"/>
      <point x="323" y="-47" type="line" smooth="yes"/>
      <point x="396" y="0" type="line" smooth="yes"/>
      <point x="410" y="150" type="line" smooth="yes"/>
      <point x="460" y="530" type="line" smooth="yes"/>
      <point x="420" y="530" type="line" smooth="yes"/>
      <point x="367" y="120" type="line" smooth="yes"/>
      <point x="304" y="59" type="line" smooth="yes"/>
      <point x="196" y="28" type="line" smooth="yes"/>
      <point x="101" y="58" type="line" smooth="yes"/>
      <point x="77" y="160" type="line" smooth="yes"/>
      <point x="125" y="530" type="line" smooth="yes"/>
    </contour>
  </outline>
</glyph>
<glyph name="Wcircumflex" format="1">
  <advance width="880"/>
  <unicode hex="0174"/>
  <outline>
    <contour>
      <point x="569" y="-10" type="line" smooth="yes"/>
      <point x="629" y="-10" type="line" smooth="yes"/>
      <point x="884" y="780" type="line" smooth="yes"/>
      <point x="840" y="780" type="line" smooth="yes"/>
      <point x="604" y="32" type="line" smooth="yes"/>
      <point x="522" y="780" type="line" smooth="yes"/>
      <point x="462" y="780" type="line" smooth="yes"/>
      <point x="184" y="32" type="line" smooth="yes"/>
      <point x="144" y="780" type="line" smooth="yes"/>
      <point x="102" y="780" type="line" smooth="yes"/>
      <point x="149" y="-10" type="line" smooth="yes"/>
      <point x="209" y="-10" type="line" smooth="yes"/>
      <point x="488" y="740" type="line" smooth="yes"/>
    </contour>
    <contour>
      <point x="433" y="840" type="line" smooth="yes"/>
      <point x="513" y="917" type="line" smooth="yes"/>
      <point x="573" y="840" type="line" smooth="yes"/>
      <point x="616" y="840" type="line" smooth="yes"/>
      <point x="531" y="950" type="line" smooth="yes"/>
      <point x="501" y="950" type="line" smooth="yes"/>
      <point x="386" y="840" type="line" smooth="yes"/>
    </contour>
  </outline>
</glyph>
<glyph name="Ycircumflex" format="1">
  <advance width="560"/>
  <unicode hex="0176"/>
  <outline>
    <contour>
      <point x="281" y="235" type="line" smooth="yes"/>
      <point x="588" y="780" type="line" smooth="yes"/>
      <point x="543" y="780" type="line" smooth="yes"/>
      <point x="266" y="285" type="line" smooth="yes"/>
      <point x="119" y="780" type="line" smooth="yes"/>
      <point x="78" y="780" type="line" smooth="yes"/>
      <point x="241" y="235" type="line" smooth="yes"/>
      <point x="211" y="0" type="line" smooth="yes"/>
      <point x="251" y="0" type="line" smooth="yes"/>
    </contour>
    <contour>
      <point x="273" y="840" type="line" smooth="yes"/>
      <point x="353" y="917" type="line" smooth="yes"/>
      <point x="413" y="840" type="line" smooth="yes"/>
      <point x="456" y="840" type="line" smooth="yes"/>
      <point x="371" y="950" type="line" smooth="yes"/>
      <point x="341" y="950" type="line" smooth="yes"/>
      <point x="226" y="840" type="line" smooth="yes"/>
    </contour>
  </outline>
</glyph>
<glyph name="Ydieresis" format="1">
  <advance width="560"/>
  <unicode hex="0178"/>
  <outline>
    <contour>
      <point x="281" y="235" type="line" smooth="yes"/>
      <point x="588" y="780" type="line" smooth="yes"/>
      <point x="543" y="780" type="line" smooth="yes"/>
      <point x="266" y="285" type="line" smooth="yes"/>
      <point x="119" y="780" type="line" smooth="yes"/>
      <point x="78" y="780" type="line" smooth="yes"/>
      <point x="241" y="235" type="line" smooth="yes"/>
      <point x="211" y="0" type="line" smooth="yes"/>
      <point x="251" y="0" type="line" smooth="yes"/>
    </contour>
    <contour>
      <point x="307" y="925" type="line" smooth="yes"/>
      <point x="247" y="925" type="line" smooth="yes"/>
      <point x="239" y="865" type="line" smooth="yes"/>
      <point x="299" y="865" type="line" smooth="yes"/>
    </contour>
    <contour>
      <point x="457" y="925" type="line" smooth="yes"/>
      <point x="397" y="925" type="line" smooth="yes"/>
      <point x="389" y="865" type="line" smooth="yes"/>
      <point x="449" y="865" type="line" smooth="yes"/>
    </contour>
  </outline>
</glyph>
<glyph name="Ymacron" format="1">
  <advance width="560"/>
  <unicode hex="0232"/>
  <outline>
    <contour>
      <point x="281" y="235" type="line" smooth="yes"/>
      <point x="588" y="780" type="line" smooth="yes"/>
      <point x="543" y="780" type="line" smooth="yes"/>
      <point x="266" y="285" type="line" smooth="yes"/>
      <point x="119" y="780" type="line" smooth="yes"/>
      <point x="78" y="780" type="line" smooth="yes"/>
      <point x="241" y="235" type="line" smooth="yes"/>
      <point x="211" y="0" type="line" smooth="yes"/>
      <point x="251" y="0" type="line" smooth="yes"/>
    </contour>
    <contour>
      <point x="246" y="875" type="line" smooth="yes"/>
      <point x="446" y="875" type="line" smooth="yes"/>
      <point x="451" y="915" type="line" smooth="yes"/>
      <point x="251" y="915" type="line" smooth="yes"/>
    </contour>
  </outline>
</glyph>
<glyph name="breve" format="1">
  <advance width="500"/>
  <unicode hex="02D8"/>
  <outline>
    <contour>
      <point x="283" y="610" type="line" smooth="yes"/>
      <point x="404" y="658" type="line" smooth="yes"/>
      <point x="455" y="780" type="line" smooth="yes"/>
      <point x="419" y="780" type="line" smooth="yes"/>
      <point x="380" y="682" type="line" smooth="yes"/>
      <point x="285" y="643" type="line" smooth="yes"/>
      <point x="200" y="682" type="line" smooth="yes"/>
      <point x="187" y="780" type="line" smooth="yes"/>
      <point x="151" y="780" type="line" smooth="yes"/>
      <point x="173" y="658" type="line" smooth="yes"/>
    </contour>
  </outline>
</glyph>
